<svg xmlns="http://www.w3.org/2000/svg" viewBox="0 0 252 49.7"><style type="text/css"> .st0{fill:#7f7f7f;} </style><path class="st0" d="M25.1 27.1c-0.1 0.5-0.2 1-0.3 1.4 -0.3 0.7-0.6 1.4-1.2 1.9 -0.8 0.8-1.9 1.2-3.3 1.2 -1.1 0-2-0.2-2.7-0.6 -0.8-0.4-1.4-0.9-1.8-1.5 -0.5-0.6-0.8-1.3-1-2.1s-0.3-1.7-0.3-2.5c0-0.9 0.1-1.8 0.3-2.6 0.2-0.8 0.5-1.6 1-2.2 0.5-0.6 1.1-1.1 1.8-1.5 0.8-0.4 1.7-0.6 2.7-0.6 0.5 0 1.1 0.1 1.6 0.3 0.5 0.1 1 0.4 1.4 0.7 0.4 0.3 0.7 0.7 1 1.1 0.2 0.4 0.4 0.8 0.5 1.3v0.2h5.1v-0.2c-0.2-1.3-0.5-2.4-1.1-3.3 -0.5-1-1.2-1.8-2.1-2.4 -0.8-0.7-1.8-1.2-2.9-1.5 -1.1-0.3-2.3-0.5-3.5-0.5 -1.7 0-3.2 0.3-4.6 0.9 -1.4 0.6-2.6 1.4-3.5 2.4 -1 1-1.7 2.2-2.2 3.5 -0.4 1.4-0.7 2.8-0.7 4.4 0 1.5 0.2 3 0.7 4.3 0.5 1.4 1.3 2.5 2.2 3.5 1 1 2.1 1.7 3.5 2.3 1.4 0.5 2.9 0.8 4.6 0.8 1.4 0 2.6-0.2 3.8-0.6 1.1-0.4 2.1-1 3-1.7 0.9-0.7 1.6-1.6 2.1-2.7 0.5-1.1 0.9-2.3 1-3.6V27h-5.1V27.1z"/><polygon class="st0" points="46.7 25.5 40.6 25.5 40.6 19.6 36.6 19.6 36.6 35.3 40.6 35.3 40.6 28.7 46.7 28.7 46.7 35.3 50.7 35.3 50.7 19.6 46.7 19.6 "/><path class="st0" d="M70.9 34.3c-0.1-0.3-0.2-0.6-0.2-0.9 -0.1-0.3-0.1-0.7-0.1-1 0-0.4 0-0.7 0-0.9 -0.1-0.4-0.1-0.8-0.2-1.2 -0.1-0.4-0.2-0.8-0.4-1.1 0 0 0 0 0 0 0-0.1 0-0.1-0.1-0.2 -0.2-0.3-0.4-0.6-0.7-0.8 -0.2-0.1-0.4-0.2-0.6-0.3 0.7-0.4 1.2-0.8 1.5-1.4 0.4-0.7 0.6-1.6 0.6-2.5 0 0 0 0 0 0 0 0 0 0 0-0.1 0-0.5-0.1-1.1-0.3-1.6 -0.2-0.5-0.6-1-1-1.4 -0.5-0.4-1-0.8-1.6-1 -0.6-0.2-1.3-0.3-2-0.3h-9v15.8h4v-6h3.4c0.8 0 1.4 0.2 1.8 0.5 0.3 0.3 0.6 0.9 0.7 1.6 0.1 0.6 0.2 1.2 0.2 1.9 0.1 0.7 0.2 1.3 0.4 1.8l0.1 0.1h4.1L71.2 35C71.1 34.8 71 34.6 70.9 34.3zM60.9 22.5h3.7c0.8 0 1.3 0.2 1.7 0.5 0.3 0.3 0.5 0.8 0.5 1.5s-0.1 1.2-0.5 1.5c-0.4 0.3-0.9 0.5-1.7 0.5h-3.7V22.5z"/><rect x="76.8" y="19.6" class="st0" width="4" height="15.7"/><path class="st0" d="M99.6 28.6c-1-1.4-2.6-2.1-4.2-2.5 -1-0.3-2.1-0.4-3.1-0.7 -0.3-0.1-1.5-0.3-1.6-0.7 -0.4-0.5 0.1-1.5 0.6-1.8 0.2-0.2 0.4-0.2 0.7-0.3 0.8-0.2 2.2-0.2 2.9 0.3 0.2 0.1 0.4 0.3 0.6 0.6 0.3 0.3 0.3 0.8 0.3 1.2h3.8c0-0.9-0.1-1.8-0.6-2.6 -0.9-1.3-2.1-2.1-3.6-2.5C92.5 19 89 19.3 87.2 22c-1.3 2.2-0.5 4.7 1.8 5.8 2.2 1.1 4.9 0.9 6.9 2.3 0.7 0.7 0.4 1.6-0.3 2.1 -0.8 0.5-1.9 0.6-2.8 0.5 -1.6-0.2-2.9-1.1-2.9-2.8H86c0 1 0.2 1.9 0.6 2.8 0.4 0.7 0.9 1.3 1.6 1.8 1.2 0.7 2.4 1.1 3.8 1.2 1.4 0.1 2.8-0.1 4.2-0.1 0.9-0.3 1.6-0.7 2.2-1.1C100.1 33.1 100.8 30.5 99.6 28.6 99.2 28 100 29.2 99.6 28.6z"/><polygon class="st0" points="104 22.8 108.9 22.8 108.9 35.3 112.8 35.3 112.8 22.8 117.7 22.8 117.7 19.5 104 19.5 "/><rect x="122.7" y="19.6" class="st0" width="4" height="15.7"/><polygon class="st0" points="145.3 32.2 136.9 32.2 136.9 28.9 144.8 28.9 144.8 25.8 136.9 25.8 136.9 22.9 145.5 22.9 145.5 19.6 132.9 19.6 132.9 35.3 145.6 35.3 145.6 32.2 "/><path class="st0" d="M177 30.6h-9.4V14.9v-1.2h-1.2 -3.9 -1.2v1.2 19.8 1.2h1.2H177h1.2v-1.2 -2.9 -1.2H177zM177 34.7h-14.5V14.9h3.9v16.9H177V34.7z"/><path class="st0" d="M186.9 19h-2.7H183v1.2 14.5 1.2h1.2 2.7 1.2v-1.2V20.2 19H186.9zM186.9 34.7h-2.7V20.2h2.7V34.7z"/><path class="st0" d="M205.6 19.1h-12.4H192v1.2 1.9 1.2h1.2 3.7l-0.1 11.3 0 1.2h1.2 2.7 1.2v-1.2V23.4h3.7 1.2v-1.2 -1.9 -1.2H205.6zM205.6 22.2h-4.9v12.5H198l0.1-12.5h-4.9v-1.9h12.4V22.2z"/><path class="st0" d="M223.2 31.6h-7.5v-2.2h6.7 1.2v-1.2 -1.7 -1.2h-1.2 -6.7v-1.8h7.4 1.2v-1.2 -1.9 -1.2h-1.2 -11.2 -1.2v1.2 14.3 1.2h1.2 11.3 1.2v-1.2 -1.9 -1.2H223.2zM223.2 34.7h-11.3V20.4h11.2v1.9h-8.6v4.2h7.9v1.7h-7.9v4.6h8.7V34.7z"/><path class="st0" d="M240.5 26.5L240.5 26.5l-0.1-0.1c-0.6-0.3-1.1-0.6-1.7-0.8l-0.1 0 -0.1 0c-0.4-0.1-0.8-0.2-1.1-0.3l-0.1 0 -0.1 0c-0.7-0.1-1.7-0.4-2.4-0.6l0 0 0 0c-0.2 0-0.3-0.1-0.5-0.1 -0.3-0.1-0.6-0.2-0.7-0.2l-0.1 0 -0.1 0c-0.5-0.3-0.5-0.5-0.5-0.6 0-0.4 0.4-0.9 1-1.1 0.2 0 0.4-0.1 0.7-0.1 0.3 0 0.7 0 1.1 0.1 0.3 0.1 0.5 0.1 0.7 0.2l0.1 0 0.1 0c0.1 0.1 0.2 0.2 0.4 0.4l0.1 0.1c0.1 0.1 0.1 0.2 0.1 0.2v1.2h1.2 2.6 1.2v-1.2c0-1-0.4-1.7-0.6-2.2 -0.4-0.8-1-1.3-1.6-1.8l0 0 0 0c-0.8-0.5-1.5-0.8-2.2-1l0 0 0 0c-0.9-0.2-1.8-0.3-2.6-0.3 -0.8 0-1.6 0.1-2.4 0.3 -0.7 0.2-1.5 0.5-2.2 1 -0.6 0.4-1.1 1-1.5 1.5l-0.1 0.1 0 0.1c-0.9 1.4-0.9 3.3-0.1 4.6 0.6 1.1 1.9 2.1 3.1 2.4l0.3 0.1c0.4 0.2 0.9 0.3 1.4 0.4 0.5 0.2 1.1 0.3 1.5 0.4l0.2 0c1 0.2 1.8 0.5 2.2 0.9l0.1 0.1 0.1 0.1c0.2 0.2 0.2 0.2 0.2 0.4 -0.2 0.5-0.9 1-1.4 1h-0.1l-0.1 0c-0.3 0-0.7 0.1-1 0.1 -0.5 0-0.9 0-1.2-0.1l0 0 0 0c-0.6-0.1-1.1-0.5-1.4-1l0-0.1 0-0.1c0-0.1-0.1-0.2-0.1-0.4v-1.2h-1.2 -2.7 -1.2V30v0.5c0 0.8 0.2 1.6 0.6 2.4 1.1 2.1 3.7 3.4 6.9 3.4 2.1 0 4.2-0.6 5.6-1.5l0 0 0 0c1.3-1 2-2.6 2-4.1C242.7 29 241.9 27.5 240.5 26.5zM239.9 33.8c-1.2 0.8-3.1 1.3-4.9 1.3 -2.4 0-4.9-0.8-5.9-2.8 -0.3-0.5-0.5-1.1-0.5-1.8V30h2.7c0 0.4 0.1 0.8 0.3 1.1 0.4 0.8 1.3 1.4 2.2 1.6 0.5 0.1 1 0.2 1.5 0.2 0.4 0 0.7 0 1.1-0.1 1.6 0 3.7-2.2 1.9-3.5 -0.7-0.7-1.9-1-2.8-1.2 -0.5-0.1-1.1-0.2-1.7-0.4 -0.6-0.1-1.1-0.3-1.7-0.5 -0.9-0.2-2-1-2.4-1.8 -0.6-1-0.5-2.4 0.1-3.4 0.4-0.5 0.8-1 1.3-1.3 0.5-0.4 1.1-0.6 1.8-0.8 0.7-0.2 1.4-0.3 2.1-0.3 0.8 0 1.6 0.1 2.3 0.3 0.7 0.2 1.3 0.4 1.9 0.8 0.5 0.4 1 0.8 1.3 1.4 0.3 0.5 0.5 1 0.5 1.6h-2.6c0-0.3-0.1-0.6-0.3-0.9 -0.3-0.4-0.5-0.7-0.9-0.9 -0.3-0.2-0.7-0.3-1.1-0.4 -0.4-0.1-0.8-0.1-1.3-0.1 -0.3 0-0.7 0-1 0.1 -1.8 0.6-2.8 2.9-0.7 3.9 0.3 0.2 0.8 0.3 1.5 0.5 0.6 0.2 1.5 0.4 2.5 0.6 0.3 0.1 0.7 0.2 1.2 0.3 0.5 0.2 1 0.4 1.5 0.7C242 29.1 242.1 32.1 239.9 33.8z"/></svg>
