<svg xmlns="http://www.w3.org/2000/svg" viewBox="0 0 120 50"><style>.a{fill:#7f7f7f;}</style><path d="M67.8 13c-3 0-5.9 0-8.9 0 -5.3 0.1-8.5 2.8-9.3 8 -0.5 3-1 6-2.9 8.5 -3.5 4.5-8.3 6.8-13.9 7.2 -7.7 0.6-15.4 0.1-23.1 0.2 -0.9 0-1.2-0.3-1.2-1.2 0-5.9 0.1-11.8 0-17.7 0-0.9 0.2-1.3 1.2-1.3 2.6 0 5.2 0 7.8 0 1 0 1.2 0.4 1.2 1.3 0 3 0 6.1 0 9.1 0 1.1 0.3 1.5 1.5 1.5 4.1-0.2 8.1 0.3 12.2-0.2 4.8-0.6 7.5-3.6 7.6-8.4C40 13.5 44.3 8.1 51.1 5.8c2.3-0.8 4.8-1.2 7.2-1.2 7.7 0 15.4 0 23.1 0 1.2 0 1.5 0.3 0.9 1.4 -1.1 2-2.2 4.1-3.2 6.1 -0.4 0.7-0.9 1-1.7 1C74.2 13 71 13 67.8 13 67.8 13 67.8 13 67.8 13z" class="a"/><path d="M84.9 36.9c-5.2 0-10.3 0-15.5 0 -1.5 0-1.5-0.1-0.9-1.4 3.1-5.9 6.2-11.9 9.2-17.8 0.4-0.8 0.9-1.1 1.8-1.1 10.4 0.1 20.8 0.1 31.2 0.2 0.3 0 0.7-0.2 0.9 0.2 0.1 0.3-0.2 0.5-0.4 0.7 -1.5 2-3.1 3.9-4.7 5.9 -0.4 0.5-0.8 0.6-1.4 0.6 -6.9-0.1-13.7-0.1-20.6-0.2 -1.1 0-1.7 0.2-2.1 1.2 -0.3 0.8-0.7 1.5-1.1 2.2 -0.5 0.9-0.2 1.1 0.7 1.1 7.4-0.1 14.9-0.1 22.3-0.1 1 0 2 0 3 0 0.8 0 1 0.3 0.5 1 -1.9 2.3-3.8 4.7-5.6 7 -0.5 0.6-1.1 0.6-1.8 0.6C95.2 36.9 90 36.9 84.9 36.9 84.9 36.9 84.9 36.9 84.9 36.9z" class="a"/><path d="M25 4.6c3.2 0.1 7.1-0.3 10.9 0.5 2.3 0.5 4.5 1.3 6.5 2.5 0.8 0.5 1.1 0.8 0.3 1.6 -1.8 1.8-3 3.9-3.7 6.3 -0.2 0.8-0.4 1.1-1.2 0.3 -1.9-2-4.4-2.9-7.1-2.9 -6.8 0-13.6 0-20.4 0 -0.4 0-1 0.2-1.3-0.2 -0.3-0.5 0.3-0.8 0.6-1.1 1.5-2.1 3.1-4.1 4.7-6.2 0.5-0.7 1-0.9 1.9-0.9C18.8 4.6 21.6 4.6 25 4.6z" class="a"/><path d="M99.3 4.4c4.5 0 9 0 13.5 0 0.3 0 0.8-0.2 1 0.2 0.2 0.4-0.2 0.7-0.4 0.9 -1.7 2.2-3.5 4.5-5.2 6.7 -0.5 0.6-1.1 0.8-1.8 0.8 -3.8 0-7.5-0.1-11.3-0.1 -4.5 0-8.9 0-13.4 0 -1.2 0-1.5-0.2-0.8-1.4 1.1-2 2.2-4 3.2-6 0.4-0.8 0.9-1 1.7-1 4.5 0 9 0 13.5 0C99.3 4.5 99.3 4.4 99.3 4.4z" class="a"/><path d="M61.3 36.9c-4.2 0.1-8.8-0.4-13-2.7 -0.2-0.1-0.4-0.2-0.6-0.4 -1.7-1-1.7-1-0.4-2.5 1.4-1.7 2.5-3.5 3.3-5.6 0.2-0.4 0.3-1.1 1-0.4 2.2 2.4 5 3.1 8.1 3.2 3.2 0.1 6.4 0 9.6 0 0.9 0 1.2 0.2 0.7 1.1 -1.1 2.1-2.2 4.1-3.2 6.2 -0.4 0.8-0.9 1.1-1.7 1.1C63.9 36.9 62.8 36.9 61.3 36.9z" class="a"/><path d="M108.5 48.1c-1 0-2 0-3 0 -0.6 0-0.8-0.2-0.4-0.8 0.5-0.8 1.1-1.3 2.1-1.2 1.3 0.1 2.6 0 3.9 0 0.3 0 0.8 0 0.7-0.4 0-0.4-0.4-0.5-0.7-0.5 -1.3 0-2.5 0-3.8 0 -1.5 0-2.4-0.7-2.4-1.9 -0.1-1.2 0.6-2 2.1-2.2 2.1-0.3 4.2-0.1 6.3-0.1 0.4 0 0.7 0.2 0.4 0.6 -0.5 0.7-1 1.4-2 1.4 -1.2-0.1-2.5 0-3.7 0 -0.3 0-0.7 0-0.8 0.4 0 0.4 0.4 0.5 0.7 0.5 1.3 0 2.6 0 3.9 0 1.2 0 2.2 0.4 2.3 1.8 0.1 1.2-0.6 2.1-2 2.3 -1.2 0.2-2.5 0-3.7 0C108.5 48 108.5 48 108.5 48.1z" class="a"/><path d="M22.5 44.3c0.9 0 1.8 0 2.7 0 0.5 0 1-0.2 1-0.7 0-0.6-0.5-0.7-1-0.7 -1.6 0-3.3 0-4.9 0 -0.3 0-0.8 0.2-1-0.2 -0.1-0.4 0.3-0.6 0.5-0.9 0.3-0.4 0.6-0.8 1.2-0.8 1.8 0 3.6-0.2 5.4 0.2 1 0.2 1.9 0.7 2.1 1.8 0.2 1-0.1 1.9-1 2.5 -0.5 0.3-0.5 0.6-0.1 0.9 0.3 0.3 0.6 0.6 0.9 0.9 0.2 0.2 0.4 0.4 0.3 0.6 -0.1 0.4-0.4 0.2-0.7 0.3 -1.1 0.1-2.1 0-2.8-1.1 -0.6-0.8-2.6-1.2-3.5-0.8 -0.5 0.2-0.4 0.6-0.4 0.9 0 1-0.6 1-1.3 1 -0.8 0-1-0.3-1-1 -0.1-2.7-0.1-2.7 2.5-2.7C21.8 44.3 22.1 44.3 22.5 44.3 22.5 44.3 22.5 44.3 22.5 44.3z" class="a"/><path d="M89.1 48.1c-0.8 0-1.6 0-2.4-0.2 -1.9-0.5-2.7-1.6-2.7-3.4 0-1.8 0.9-2.9 2.8-3.4 1.6-0.4 3.3-0.4 4.9 0 1.8 0.5 2.7 1.6 2.7 3.3 0 1.8-0.9 2.9-2.6 3.4C90.9 48.1 90 48.1 89.1 48.1zM89.5 46.2c0.1 0 0.7-0.1 1.3-0.2 0.9-0.2 1.3-0.8 1.3-1.7 0-1.1-0.7-1.6-2.5-1.7 -2.2-0.1-3.2 0.3-3.4 1.4C86 45.6 86.8 46.2 89.5 46.2z" class="a"/><path d="M34.6 48.1c-0.8 0-1.6 0-2.4-0.3 -1.8-0.5-2.7-1.6-2.7-3.5 0-1.8 0.9-2.8 2.7-3.3 1.6-0.4 3.2-0.4 4.9 0 1.8 0.4 2.7 1.6 2.7 3.3 0 1.8-0.9 2.9-2.7 3.5C36.4 48.1 35.5 48.1 34.6 48.1zM34.6 46.3c0.6-0.1 1.2-0.1 1.8-0.3 0.9-0.2 1.3-0.8 1.2-1.7 -0.1-1.2-0.9-1.7-2.9-1.7 -2.1 0-2.9 0.4-2.9 1.6C31.7 45.7 32.5 46.2 34.6 46.3z" class="a"/><path d="M43.3 48c-2.9-0.1-2.4 0.5-2.4-3 0-0.7-0.1-1.5 1.1-1.5 1.2 0 1.2 0.7 1.2 1.5 0 0.7 0.3 1.1 1 1 0.6 0 1.2 0 1.8 0 0.9 0 1.6-0.5 1.7-1.4 0.1-1.1-0.7-1.6-1.6-1.7 -1.1-0.1-2.2 0-3.3-0.1 -0.5 0-1.4 0.3-1.4-0.4 0-0.6 0.6-1.4 1.3-1.5 1.8-0.2 3.6-0.3 5.3 0.5 1.2 0.6 1.9 1.6 1.9 2.9 0 1.4-0.7 2.5-2 3.2C46.7 48.2 45.3 48.1 43.3 48z" class="a"/><path d="M101.7 44.8c0-1 0-1.9 0-2.8 0-0.8 0.2-1.1 1.1-1.1 0.7 0 1 0.3 1 1 0 1.6 0 3.1 0 4.7 0 0.6-0.1 1.2-0.8 1.4 -0.6 0.2-1.1 0-1.6-0.4 -1.1-1-2.1-1.9-3.2-2.9 -0.2-0.2-0.4-0.5-0.7-0.3 -0.1 0.1-0.2 0.4-0.2 0.7 0 0.6 0 1.1 0 1.7 0 0.7 0 1.3-1 1.3 -0.9 0-1.1-0.5-1.1-1.2 0-1.4 0-2.8 0-4.2 0-0.7 0-1.4 0.7-1.7 0.8-0.4 1.3 0.1 1.9 0.6 1.1 1 2.3 2 3.4 3C101.3 44.7 101.4 44.7 101.7 44.8z" class="a"/><path d="M12.1 44.3c0.8 0 1.6 0 2.5 0 0.5 0 1-0.1 1-0.7 0-0.6-0.5-0.7-0.9-0.7 -1.6 0-3.3 0-4.9 0 -0.3 0-0.6 0.1-0.8-0.2 -0.2-0.3 0.1-0.5 0.3-0.7 0.5-0.7 1-1.1 1.9-1 1.5 0.1 3-0.2 4.5 0.2 1.4 0.4 2.3 1.3 2.2 2.6 -0.1 1.3-0.9 2.2-2.4 2.4 -1.1 0.2-2.3 0.2-3.4 0.2 -0.7 0-1.3 0.1-1.3 1 0 0.9-0.8 0.7-1.4 0.8 -0.6 0-0.8-0.3-0.9-0.9 -0.2-2.7-0.1-2.8 2.5-2.8C11.4 44.3 11.8 44.3 12.1 44.3 12.1 44.3 12.1 44.3 12.1 44.3z" class="a"/><path d="M60.2 43.3c-0.2 4.1-0.9 4.8-4.8 4.8 -0.9 0-1.7-0.1-2.5-0.4 -1-0.4-1.8-1.1-1.8-2.3 -0.1-1.2 0-2.5-0.1-3.7 0-0.8 0.5-0.9 1.2-0.9 0.7 0 1.1 0.2 1.1 1 0 1 0 2 0 3 0 0.8 0.4 1.3 1.1 1.3 0.7 0.1 1.4 0.1 2.1 0.1 1.1 0 1.7-0.7 1.6-1.8 -0.1-0.7 0-1.4-0.1-2.1 -0.1-0.9 0.2-1.5 1.3-1.4 1.1 0 1.1 0.7 1.1 1.5C60.2 42.7 60.2 43.2 60.2 43.3z" class="a"/><path d="M67.5 40.9c0.4 0 0.7 0 1.1 0 0.5 0.1 1.5-0.3 1.5 0.3 0 0.7-0.6 1.5-1.6 1.6 -1 0.1-2 0-2.9 0.1 -1.1 0-2 0.4-2.1 1.6 0 1.3 0.9 1.6 2 1.6 1.2 0 2.5 0 3.7 0 0.8 0 1.1 0.2 0.6 1 -0.5 0.6-1 1.1-1.8 1 -1.3-0.1-2.7 0.1-4-0.3 -1.7-0.5-2.7-1.8-2.7-3.5 0-1.6 1.1-2.8 2.9-3.2C65.3 40.8 66.4 40.9 67.5 40.9z" class="a"/><path d="M75.8 40.9c1.1 0 2.1 0 3.2 0 0.6 0 0.8 0.2 0.4 0.8 -0.5 0.7-1 1.3-2 1.2 -1.1-0.2-1.4 0.4-1.4 1.4 0.1 0.9 0 1.9 0 2.8 0 0.9-0.5 0.9-1.2 0.9 -0.7 0-1.1-0.2-1.1-1 0-0.9 0-1.9 0-2.8 0.1-1.1-0.3-1.5-1.4-1.4 -0.5 0-1.5 0.4-1.5-0.4 0-0.8 0.7-1.6 1.8-1.5C73.7 40.9 74.8 40.9 75.8 40.9z" class="a"/><path d="M82.8 44.5c0 0.8 0 1.6 0 2.5 0 0.8-0.3 1.1-1.1 1.1 -0.8 0-1.2-0.2-1.2-1.1 0-1.7 0-3.4 0-5 0-0.8 0.4-1.1 1.1-1.1 0.8 0 1.2 0.2 1.1 1.1C82.8 42.8 82.8 43.6 82.8 44.5 82.8 44.5 82.8 44.5 82.8 44.5z" class="a"/></svg>
