<svg xmlns="http://www.w3.org/2000/svg" viewBox="0 0 225 50"><style type="text/css"> .st0{fill:#7f7f7f;} </style><path class="st0" d="M131.1 7.2c9.8 0 18.2 8.6 18.2 18.2s-8.6 18.2-18.2 18.2 -18.2-8.6-18.2-18.2S121.3 7.2 131.1 7.2L131.1 7.2zM131.1 12.4c-7.4 0-12.9 6.5-12.9 12.9 0 7.4 6.5 12.9 12.9 12.9 7.4 0 12.9-6.5 12.9-12.9C143.8 17.9 137.5 12.4 131.1 12.4L131.1 12.4z"/><path class="st0" d="M63 7c-8.6 0-15.6 8.6-15.6 18.4v15.3c0 1.8 1.4 3.1 2.9 3.1 1.6 0 2.9-1.4 2.9-3.1V25.3c0-5.9 3.9-12.5 9.8-12.5 4.9 0 9.8 5.3 9.8 12.5v15.3c0 1.8 1.4 3.1 2.9 3.1 1.6 0 2.9-1.4 2.9-3.1V25.3C78.7 15.6 71.4 7 63 7z"/><path class="st0" d="M15.5 27.9c-1.6 0-2.7-1.4-2.7-2.9 0-1.6 1.2-2.9 2.7-2.9h19.9c1.6 0 2.7 1.4 2.7 2.9 0 1.6-1.2 2.9-2.7 2.9H15.5L15.5 27.9z"/><path class="st0" d="M104.1 38.3c-3.3 0-6.1-1-8.2-3.1 -2.9-2.5-4.5-6.1-4.5-9.8 0-3.3 1-6.1 3.1-8.2 2.5-2.9 6.1-4.5 9.8-4.5 1.6 0 2.7-1.2 2.7-2.5 0-1.6-1.2-2.7-2.7-2.7 -10 0-18.2 8.2-18.2 18.2s8.2 18.2 18.2 18.2c1.6 0 2.7-1.2 2.7-2.7C106.8 39.4 105.7 38.3 104.1 38.3z"/><path class="st0" d="M35.4 6.4H15.5v0.4c-0.6 0-1.4 0.4-1.8 0.6 -0.8 0.4-1.6 1.4-1.6 2.3l0 0 0 0v3.5c0 1.6 1.4 2.7 2.9 2.7s2.9-1.2 2.9-2.7v-1h17.4c1.6 0 2.7-1.4 2.7-2.9C38.2 7.7 37 6.4 35.4 6.4z"/><path class="st0" d="M35.4 37.7H18v-0.4c0-1.6-1.4-2.7-2.9-2.7s-2.9 1.2-2.9 2.7v3.5c0 0.2 0.4 0.2 0.4 0.4 0 0 0.2 0 0.2 0.2l0 0c0.2 0.6 0.4 1.2 1 1.6l0 0 0 0c0.4 0.4 1 0.6 1.8 0.6l0 0 0 0h19.9c1.6 0 2.7-1.4 2.7-2.9S37 37.7 35.4 37.7z"/><path class="st0" d="M190.1 27.9c-1.6 0-2.7-1.4-2.7-2.9 0-1.6 1.2-2.9 2.7-2.9h19.9c1.6 0 2.7 1.4 2.7 2.9 0 1.6-1.2 2.9-2.7 2.9H190.1L190.1 27.9z"/><path class="st0" d="M210.1 6.4h-19.8v0.4c-0.6 0-0.8 0.4-1.2 0.6 -0.8 0.4-1 1.6-1 2.3l0 0 0 0v3.5c0 1.6 0.4 2.7 2 2.7 1.6 0 2-1.2 2-2.7v-1h18c1.6 0 2.7-1.4 2.7-2.9S211.7 6.4 210.1 6.4z"/><path class="st0" d="M210.1 37.7h-18v-0.4c0-1.6-0.4-2.7-2-2.7 -1.6 0-2 1.2-2 2.7v3.5c0 0.2-0.4 0.2-0.4 0.4 0 0-0.2 0-0.2 0.2l0 0c0.2 0.6 0.4 1.2 0.8 1.6l0 0 0 0c0.4 0.4 1 0.6 1.8 0.6l0 0 0 0h19.9c1.6 0 2.7-1.4 2.7-2.9C212.8 39 211.7 37.7 210.1 37.7z"/><path class="st0" d="M165.5 27.9h4.1c6.5 0 10.4-5.7 10.4-10.8 0-5.9-4.7-10.8-10.4-10.8h-10.4c-1.6 0-2.5 1.4-2.5 2.9 0 1.4 1.2 2.9 2.5 2.9h10.4c2.3 0 5.1 1.8 5.1 4.9 0 2.7-2.2 4.9-5.1 4.9h-10.4l0 0 0 0c-1.6 0-2.7 1.4-2.7 2.9 0 0.6 0.2 1.4 0.8 2l0 0 0 0 0.2 0.2 16.4 15.5c0.6 0.6 1.2 0.8 2 0.8s1.4-0.2 2-0.8c0.6-0.6 0.8-1.2 0.8-2 0-0.8-0.2-1.4-0.8-2L165.5 27.9z"/></svg>
