<svg xmlns="http://www.w3.org/2000/svg" viewBox="0 0 350 50"><style type="text/css"> .st0{fill:#7f7f7f;} </style><polygon class="st0" points="32.2 13.5 49.5 13.5 49.5 18 37.9 18 37.9 22.6 48.6 22.6 48.6 27.1 37.9 27.1 37.9 35.9 32.2 35.9 "/><path class="st0" d="M71.7 13.5h10c5.3 0 9.7 1.6 9.7 6.8 0 3.1-1.9 5.6-5.6 6.1l6.5 9.5h-6.8l-5.4-8.9h-2.8v8.9h-5.7V13.5zM77.4 22.7h3.3c2.1 0 4.8-0.1 4.8-2.5 0-2.3-2.3-2.6-4.4-2.6h-3.7V22.7z"/><polygon class="st0" points="112.3 13.5 129.8 13.5 129.8 18 117.9 18 117.9 22.2 129.1 22.2 129.1 26.7 117.9 26.7 117.9 31.3 130.4 31.3 130.4 35.9 112.3 35.9 "/><polygon class="st0" points="153.4 13.5 170.9 13.5 170.9 18 159 18 159 22.2 170.2 22.2 170.2 26.7 159 26.7 159 31.3 171.5 31.3 171.5 35.9 153.4 35.9 "/><polygon class="st0" points="196.4 13.5 205 13.5 210.9 28.1 211 28.1 217 13.5 225.5 13.5 225.5 35.9 219.8 35.9 219.8 18.7 219.8 18.7 213 35.9 208.7 35.9 202.2 18.7 202.1 18.7 202.1 35.9 196.4 35.9 "/><path class="st0" d="M257.4 13.5h4.7l11.2 22.4h-6.4l-2.2-4.8h-10l-2.1 4.8h-6.3L257.4 13.5zM259.6 20l-3.1 6.9h6.3L259.6 20z"/><polygon class="st0" points="294.1 13.5 301.8 13.5 312.7 29 312.8 29 312.8 13.5 318.5 13.5 318.5 35.9 311.1 35.9 299.8 19.9 299.8 19.9 299.8 35.9 294.1 35.9 "/></svg>
