<svg xmlns="http://www.w3.org/2000/svg" viewBox="0 0 200 50"><style>.a{fill:#7f7f7f;}</style><path d="M9.1 5.7v39.8h39.8V5.7H9.1zM36.1 42.7c0.2-0.2 0.5 0.2 0.8 0 0 0.4 0.3 0.2 0.5 0.2 0.3 0 0.2 0.3 0.1 0.4 -0.1 0.4-0.2 0.7 0.3 1 -0.3 0-0.7 0.2-0.8-0.4 0-0.2-0.2-0.1-0.2 0 -0.1 0.1-0.2 0.2-0.3 0.3 -0.2 0.2-0.5 0.3-0.6-0.1 -0.1-0.3-0.2-0.4-0.3 0 0 0.1-0.1 0.1-0.1 0.2 -0.1 0.1-0.2 0.2-0.4 0.2 -0.2-0.1-0.2-0.2-0.2-0.4 0-0.2 0-0.5 0-0.7 0-0.1 0-0.2-0.1-0.3 -0.5-0.3-0.1-0.6 0.1-0.9 0.2-0.3 0.4-0.2 0.5 0.1 0.1 0.2 0.2 0.5 0.4 0.5 0.1-0.2 0.1-0.4 0.1-0.7 0-0.2 0-0.5-0.4-0.3 -0.1 0.1-0.3 0-0.4-0.1 -0.2-0.1-0.5-0.2-0.7-0.1 -0.2 0.1-0.4 0-0.5-0.2 0-0.3 0.2-0.4 0.4-0.4 0.3 0 0.5 0 0.8 0 0.1 0 0.1 0.1 0.2 0 0.3-0.3 0.3-0.1 0.3 0.1 0.2 0.5 0.5 0.2 0.8 0.2 0.1-0.1 0.3-0.3 0.4-0.1 0.1 0.2-0.1 0.2-0.2 0.2 0.1 0.5-0.2 0.9-0.6 1.2C36 42.6 36.1 42.6 36.1 42.7zM10.1 6.7h37.8v7.8c-0.1 0.2-0.2 0.3-0.3 0.4 -0.1 0.1 0 0.3-0.2 0.4 -0.2-0.3-0.4-0.5-0.8-0.4 -0.2 0-0.6-0.3-0.8-0.6 -0.1-0.1-0.1-0.2-0.2-0.1 -0.6 0.3-0.6 0.3-0.8-0.4 -0.2 0.1-0.2 0.4-0.3 0.6 -0.1 0.3-0.3 0.6-0.8 0.4 -0.1 0-0.2-0.1-0.2 0 -0.5 0.3-0.8-0.1-1.1-0.4 -0.2-0.2-0.6-0.2-0.9-0.2 -0.4 0-0.8-0.1-1.2-0.1 -0.1 0-0.2-0.1-0.2 0 -0.5 0.3-0.8-0.1-1.2-0.2 -0.3 0-0.2-0.3-0.4-0.5 0 0.5 0.1 1 0.2 1.5 -0.1 0.1 0.1 0.2 0 0.3 -0.1 0-0.2 0-0.3-0.1 -0.1-0.2-0.3-0.3-0.4-0.6 0 0.1-0.1 0.1-0.1 0.2 0 0.1 0 0.4-0.2 0.4 -0.2 0-0.2-0.2-0.2-0.3 -0.1-0.2-0.2-0.5-0.5-0.3 -0.1 0.1-0.2 0-0.3-0.1 -0.1-0.1-0.1-0.3-0.4-0.2 -0.2 0.1-0.5 0.2-0.5 0.5 0 0.2 0 0.3 0 0.5 0 0.1 0 0.2-0.1 0.2 -0.1 0-0.2-0.1-0.2-0.2 -0.1-0.4-0.5-0.6-0.5-1 -0.2 0.1-0.2 0.4-0.4 0.4 -0.2 0-0.4 0-0.6 0.2 0 0-0.2 0-0.2 0 -0.1-0.2-0.4-0.2-0.6-0.3 -0.3-0.3-0.6-0.3-0.9-0.1 -0.2 0.1-0.5 0-0.7 0.2 0.4 0.1 0.8 0 1 0.6 0.2 0.5 0.3 0.6-0.2 0.8 -0.2 0.1-0.5 0.2-0.4 0.5 0.1 0.5-0.2 0.8-0.3 1.2 -0.3 0.1-0.5 0.1-0.3 0.6 0.2 0.4 0.2 0.9 0.4 1.4 0.2 0.3 0.2 0.2 0.4 0.1 0.4-0.3 1-0.2 1.3 0.2 0.2 0.2 0.2 0.2 0.3 0 0.1-0.4 0.3-0.7-0.2-1 -0.3-0.2-0.5-0.3-0.5 0.1 -0.1 0.6-0.6-0.1-0.8 0.3 0 0 0 0-0.1 0 0 0-0.1 0-0.1-0.1 -0.1-0.1-0.2-0.1-0.2-0.2 -0.2-0.4-0.2-0.8-0.2-1.2 0.2-0.3 0.3-0.6 0.8-0.3 0.2 0.1 0.4 0 0.4-0.3 0-0.2 0-0.3 0.2-0.4 0.2-0.1 0.3 0 0.4 0.2 0.3 0.3 0.4 0.1 0.5-0.1 0.1-0.4 0.3-0.4 0.6-0.3 0.2 0.1 0.4 0.1 0.4-0.2 0-0.2 0.3-0.1 0.4-0.1 0.6 0 1.2-0.1 1.7-0.5 0.6-0.4 0.6-0.4 0.9 0.3 0-0.2 0-0.3 0.1-0.4 0-0.1 0.2-0.2 0.2-0.2 0.3 0.3 0.4-0.1 0.6-0.2 0.3 0.1 0.5 0.4 0.6 0.7 0 0.1 0 0.2 0.1 0.2 0.1 0 0.1-0.1 0.1-0.2 0.1-0.3 0.4-0.6 0.4-1 0-0.1 0.2-0.1 0.3 0 0.1 0 0.3 0.1 0.3 0.3 0 0.2-0.1 0.3-0.2 0.5 -0.1 0.1-0.2 0.2-0.3 0.4 -0.1 0.1-0.1 0.3 0.1 0.4 0.1 0.1 0.2 0.1 0.3 0.1 0.2 0 0.2-0.2 0.2-0.3 0 0 0-0.1 0-0.1 0-0.1-0.1-0.4 0.1-0.4 0.2 0 0.1 0.2 0.1 0.3 0.1 0.2 0.2 0.5 0.5 0.4 0.1 0 0.2 0 0.2 0.1 0 0.1-0.1 0.1-0.2 0.2 -0.4 0.1-0.5 0.5-0.7 0.9 -0.1 0.1 0 0.3 0.1 0.3 0.1 0 0.2-0.1 0.2-0.2 0-0.1-0.1-0.3 0.1-0.3 0.2 0 0.2 0.2 0.3 0.3 0.1 0.1 0.1 0.3 0.3 0.3 0.1-0.1 0.1-0.1 0-0.2C41.8 17 41.8 17 42.4 17c0 0 0 0 0 0 0.5-0.5 1-0.1 1.6 0 0.3 0 0.5 0.1 0.3 0.4 -0.1 0.3 0.1 0.4 0.3 0.5 -0.5 0-0.8 0.1-0.6 0.6 0.1 0.3-0.2 0.3-0.4 0.3 -0.2 0-0.5 0.1-0.4 0.1 0.1 0.3-0.3 0.6 0.1 0.8 0 0 0 0 0 0 0.2 0.1 0.3 0.3 0.5 0.2 0.1 0 0.1-0.1 0.1-0.1 -0.1-0.2-0.3 0-0.5-0.1 0-0.2-0.1-0.4 0.2-0.4 0.2 0 0.5-0.2 0.7 0.1 0.1 0.2 0.2 0.4 0.4 0.1 0.1-0.1 0.1 0 0.2 0.1 0.1 0.1 0.3 0.2 0.5 0.2 0.1 0 0.2-0.1 0.1-0.2 -0.2-0.2-0.4-0.5-0.7-0.5 -0.5-0.1-0.6-0.3-0.6-0.8 0-0.1 0.1-0.2 0.2-0.2 0.2 0 0.4 0 0.7-0.2 0.1-0.1 0.2 0 0.3 0.1 0 0.1 0 0.1-0.1 0.2 -0.1 0-0.2 0-0.2 0.1 0 0.1 0.1 0.2 0.2 0.2 0.1 0 0.3 0 0.4 0 0.2 0 0.4-0.1 0.5 0.2 0.1 0.2 0.3 0.3 0.5 0.2 0.2-0.1 0.2-0.3 0.1-0.5 -0.1-0.3-0.2-0.5-0.3-0.8 -0.1-0.3-0.3 0-0.5 0 -0.2 0-0.3 0.5-0.6 0.1 -0.1-0.1-0.4 0.2-0.5-0.2 -0.5 0-0.3-0.6-0.6-0.8 -0.2-0.2-0.4-0.5-0.8-0.4 -0.2 0-0.3-0.1-0.3-0.3 -0.1-0.3-0.1-0.6-0.3-1 0.4-0.1 0.5 0.1 0.5 0.4 0.1 0.3 0.2 0.4 0.5 0.4 0.3 0 0.4-0.1 0.4-0.3 0.1-0.3 0-0.7 0.6-0.6 0.1 0 0.2-0.1 0.3 0.1 0 0.1-0.1 0.2-0.2 0.2 -0.5 0.1-0.2 0.5-0.2 0.8 0.1-0.3 0.1-0.6 0.5-0.4 0 0.2-0.3 0.3-0.1 0.6 0.2 0.2 0.4 0.1 0.6 0.1 0.4-0.1 0 0.3 0.2 0.4 0.2 0 0.1-0.1 0.1-0.2 0-0.2 0-0.3 0.2-0.4 0.2-0.1 0.3 0.1 0.5 0.2 0.1 0.2 0.2 0.3 0.5 0.3 -0.1-0.3-0.2-0.6-0.4-0.8 -0.1-0.1-0.1-0.2 0-0.4 0.1-0.1 0.2-0.1 0.3-0.1 0.2 0 0.1 0.2 0.1 0.3 0.3 0.4 0.2 0.9 0.2 1.3 0 0.2-0.1 0.2-0.2 0 -0.1-0.1-0.3-0.1-0.4 0 0 0.1 0.1 0.4 0.3 0.3 0.3 0 0.3 0.1 0.3 0.3 0 0.3 0 0.6 0 0.9 0 0.2 0.2 0.6-0.3 0.4 0 0-0.1 0.1-0.1 0.1 -0.1 0.4-0.5 0.4-0.8 0.5 -0.2 0-0.4 0-0.4 0.3 0 0.3 0.3 0.3 0.6 0.3 0.3 0 0.3-0.1 0.3-0.3 0-0.2 0-0.3 0.2-0.3 0.2 0 0.4 0 0.4 0.3 0 0.2 0.2 0.4-0.2 0.5 0 0-0.1 0-0.1 0 -0.2 0.1-0.5-0.1-0.5 0.2 0 0.3 0.2 0.5 0.5 0.5 0.2 0.1 0.3 0.1 0.3 0.2v0c0 0.1-0.1 0.2-0.2 0.3 -0.1 0.1-0.1 0.2-0.1 0.2 0.5 0.4 0.1 1 0.2 1.4 0.1 0.2-0.1 0.2-0.2 0.2 -0.1 0-0.2-0.3-0.4-0.1 -0.1 0.1 0.1 0.3 0.2 0.4 0 0 0 0 0.1 0 0.1-0.2 0.2-0.2 0.3-0.1 0.1 0.1 0.1 0.3 0 0.4 -0.1 0.2-0.2 0-0.2 0 0 0-0.1 0.1-0.1 0.1 -0.1 0.2-0.2 0.4-0.2 0.6 0 0.1 0 0.3 0.1 0.3 0.2 0 0.2-0.1 0.2-0.2 0-0.1 0-0.2 0.1-0.2 0 0 0.1 0 0.2 0.1 0.2 0.3-0.1 1.3-0.3 1.4 -0.2 0.1-0.5 0-0.8 0.2 -0.1 0.1-0.2-0.1-0.2-0.2 0-0.1 0.1-0.2 0.1-0.3 0-0.2-0.1-0.4-0.2-0.4 -0.2 0-0.3 0.2-0.2 0.4 0.1 0.3 0.2 0.5 0.1 0.8 0 0.1 0.1 0.2 0.2 0.2 0.1 0 0.2 0 0.3 0 1 0 1.2 0.1 1.2 1.1 0 0.1-0.1 0.3 0 0.4 0.1 0.4 0.1 0.6-0.4 0.5 -0.2-0.1-0.3 0.1-0.3 0.3 0 0.1 0 0.4 0.2 0.4 0.1 0 0.4 0 0.3-0.3 0-0.1 0-0.1 0.1-0.1 0.1 0 0.1 0 0.1 0.1 0 0.5 0 1.1 0 1.6 0 0.2-0.3 0.1-0.5 0.2 -0.1 0-0.2 0-0.3 0 0 0.2 0.2 0.3 0.3 0.5 0.2 0 0-0.4 0.3-0.3 0.2 0.1 0.3 0.3 0.3 0.5 -0.1 0.4 0 0.9 0 1.4 -0.1-0.2-0.2-0.3-0.3-0.4 -0.1-0.1-0.2-0.2-0.3 0 -0.1 0.1-0.2 0.1-0.1 0.3 0.3 0.3 0.1 0.6 0.1 0.9 -0.1 0.6-0.5 1.3 0.3 1.9 0.1 0.1 0.3 0.4 0.2 0.6 -0.2-0.1-0.4-0.2-0.7-0.4 -0.2 0.5 0.3 0.6 0.5 0.9 0 0 0.1 0.1 0.1 0.1 0.1 0.1 0.1 1.9 0 2 -0.2 0.2-0.3 0.4-0.1 0.7 0.1 0.3-0.1 0.7 0 0.8 0.4 0.2 0.2 0.5 0.2 0.8 0 0.3 0 0.5-0.4 0.2 0 0.4-0.3 0.9 0.4 1.1 0.1 0 0.1 0.1 0.1 0.2 0 0.4 0 0.8 0 1.2 0 0.3-0.1 0.3-0.3 0.3 -0.2 0-0.4 0.1-0.4-0.2 0.1-0.4-0.2-0.4-0.5-0.5 -0.1 0-0.2 0-0.2 0.1 -0.1 0.2 0.1 0.1 0.1 0.1 0.2 0.1 0.2 0.3 0.1 0.5 -0.1 0.2-0.2 0.1-0.3 0 -0.2-0.1-0.4 0.1-0.6 0.1 -0.2 0-0.3 0-0.3-0.2 0-0.3-0.2-0.6-0.5-0.7 -0.2-0.1-0.3-0.3-0.1-0.5 0.1 0 0.3-0.2 0.3 0 0.1 0.2 0.2 0.2 0.3 0.2 0.2 0 0.4 0 0.4 0.3 0 0 0.1 0.1 0.1 0.1 0 0 0.1-0.1 0.1-0.1 0.1-0.2-0.1-0.8-0.4-0.8 -0.1 0-0.2 0-0.3-0.1 0 0-0.1 0-0.1-0.1 0 0 0 0 0-0.1 0-0.1 0-0.2 0.2-0.4 -0.4 0-0.6-0.5-1-0.2 -0.1 0-0.2-0.2-0.3 0 -0.1 0.2 0.1 0.2 0.2 0.4 0.1 0.1 0.2 0.3 0.3 0.4 0.1 0 0.2 0 0.2 0.1 0 0.1-0.2 0.1-0.3 0.1 -0.3 0-0.4 0.1-0.5 0.3 -0.1 0.3 0.1 0.4 0.3 0.5 0.1 0.1 0.4 0 0.3 0.3 -0.1 0.2-0.2 0.5-0.5 0.5 -0.7 0-1.5 0-2.2 0 -0.2 0-0.3-0.1-0.4-0.2 -0.1-0.3 0.2-0.2 0.3-0.3 -0.4-0.3-0.7 0-0.8 0.2 -0.3 0.4-0.5 0.4-0.7 0 -0.2-0.3 0.2-0.3 0.2-0.5 0-0.1 0.1-0.2-0.1-0.3 -0.1 0-0.2 0.1-0.2 0.2 0 0.1-0.2 0.3-0.3 0.3 0 0-0.1 0-0.1 0 -0.1-0.4-0.6-0.4-0.7-0.7 0-0.2-0.1-0.5-0.4-0.4 -0.4 0.2-0.6 0.1-0.7-0.3 -0.1-0.3-0.3-0.3-0.5-0.2C38 42 38 42.3 38.1 42.4c0.2 0.5 0.8 0.7 1.3 0.5 0.1-0.1 0.2-0.1 0.3-0.1 0.1 0.1 0.1 0.3 0 0.4 -0.1 0.1-0.1 0.2 0 0.3 0.2 0.2 0.2 0.4 0.3 0.7 -0.4 0-0.8 0-1.2 0 0-0.3 0.2-0.3 0.3-0.4 0.1-0.1 0.2-0.1 0.1-0.2 0-0.1-0.1-0.2-0.2-0.2 -0.4-0.1-0.9 0.2-0.8 0.7 0 0.1 0 0.1-0.1 0.1 -0.1 0-0.1 0-0.2-0.1 -0.2-0.2-0.2-0.4-0.2-0.7 0-0.4 0.1-0.9-0.3-1.2 -0.1-0.1 0-0.3 0-0.4 0-0.3 0-0.7-0.5-0.8 0.4 0.1 0.4-0.6 0.9-0.4 0 0 0.1-0.1 0.1-0.1 -0.1-0.2-0.3-0.4-0.5-0.3 -0.2 0.1-0.3 0.4-0.5 0.2 -0.2-0.2 0.1-0.4 0.1-0.6 0-0.1 0.1-0.2 0.1-0.2 -0.2-0.7 0.1-1.3 0.4-1.8 0.1-0.2 0-0.3-0.2-0.3 -0.2 0-0.4 0-0.4-0.3 0-0.1 0-0.2-0.1-0.2 -0.1 0-0.3 0.1-0.3 0.2 -0.1 0.1-0.1 0.2 0 0.3 0.1 0.1 0.2 0.1 0.3 0.2 0.3 0.2 0.3 0.4 0.2 0.7 -0.2 0.4-0.4 0.4-0.6 0 -0.1-0.1-0.1-0.2-0.2-0.3 -0.2-0.2-0.3-0.3 0-0.5 0.3-0.1 0.1-0.4 0-0.6 -0.1-0.2-0.3 0-0.4 0 -0.2 0.1 0 0.3-0.1 0.4 -0.3 0.6 0.4 1 0.5 1.5 0 0.1 0.2 0.3 0.1 0.4 -0.1 0.1-0.3 0.1-0.4 0 -0.3-0.1-0.3 0.2-0.4 0.3 -0.3 0.3-0.6 0.5-0.8 0.9 -0.2 0.3-0.4 0-0.6 0 -0.2 0-0.1-0.2-0.2-0.3 0-0.1-0.1-0.3 0-0.4 0.1-0.3 0-0.4-0.3-0.3 -0.4 0.1-0.5-0.3-0.7-0.4 -0.2-0.4-0.5-0.7-0.3-1.2 0-0.1 0-0.2-0.2-0.2 -0.1 0-0.2 0.1-0.2 0.1 0 0.4-0.4 0.6-0.6 0.8 -0.1 0.1-0.3 0.2-0.2 0.4 0.2 0.5-0.1 0.8-0.3 1.1 -0.2 0.2-0.3 0.3-0.2 0.5 -0.2 0.2-0.8-0.3-0.7 0.4 -0.2 0-0.1-0.3-0.4-0.2 -0.1 0-0.1 0.1 0 0.2 0.1 0.2 0.5 0.3 0.7 0.1 0.3-0.4 0.5-0.4 1-0.2 0.1 0 0.1 0 0.2-0.1 0.1-0.1 0.2-0.3 0.3-0.4 0.1-0.1 0.1-0.2-0.1-0.3 -0.1 0-0.4 0.1-0.3-0.2 0.1-0.3 0.4-0.7 0.5-0.6 0.4 0.3 0.5-0.2 0.7-0.3 0.2 0.1 0 0.3 0.2 0.4 -0.1 0.4 0.4 0.2 0.4 0.5 -0.1 0.2-0.3 0.4-0.1 0.6 0 0 0 0.1 0 0.1 0.3 0 0.3 0.3 0.4 0.4 0.4 0.4 0.1 0.4-0.2 0.5 -0.5 0.1-0.5 0.3-0.3 0.7 0.1 0.2 0.3 0.5 0.5 0.1 0.1-0.1 0.1-0.1 0.2-0.1 0.1 0 0.1 0.1 0.1 0.2 -0.1 0.4 0 0.7 0.1 1 0.1 0.3-0.3 0.3-0.3 0.6 -0.3 0-0.6 0-0.9 0 0.2-1 0.2-1-0.6-2 -0.1 0.3-0.2 0.5-0.5 0.3 -0.1-0.1-0.2 0-0.2 0 -0.1 0.1 0 0.2 0 0.2 0.1 0.3 0.5 0.4 0.7 0.3 0.2-0.2 0.3-0.1 0.3 0.2 0 0.3-0.1 0.6-0.3 0.8 0.1 0 0.1 0 0.2 0 0.1 0 0.3 0 0.3 0.2 0 0.2-0.2 0.1-0.3 0.1 -0.4 0-0.7 0-1.1 0 -0.1-0.2-0.4-0.4-0.1-0.6 0.1-0.1 0-0.2-0.1-0.2 -0.2-0.2-0.3-0.5 0-0.6 0.3-0.1 0.1-0.3 0-0.4 -0.2-0.3-0.7-0.4-0.8-0.2 -0.1 0.1-0.2 0.2 0 0.3 0.2 0.1 0.1 0.2 0 0.3 -0.1 0-0.1 0.1-0.1 0.1 0.5 0.1 0.1 0.3 0.1 0.5 -0.1 0.2 0 0.5 0.3 0.5 0.2 0 0.2 0.1 0.2 0.2 0 0.1 0 0.2-0.2 0.2 -0.2 0-0.5 0-0.7 0 0-0.1-0.1-0.2 0.1-0.3 0.4-0.2 0.1-0.4 0-0.5 -0.2 0.2-0.1 0.4-0.2 0.6 -0.4 0.2-0.5 0-0.4-0.3 0-0.3-0.1-0.5-0.4-0.6 -0.5 0.4 0 0.8 0.1 1.2 -0.2 0-0.4 0-0.6 0 -0.1 0-0.2 0.1-0.3-0.1 0-0.1 0-0.2 0.1-0.2 0.2-0.1 0.1-0.2 0-0.2 -0.3-0.4-0.2-0.7 0.3-0.7 0.2 0 0.2-0.1 0.3-0.2 0.2-0.2 0.4-0.1 0.7-0.1 0.2-0.1 0.4-0.2 0.3-0.4 -0.1-0.3-0.2-0.1-0.4 0 -0.2 0-0.4 0.1-0.5-0.1 -0.1-0.3-0.4-0.2-0.7-0.3 0 0.5-0.2 0.8-0.2 1.3 -0.2 0-0.2-0.3-0.4-0.2 -0.2 0.1-0.1 0.3 0 0.5 0 0.3 0.1 0.6 0.3 0.9 -0.6-0.1-1.4 0.4-1.8-0.5 0 0.5-0.3 0.5-0.7 0.5 -0.7 0-1.5 0-2.2 0 -0.5 0-0.9-0.1-1.3-0.3 -0.1-0.2-0.8-0.3-0.9-0.1 -0.1 0-0.1 0.1-0.1 0.2 0 0.1 0.1 0 0.2 0.1 0.3 0.1 0.5-0.2 0.8 0 0 0.2-0.1 0.2-0.2 0.2 -0.3 0-0.6 0-0.9 0 -0.1 0-0.3 0-0.2-0.2 0-0.1 0-0.1-0.1-0.2 -0.1 0-0.1 0-0.2 0.1 0 0.3-0.2 0.2-0.4 0.2 -0.4 0-0.9 0.1-1.3 0 -0.3-0.1-0.6-0.1-0.9 0 -0.2 0-0.3 0-0.3-0.2 0-0.2-0.1-0.3-0.2-0.5 -0.2 0.1-0.1 0.2-0.1 0.3 0 0.1 0.2 0.3 0 0.4 -0.2 0-0.3-0.2-0.3-0.3 0-0.2 0.1-0.5-0.1-0.4 -0.2 0-0.4 0-0.6 0 0 0-0.1 0.1-0.1 0.1 0 0 0.1 0.1 0.1 0.1 0.6-0.1 0.3 0.4 0.4 0.6 -0.4 0.1-0.6 0-0.8-0.4 0 0.5-0.3 0.5-0.6 0.4 -0.2 0-0.5-0.9-0.4-1 0.2-0.4 0.2-0.8 0.1-1.2 0-0.4 0-0.8 0.1-1.2 0.1-0.2 0.1-0.4 0.1-0.5 0-0.2 0-0.3 0.2-0.3 0.4-0.1 0.5-0.2 0.3-0.6 -0.1-0.1-0.1-0.2-0.2-0.4 -0.1-0.2-0.1-0.2 0.1-0.3 0.5-0.2 0.5-0.3 0.3-0.7 -0.1-0.2-0.2-0.3 0-0.4 0.2-0.1 0-0.2 0-0.3 0-0.2 0-0.5 0.3-0.6 0.1 0.2 0 0.3-0.1 0.4 -0.1 0.2 0 0.3 0.2 0.3 0.1 0 0.2 0.3 0.4 0.1 0.1-0.1 0.1-0.3 0-0.4 -0.1-0.2-0.3-0.3-0.2-0.5 0-0.1 0-0.1-0.1-0.1 -0.1 0-0.2 0.1-0.3-0.1 0-0.1 0.1-0.2 0.2-0.3 0.3-0.1 0.5-0.3 0.3-0.7 -0.1-0.2 0.3-0.5-0.2-0.7 0.1-0.1 0.2-0.3 0.4-0.2 0.2 0.1 0.2 0 0.2-0.1 0-0.3 0.4-0.5 0.1-0.8 0 0 0-0.1 0-0.1 0.5-0.5 0.1-1.2 0.4-1.8 0.1 0.4 0.3 0.8 0.2 1.2 0.4-0.2 0.7-0.8 0.7-1.3 0 0-0.1 0-0.1 0 -0.1 0.1-0.1 0.5-0.4 0.4 -0.3-0.1-0.2-0.4-0.1-0.6 0-0.2 0-0.4 0.4-0.3 0.6 0.1 0.7 0.1 0.9-0.6 0.1-0.3 0.2-0.7 0.3-1 0.2-0.4 0.3-0.4 0.6-0.1 0.2 0.3 0.1 0.5 0.1 0.8 -0.1 0.3-0.2 0.7-0.7 0.4 -0.1-0.1-0.2 0-0.2 0.1 0.1 0.3-0.3 0.6-0.2 0.9 -0.4 0.1-0.4 0.4-0.3 0.7 0 0.1 0.1 0.2 0.2 0.2 0.1 0 0.2-0.1 0.2-0.3 0-0.1-0.2-0.3-0.1-0.4 0.2 0 0.3-0.1 0.4-0.3 0 0 0 0 0.1 0 0.1 0.2 0.2 0.3 0.3 0.3 0.2 0.1 0.2 0.2 0 0.3 -0.2 0.1-0.4 0.2-0.2 0.5 0.1 0.2 0 0.5 0.2 0.7 0 0 0.1 0.1 0.2 0 0-0.4 0-0.8 0.2-1.1 0.1-0.3 0.1-0.6 0-0.9 -0.1-0.2-0.1-0.4 0.2-0.5 0.4-0.2 0.2-0.3 0.1-0.5 0.2-0.3 0.2-0.6 0.2-0.9 -0.1 0-0.2 0.1-0.4 0.1 0.1-0.3-0.1-0.4-0.4-0.4 -0.1 0-0.2 0-0.2-0.1 0-0.1 0.1-0.2 0.1-0.2 0.1-0.1 0.3-0.1 0.3-0.2 0.2-0.6 0.3-0.3 0.5 0 0.1-0.2 0.1-0.3 0-0.4 -0.2-0.6-0.1-0.7 0.5-0.6 -0.1 0.5 0.1 1.1-0.1 1.6 0 0 0 0 0 0 0 0.2-0.4 0.6 0.1 0.7 0.3 0.1 0.2-0.4 0.4-0.6 0.1-0.2 0.1-0.4 0-0.6 -0.1-0.1-0.1-0.2 0-0.3 0.2-0.2 0.4-0.5 0-0.7 -0.1 0 0-0.1 0-0.2 0.1-0.1 0.2-0.1 0.3 0 0.1 0.1 0.2 0.4 0.4 0.1 0.1-0.2 0.4-0.2 0.3-0.6 -0.1-0.5-0.3-0.9-0.5-1.3 0.2-0.1 0.5 0.3 0.5-0.2 0-0.1 0.2 0 0.2 0.1 0 0.5 0.4 0.5 0.7 0.5 0 0.2-0.3 0.3-0.2 0.5 0 0.1-0.1 0.2 0 0.2 0.1 0.1 0.2 0 0.3-0.1 0.1-0.1 0.1-0.3 0.2-0.4 0.1-0.2 0.2-0.3 0.4-0.3 0.6 0.1 0.6 0 0.3 0.6 -0.1 0.2-0.2 0.4 0 0.5 0.3 0.3 0.1 0.4-0.1 0.6 -0.2 0.2-0.4 0.2-0.5 0.4 0 0.1-0.2 0-0.2-0.1 0.1-0.5-0.4-0.5-0.5-0.8 -0.1 0.2 0 0.3 0 0.4 0.2 0.7 0 1.3-0.5 1.9 -0.1 0.2-0.3 0.2-0.5 0.1 -0.1-0.1 0.2-0.5 0.2-0.6 0-0.3 0-0.3 0.3-0.3 0.2 0 0.2-0.2 0.2-0.4 0-0.1 0-0.3-0.2-0.4 -0.2 0-0.2 0.1-0.2 0.3 -0.1 0.3-0.2 0.4-0.4 0.2 -0.1 0-0.1 0-0.2 0.1 0.4 0.2 0.3 0.5 0.2 0.9 -0.1 0.1-0.2 0.3 0 0.5 0.2 0.2 0.3 0.4 0.2 0.7 -0.1 0.1 0 0.2 0.1 0.2 0.2 0 0.3 0 0.3-0.2 0-0.2 0-0.5 0.2-0.7 0.1-0.1 0-0.4 0.3-0.3 0.2 0.1 0.1 0.3 0.1 0.5 0.2-0.1 0.4-0.2 0.2-0.4 -0.3-0.4-0.1-0.5 0.2-0.7 0 0 0.1-0.1 0.1-0.1 0 0.1 0.1 0.1 0.1 0.2 0.1 0.1 0.1 0.3 0.3 0.3 0.2-0.1 0-0.2 0-0.3 0-0.1 0-0.2 0-0.2 0.5 0 0.5-0.6 0.9-0.8 0.1 0 0.1-0.1 0.2-0.1 0.1 0.1 0.1 0.2 0.1 0.3 0 0.2-0.2 0.3-0.3 0.5 -0.1 0.2-0.2 0.4-0.1 0.6 0.2 0.2 0.3 0 0.4-0.1 0.1 0 0.2-0.1 0.2 0 0.1 0.1 0 0.2 0 0.3 0 0.1-0.2 0.3 0 0.3 0.1 0 0.3 0.1 0.4-0.1 0.1-0.2 0.4-0.4 0.5-0.7 0-0.1 0.1-0.1 0.1 0 0.1 0.2 0.4 0.1 0.5 0.4 0 0.1-0.1 0.2-0.2 0.2 -0.5 0.3-0.8 0.8-1.2 1.1 -0.2 0.2-0.2 0.5 0.2 0.6 0.3 0.1 0.4 0.3 0.3 0.7 -0.1 0.2 0.2 0.5-0.3 0.8 0.9-0.1 0.4 0.5 0.7 0.7 0.2-0.1 0.1-0.5 0.3-0.4 0.3 0.1 0 0.4 0 0.6 0 0.3 0.6 0.9 0.9 0.9 0.3 0 0.5 0 0.4 0.3 0 0.1 0 0.1 0.1 0.2 0.4 0.3 0.2 0.5 0 0.7 0.1 0.2 0.3 0.1 0.4 0.2 0.2 0.2 0.4 0 0.4-0.2 0-0.1 0-0.2 0.1-0.3 0-0.1 0.1-0.2 0.2-0.2 0.1 0 0.2 0 0.2 0.1 0.1 0.3 0.2 0.5 0.6 0.4 0.1 0 0.2 0.1 0.2 0.2 0 0.2 0.1 0.5 0.1 0.7 0.2 0 0.1-0.3 0.3-0.3 0 0 0.1 0.3 0.2 0.4 0.3 0.3 0.2 0.4-0.2 0.5 0.3 0.1 0.6 0 0.8-0.2 0.1-0.2 0.2-0.4 0.1-0.5 -0.2-0.2-0.3-0.4-0.7-0.3 0.2-0.3 0-0.7 0.1-1.1 -0.7 0.2-0.9-0.4-1.3-0.8 -0.1-0.1-0.1-0.3 0-0.6 0.2-0.3 0.1-0.8 0.5-1.1 -0.1-0.6 0.2-0.4 0.5-0.4 0.1 0 0.1 0 0.2 0 0.3 0.1 0.5 0 0.5-0.4 0.3 0.1 0.7 0.2 0.5-0.4 0-0.1 0-0.1 0.1-0.1 0.3-0.1 0.3-0.2 0.1-0.4 -0.1-0.1-0.1-0.2 0-0.2 0.1-0.1 0.2 0 0.3 0.1 0.1 0.2 0.3 0.2 0.5 0.1 0.3-0.1 0.5 0.2 0.6 0.4 0.2 0.2-0.1 0.2-0.2 0.3 -0.2 0.2-0.6 0.4-0.2 0.8 0.1 0.1 0 0.2 0 0.3 0.5-0.4 0.5-0.4 0.2-0.8 0.2 0 0.4 0 0.6 0 0.3 0 0.4-0.2 0.2-0.4 -0.3-0.3-0.4-0.6-0.3-1 0-0.2-0.2-0.4 0.1-0.6 0 0-0.1-0.1-0.1-0.1 -0.2 0-0.3-0.1-0.1-0.3 0.1-0.1 0.1-0.2 0-0.3 -0.1-0.1-0.2 0-0.3 0 -0.2 0.1-0.4 0.2-0.5 0 -0.1-0.1-0.1 0-0.1 0 -0.3 0.3-0.6 0.1-0.9 0.1 -0.1 0-0.2 0-0.2-0.1 0-0.1 0.1-0.1 0.1-0.1 0.3-0.1 0.7 0.1 0.8-0.4 0-0.1 0.2 0 0.3 0 0.1 0 0.2 0 0.3-0.1 0-0.2-0.1-0.2-0.2-0.2 -0.2 0-0.5 0.1-0.5-0.1 -0.1-0.3 0.3-0.2 0.5-0.4 0.1-0.1 0.3-0.2 0.2-0.4 -0.1-0.3 0.1-0.4 0.5-0.3 0.7 0.1 0.8 0 1-0.7 0.2-0.2 0.3-0.1 0.5 0 0.1 0 0.3 0 0.3 0 -0.2-0.3 0.2-0.6-0.2-0.9 0-0.3 0-0.6 0.4-0.5 0.2 0 0.3-0.1 0.2-0.3 -0.2-0.2-0.1-0.5 0-0.7 -0.4 0-0.6 0.1-0.9 0.1 -0.1 0-0.2-0.1-0.2 0 0 0.1 0 0.1 0.1 0.2 0.4 0.6 0.4 0.6-0.1 0.9 0 0 0 0.1 0 0.1 0.2 0.1 0.4 0 0.5 0.2 0 0.4-0.3 0.5-0.6 0.6 -0.3 0.1-0.5 0.3-0.8 0.5 -0.2 0.2-0.4 0.2-0.5-0.1 0-0.1-0.2-0.2-0.2-0.3 -0.2-0.2-0.3-0.2-0.4 0 -0.1 0.2-0.7 0.2-0.8 0.1 -0.1-0.1-0.1-0.2 0-0.2 0.3-0.2 0.4-0.5 0.6-0.7 0.4 0.1 0.6-0.1 0.6-0.4 0-0.1 0-0.3-0.1-0.3 -0.1 0-0.2 0.1-0.3 0.2 -0.1 0.2-0.1 0.4-0.2 0.5 -0.3-0.1-0.5 0-0.6 0.2 -0.2 0.4-0.6 0.6-1 0.7 -0.1 0-0.2 0-0.2 0.1 0 0.1 0.1 0.1 0.2 0.1 0.1 0 0.2 0.1 0.3 0.1 0.1 0 0.2 0.1 0.2 0.3 0 0.2-0.1 0.2-0.3 0.2 -0.3 0-0.3 0.3-0.4 0.5 0 0.1-0.1 0.2-0.2 0.2 -0.1 0-0.1-0.1-0.1-0.2 0-0.3 0-0.6-0.3-0.8 -0.1-0.1-0.2-0.3-0.1-0.4 0.2-0.2 0.2 0.1 0.3 0.1 0-0.1 0-0.3-0.2-0.4 -0.3-0.2-0.3-0.7-0.1-1 0.2-0.4 0.5-0.5 0.7-0.8 0.1-0.1 0.2-0.2 0-0.4 -0.2 0.1-0.4 0.3-0.7 0.2 -0.2 0-0.2 0.1-0.2 0.3 0 0.2-0.1 0.4-0.3 0.6 -0.2 0.2-0.5 0.4-0.1 0.8 0.1 0.1 0.1 0.2-0.1 0.3 -0.3 0-0.3 0.2-0.2 0.4 0 0.1 0.1 0.2 0 0.3 0 0-0.2 0-0.2 0 -0.1-0.1-0.3-0.2-0.2-0.3 0.2-0.2 0.1-0.4 0-0.7 -0.1-0.4 0.3-0.5 0.5-0.7 -0.1-0.1-0.1-0.1-0.2-0.1 -0.2 0.1-0.4 0.2-0.6 0 -0.3-0.2-0.6 0-0.5 0.3 0.1 0.4-0.1 0.8 0.3 1.1 0.1 0 0 0.2 0 0.2 -0.1 0.1-0.3 0.2-0.4 0.2 -0.1 0-0.1-0.1-0.1-0.2 0-0.1 0.1-0.2 0-0.3 -0.1-0.1-0.1-0.2-0.2-0.2 -0.1 0-0.1 0.1-0.1 0.2 -0.1 0.2-0.2 0.5-0.3 0.7 0 0.1-0.1 0.2-0.2 0.2 -0.1 0-0.1-0.1-0.1-0.2 0-0.2 0-0.3 0.1-0.5 0.1-0.1 0.3-0.1 0.2-0.3 -0.1-0.2-0.5-0.2-0.6-0.1 -0.3 0.3-0.8 0.3-1.1 0.7 -0.1 0.2-0.3 0.3-0.3 0.6 0 0.3-0.1 0.3-0.3 0.3 -0.3 0-0.4-0.3-0.3-0.5 0.1-0.4 0.3-0.7 0.7-0.9 0.2-0.1 0.4-0.2 0.3-0.4 -0.1-0.2-0.7-0.3-0.8-0.1 -0.1 0.2-0.3 0.2-0.5 0.2 -0.1 0-0.2 0.1-0.2 0 0-0.1 0-0.2 0.1-0.2 0.3-0.1 0.5-0.2 0.7-0.4 0.1-0.1 0.4-0.1 0.4 0 0.2 0.3 0.5 0.4 0.8 0.5 0.2 0.1 0.3 0.1 0.5 0.1 0.3-0.1 0.5-0.5 0.9-0.3 0.1-0.3 0.3-0.5 0.5-0.7 0.1-0.1 0.1-0.2 0.3-0.1 0.3 0.2 0.6 0.1 0.9-0.1 0.4-0.3 0.9-0.5 1.2-0.9 0-0.1-0.1-0.1-0.2-0.1 -0.2-0.1-0.3-0.2-0.1-0.4 0.2-0.2 0.3-0.5 0.4-0.8 0-0.2 0.1-0.2 0.3-0.3 0.1-0.1 0.3-0.1 0.2-0.3 -0.3-0.5 0.1-0.4 0.3-0.4 0.4 0 0.5-0.1 0.5-0.5 0.3-0.1 0.5 0 0.6 0.2 0 0 0 0.1 0 0.1 -0.3 0.2-0.4 0.5-0.8 0.5 -0.1 0-0.2 0.1-0.2 0.2 0 0.1 0.1 0.1 0.2 0.2 0.3 0.1 0.2 0.3 0.1 0.4 -0.1 0.1-0.2 0.2-0.3 0.3 -0.1 0.1-0.2 0.2 0 0.3 0.1 0.1 0.2 0 0.3-0.1 0.1 0 0.1-0.1 0.2-0.1l0.1 0c0 0 0 0 0 0 0.1 0.1 0 0.2 0 0.3 0 0.2-0.3 0.4 0 0.5 0.1-0.2 0.1-0.4 0.3-0.6 0.2-0.3 0.4-0.5 0.2-0.9 -0.1-0.3-0.1-0.5 0.4-0.6 0.5-0.1 0.5-0.4 0.1-0.8 -0.1-0.1-0.3-0.2-0.4-0.4 -0.1-0.1-0.2-0.1-0.3 0 -0.2 0.2-0.4 0.1-0.6 0.2 -0.4 0.2-0.8 0.5-1.3 0.8 0-0.5 0.2-0.8 0.5-1 0.1-0.1 0.3-0.1 0.2-0.3 0 0-0.1-0.1-0.1-0.1 -0.2 0-0.3 0.1-0.4 0.2 -0.1 0.1 0 0.3-0.3 0.3 -0.1 0-0.1-0.1-0.1-0.2 -0.1-0.2 0.1-0.2 0.2-0.3 0.2-0.1 0.3-0.3 0.2-0.5 -0.1-0.2-0.2-0.5-0.3-0.8 -0.4 0.3-0.8 0.5-1.3 0.6 -0.3 0.1-0.5 0.3-0.8 0.5 -0.6 0.5-1.2 0.9-2 1.1 -0.3 0.1-0.4 0.3-0.6 0.5 -0.2 0.3-0.4 0.5-0.8 0.4 -0.3-0.1-0.5 0-0.6 0.2 -0.1 0.1-0.5 0.1-0.3 0.5 0 0.2-0.2 0.2-0.4 0.3 -0.4 0.1-0.8 0-1.2-0.1 0 0.6 0.4 1.4-0.8 1.4 0.6 0.4 0.2 0.9 0.1 1.3 -0.1 0.4-0.5 0.4-0.8 0.4 -0.3 0-0.4 0.1-0.5 0.3 -0.2 0.3-0.5 0.6-0.4 1.1 0 0.2-0.2 0.1-0.3 0.2 -0.3 0-0.7 0-0.8 0.5 0 0.2-0.3 0.3-0.5 0.4 0.5 0.2 0.8 0.5 0.6 1 0 0 0.1 0.1 0.1 0.1 0.2 0 0.2 0.1 0.1 0.3 -0.1 0.2-0.2 0-0.2 0 0 0 0 0 0 0 0 0 0 0 0 0 -0.1 0.3-0.4 0.5-0.4 0.9 0 0.2-0.3 0.2-0.6 0.2 0.1 0.3 0.1 0.7-0.3 0.9 -0.2 0.1-0.3 0.4-0.4 0.7C17.4 32 17 32.4 17 33c0 0.1 0 0.2-0.1 0.3 -0.4 0.2-0.7 0.5-0.9 0.9 0 0.1-0.2 0.1-0.3 0.1 -0.3 0-0.4 0.1-0.3 0.4 0 0 0 0.1 0.1 0.1 0.2 0.6 0.1 1-0.5 1.2 -0.3 0.1-0.5 0-0.7-0.2 -0.2-0.2-0.5-0.4-0.8-0.1 -0.2 0.2-0.5 0.1-0.6-0.2 -0.1-0.2-0.2-0.4-0.3-0.6 -0.1-0.2-0.2-0.4-0.5-0.6 -0.1 0.2 0 0.3 0.1 0.4 0.2 0.3 0.3 0.6 0.1 1 -0.2 0.4 0 0.6 0.4 0.8 0.1 0.1 0.2 0.1 0.3 0.2 0.2 0.2 0.4 0.4 0.8 0.2 0.4-0.2 1 0.4 1.1 0.8 0 0.4-0.1 0.8 0.5 0.8 0 0 0.1 0.1 0.1 0.1 -0.1 0.2 0 0.5 0 0.7 0 0.1-0.1 0.2-0.2 0.2 -0.1 0-0.2-0.1-0.2-0.2 -0.1-0.3-0.4-0.3-0.5-0.2 -0.3 0.3-0.5 0.1-0.7-0.1 -0.1 0-0.2-0.1-0.3 0 0 0.4 0.5 0.6 0.6 1.1 0 0 0.1 0 0.1 0 0.6-0.1 0.6 0.4 0.5 0.8 -0.1 0.4 0.1 0.8-0.3 1.1 -0.1 0 0.1 0.2 0.1 0.2 0.2 0.3 0.3 1.5 0.2 1.8 0 0.1-0.3 0.3-0.6 0.4h-3.8V6.7zM43.2 16.2c-0.1 0.1-0.3 0.2-0.4 0.1 -0.1 0-0.2-0.1-0.2-0.2 -0.2-0.7-0.2-0.7-0.7-0.3 -0.1 0.1-0.2 0.1-0.2 0.1 -0.1-0.2-0.2-0.4-0.3-0.6 -0.1-0.1-0.2-0.2-0.1-0.3 0.1 0 0.2-0.1 0.3 0 0.4 0.4 0.8 0.1 1.3 0.2 0.1 0 0.3 0 0.3 0.2C43.1 15.7 43.5 15.9 43.2 16.2zM19.2 30.4c0.1 0.2-0.1 0.2-0.2 0.2 -0.3 0-0.2-0.2-0.2-0.3 0-0.2 0-0.5 0.2-0.4C19.3 30 19.1 30.2 19.2 30.4zM22.1 26.5c0-0.1 0-0.2 0.2-0.2 0.2 0 0.2 0.1 0.2 0.2 0 0.1 0 0.2-0.1 0.2C22.2 26.8 22.1 26.6 22.1 26.5zM23 24.9c0 0 0.1 0 0.1 0 0 0 0.1 0 0.1 0.1 0 0.1-0.1 0.1-0.1 0.1C23 25 23 25 23 24.9zM23.6 25.4c0.1-0.2 0.2-0.4 0.4-0.5 0.1 0 0.2 0.1 0.2 0.2 0 0.2-0.3 0.4-0.5 0.4C23.7 25.6 23.6 25.5 23.6 25.4zM26.8 27.2c0.1 0 0.2 0.1 0.2 0.2 0 0.1 0 0.2-0.1 0.2 -0.1 0-0.2-0.1-0.2-0.2C26.6 27.3 26.7 27.2 26.8 27.2zM26.7 26.7c0-0.1 0-0.1 0.1-0.1 0.1 0 0.1 0 0.1 0.1 0 0.1 0 0.2-0.1 0.1C26.8 26.8 26.7 26.7 26.7 26.7zM28.8 28c0.1-0.1 0.1-0.3 0-0.4 -0.1-0.1-0.1-0.3 0-0.4 0.2-0.1 0.3-0.2 0.5-0.1 0.3 0.3 0.4 0.1 0.6-0.1 0.1-0.2 0.2-0.4 0.4-0.5 0.1 0 0.2 0 0.3 0 0.1 0.1 0 0.2-0.1 0.2 -0.2 0.1-0.3 0.3-0.3 0.5 0 0.4-0.1 0.6-0.5 0.7 -0.4 0.2-0.7 0.6-1.2 0.7 -0.1 0-0.2 0.1-0.2 0.1 -0.1 0-0.2 0-0.2-0.1 0-0.1 0-0.3 0.2-0.3C28.5 28.5 28.6 28.2 28.8 28zM28.4 26.6c0-0.1 0.1-0.1 0.1-0.1 0.1 0 0.1 0 0.1 0.1 0 0.1 0 0.1-0.1 0.1C28.5 26.7 28.4 26.6 28.4 26.6zM31.5 30.8c0 0.1 0 0.4 0.2 0.3 0.2 0 0.1-0.2 0-0.3 -0.1-0.2 0.1-0.1 0.2-0.2 0.2-0.1 0.3-0.4 0.5-0.2 0.2 0.2-0.1 0.4-0.2 0.6 -0.1 0.1-0.1 0.3-0.1 0.5 -0.3 0-0.5-0.1-0.7-0.2 -0.2-0.1-0.4 0-0.7 0 -0.2 0-0.3-0.1-0.4-0.2 -0.1-0.2 0.1-0.2 0.2-0.2 0.1-0.1 0.4 0.1 0.4-0.2 0-0.2-0.1-0.4-0.3-0.5 -0.1-0.1-0.2-0.1-0.3-0.2 0.2-0.1 0.4 0 0.7-0.1 0-0.2-0.1-0.4 0-0.6 -0.2-0.1-0.3 0-0.3 0.1 -0.2 0.3-0.4 0.4-0.7 0.3 -0.1 0-0.3 0.1-0.3-0.1 -0.1-0.2 0.1-0.2 0.2-0.3 0 0 0.1-0.1 0.1-0.1 -0.3 0-0.5 0-0.8 0.1 0-0.3 0.2-0.4 0.3-0.7 0.1-0.2 0.2-0.1 0.3 0 0.1 0.1 0.3 0.2 0.4 0.4 0.2 0.2 0.4 0.4 0.7-0.1 0.1-0.2 0.5-0.2 0.7-0.1 0.2 0.1 0.1 0.3-0.1 0.4 0 0 0 0.1 0 0.1C31.8 29.8 31.4 30.3 31.5 30.8zM32.2 27.5c0.2-0.2 0.1-0.4 0.2-0.6 0.2-0.2 0.4-0.2 0.7-0.1 0.1 0 0.3-0.1 0.4 0.1 0.1 0.2-0.1 0.3-0.2 0.4 -0.3 0.5-0.6 0.6-1 0.4C32.3 27.7 32.1 27.6 32.2 27.5zM30.6 31.9c0 0.1 0 0.1-0.1 0.1 0 0-0.1-0.1-0.1-0.1 0-0.1 0-0.1 0.1-0.1C30.5 31.8 30.6 31.8 30.6 31.9zM30.8 28c-0.1 0-0.3-0.1-0.3-0.3 0-0.2 0.1-0.2 0.3-0.2 0.2 0 0.3 0.1 0.2 0.2C31 27.9 31 28 30.8 28zM27.8 27.5c-0.2 0-0.1-0.2-0.1-0.3 0-0.2 0.1-0.3 0.2-0.3 0.2 0 0.2 0.1 0.2 0.2C28.1 27.3 28 27.5 27.8 27.5zM33.2 29.2c0-0.2 0.2 0 0.3-0.1 0.2 0 0.3-0.1 0.3 0.2 0 0.1-0.1 0.2-0.2 0.2C33.4 29.4 33.2 29.4 33.2 29.2zM27.7 21.4c0.1-0.2 0.2-0.4 0.4-0.4 0.1 0 0.2 0.2 0.2 0.4 0 0.2-0.2 0.3-0.3 0.3C27.8 21.5 27.6 21.6 27.7 21.4zM28.8 20.3c0.1 0.1 0.2 0.2 0.4 0.2 0.3-0.2 0.6-0.1 0.6 0.2 0 0.2-0.2 0.5-0.5 0.6 -0.1 0-0.2 0-0.3 0.1 -0.3 0-0.4-0.1-0.5-0.3 -0.1-0.3-0.2-0.6-0.3-0.9 0-0.2 0.1-0.4 0.3-0.4 0.2-0.1 0.4-0.1 0.5-0.2 0.1-0.1 0.2-0.1 0.2 0 0 0.1 0 0.2-0.1 0.2 -0.1 0-0.2 0.1-0.3 0.1C28.8 20 28.7 20.1 28.8 20.3zM30.7 19.8c0 0 0.1 0.1 0.1 0.2 0 0.1-0.1 0.1-0.1 0.2 -0.2 0.1-0.3-0.1-0.5-0.1 -0.1 0.1-0.3 0.1-0.5 0.2 -0.1-0.1-0.1-0.1-0.2-0.2 -0.1-0.1 0-0.2 0.1-0.2C29.7 19.7 30.5 19.7 30.7 19.8zM30.2 18.9c0-0.2 0.1-0.2 0.3-0.2 0.1 0 0.2 0 0.2 0.2 0 0.2-0.2 0.2-0.3 0.2C30.3 19.1 30.2 19 30.2 18.9zM29.9 23.2c0 0.3-0.2 0-0.2 0 -0.4 0.2-0.7 0-0.7-0.3 -0.1-0.2 0.2-0.2 0.4-0.2C29.6 22.7 29.9 22.8 29.9 23.2z" class="a"/><path d="M29.2 43c0-0.1 0-0.2 0-0.3C29.1 42.9 29.1 42.9 29.2 43z" class="a"/><path d="M19.3 28.8c0-0.1-0.1-0.2 0-0.3C19.2 28.6 19.2 28.7 19.3 28.8 19.3 28.8 19.3 28.8 19.3 28.8 19.3 28.8 19.3 28.8 19.3 28.8z" class="a"/><path d="M42.5 26.5c-0.1-0.1-0.3-0.2-0.2-0.3 0.2-0.5 0-0.7-0.4-0.8 -0.3-0.1-0.9-0.1-1.1 0.2 -0.1 0.2-0.8 0.4-1 0.3 -0.1-0.1-0.1-0.1-0.1-0.2 0.2-0.4-0.1-0.6-0.3-0.8 -0.1-0.1-0.1-0.2-0.2-0.1 -0.1 0-0.1 0.2-0.1 0.2 0.3 0.5 0 0.7-0.4 1 0 0-0.1 0.1-0.1 0.1 -0.1 0.2-0.2 0.2-0.4 0.2 0.2 0.3 0.3 0.5 0.6 0.5 0.1 0 0.2 0.1 0.1 0.2 -0.2 0.2-0.1 0.4-0.1 0.5 0.5-0.3 0.5-0.3 0.6 0.3 0 0.2 0.1 0.4 0.4 0.2 0.1-0.1 0.2-0.1 0.2 0.1 0 0.2 0.1 0.3 0.2 0.5 0 0.1 0.1 0.1 0.1 0.2 -0.2 0.3-0.4 0.6-0.5 0.9 0 0.1 0 0.3 0.1 0.4 0.1-0.1-0.1-0.3 0-0.4 0.1 0 0.2 0 0.2 0 0.3 0.2 0.6 0.3 0.7-0.3 0-0.1 0.1-0.1 0.2-0.1 0.5 0 1 0.4 1.6 0.2 -0.1-0.1-0.2-0.3-0.3-0.3 -0.1 0-0.2 0-0.2-0.1 0-0.2 0.1-0.2 0.2-0.2 0.3-0.1 0.4-0.3 0.2-0.5 -0.2-0.3 0-0.7-0.3-0.9 -0.1-0.1 0-0.3 0.2-0.3 0.2 0 0.2-0.1 0.1-0.3 0-0.1 0-0.3 0.2-0.4 0.2 0 0.2 0.1 0.3 0.2 0.1 0.2 0.2 0.1 0.3 0 0.1-0.1 0.3-0.2 0.4-0.2 -0.3-0.2-0.4-0.4-0.4-0.7 0-0.4 0.1-0.5 0.4-0.6 0 0 0.1-0.1 0.1-0.1 0 0-0.1-0.1-0.1-0.1 -0.3 0.1-0.3-0.1-0.3-0.3 -0.1-0.2-0.2-0.4-0.5-0.3 -0.3 0.1 0 0.2 0 0.4 0 0.1 0 0.2 0 0.2C43.4 25.4 43 26.3 42.5 26.5z" class="a"/><path d="M41.7 21.9c-0.2 0.1-0.4 0.2-0.6 0.1 0.1 0.4 0.1 0.6-0.3 0.6 -0.1 0-0.3-0.1-0.3 0.1 0 0.2 0.1 0.3 0.2 0.3 0.3 0.2 0.2 0.8 0.7 0.7 0 0 0 0.1 0 0.1 -0.1 0.4 0.4 0.5 0.5 0.9 0.3 0.1 0.2-0.1 0.2-0.2 0 0 0 0 0 0l0 0 0 0c0.1 0 0.2-0.1 0.1-0.1 -0.1-0.1-0.2 0-0.4 0 -0.2-0.1-0.3-0.1-0.3-0.3 0-0.1 0.1-0.1 0.2-0.1 0.4 0 0.5-0.4 0.7-0.6 -0.7 0.1-0.4-0.5-0.8-0.7 0.3-0.1 0.5 0 0.6-0.2 0-0.1 0.1-0.2 0-0.3C42.1 21.7 41.8 21.8 41.7 21.9z" class="a"/><path d="M38.9 18.4c-0.5 0.6-1.2 0.4-1.9 0.3 -0.1 0-0.2-0.2-0.4 0 -0.1 0.1-0.1 0.2-0.1 0.4 0.1 0.4 0.4 0.2 0.6 0.3 0.4 0.3 0.8 0.2 1.2-0.1 0.1-0.1 0.1-0.2 0.2-0.1 0.1 0.1 0.1 0.2 0 0.3 -0.2 0.3-0.1 0.8 0.2 1 0.1 0.1 0.2 0.2 0.3 0.3 0 0.1 0.1 0.1 0.2 0.1 0.1-0.1 0-0.1 0-0.2 -0.1-0.3-0.2-0.6-0.1-0.9 0.1-0.3 0.2-0.5 0.6-0.3 0.2 0.1 0.4 0.2 0.6-0.1 0.2-0.3 0.3-0.2 0.6-0.2 0.3 0.1 0.5 0.1 0.6-0.3 -0.2 0-0.3 0-0.5 0 -0.1 0-0.3 0.1-0.4-0.1 -0.1-0.1-0.1-0.3 0.1-0.4 0.1-0.1 0.3-0.1 0.5 0 0.2 0.1 0.4 0.2 0.6 0 0.2-0.1 0.3-0.1 0.4 0.1 0 0.4 0.1 0.7-0.3 1 -0.3 0.2-0.6 0.4-0.9 0.5 -0.1 0-0.2 0.1-0.1 0.2 0.1 0.1 0.2 0.4 0.5 0.3 0.1-0.1-0.3-0.4 0.1-0.5 0.7-0.2 1-0.8 1.3-1.3 0.1-0.1 0.1-0.2-0.1-0.4 -0.4-0.5-0.9-0.2-1.4-0.3 -0.5-0.1-0.9 0.2-1 0.8 -0.1 0.3-0.4 0.5-0.6 0.4 -0.3-0.1-0.2-0.4-0.1-0.6 0 0 0-0.1 0-0.1 0.2-0.2 0.7-0.2 0.5-0.7 0 0 0-0.1 0.1-0.1 0.2 0 0.4-0.3 0.6-0.2 0.1 0 0.2 0 0.2-0.1 0-0.1-0.1-0.1-0.2-0.1 -0.1 0-0.3 0.1-0.4 0.1 -0.1 0-0.3 0.1-0.3-0.1 0-0.2-0.1-0.3-0.3-0.4 -0.1 0-0.1-0.1-0.1-0.2 0.1-0.2 0.1-0.3-0.1-0.4 -0.1 0-0.2-0.1-0.2 0 -0.1 0.2-0.1 0.3 0 0.5 0 0.1 0.2 0.3 0 0.3 -0.3 0-0.4 0.3-0.7 0.3 0-0.1-0.1-0.2-0.1-0.3 -0.1 0.1-0.1 0.2 0 0.3h0c0.2 0.2 0.1 0.4 0 0.5 0 0.1-0.1 0.2 0.1 0.3 0.1 0 0.1-0.1 0.2-0.1 0.1-0.1 0.1-0.4 0.3-0.2 0.2 0.2 0.6 0.3 0.5 0.7C39.2 18.3 39.1 18.1 38.9 18.4z" class="a"/><path d="M43.7 20.6c-0.4-0.2-0.8-0.3-0.9-0.8 0-0.1-0.1-0.1-0.2-0.1 -0.1 0-0.2 0.1-0.1 0.2 0.1 0.3 0.2 0.7 0.3 1.1 0.1-0.2 0.1-0.5 0.3-0.2 0.1 0.2 0.2 0.2 0.3 0.1 0.3-0.1 0.4 0.1 0.4 0.4 0 0.2 0.2 0.4 0.4 0.5 0.1 0.1 0.2 0 0.3-0.1 0.1-0.2 0.1-0.4-0.1-0.5C44.2 21.1 44.1 20.8 43.7 20.6z" class="a"/><path d="M40.9 35.4c0.1-0.2 0.1-0.4 0.3-0.6 -0.2-0.1-0.4-0.2-0.7-0.3 -0.1-0.1-0.2-0.1-0.3 0.1 -0.2 0.4-0.4 0.2-0.5 0 -0.1-0.2-0.2-0.2-0.4-0.1 -0.1 0.1-0.3 0.1-0.4 0.1 -0.1 0-0.2 0-0.2 0.2 0 0.1 0 0.3 0.3 0.3 0.2 0 0.4 0 0.6-0.1 0.5-0.1 0.7 0.1 0.8 0.4 0 0.1-0.1 0.3 0.1 0.3C40.7 35.6 40.8 35.5 40.9 35.4z" class="a"/><path d="M45.5 31.8c-0.1 0.2 0.2 0.3 0.1 0.5 0 0.4 0.2 0.7 0.7 0.7 0.3 0 0.5-0.2 0.6-0.5 -0.1-0.2-0.5 0-0.4-0.3 0.2-0.4-0.1-0.4-0.3-0.4C45.9 31.8 45.7 31.8 45.5 31.8z" class="a"/><path d="M35.7 23.1c0.1 0 0.2-0.1 0.3-0.1 0.2 0.1 0.3-0.1 0.5-0.2 0.2-0.1 0.3-0.3 0.1-0.5 -0.1-0.2-0.2-0.3-0.4-0.1 0 0.1-0.1 0-0.2 0 -0.5-0.3-0.6-0.2-0.7 0.3 0 0.1 0 0.1 0 0.2C35.2 23.2 35.3 23.2 35.7 23.1z" class="a"/><path d="M24.7 38.6c0 0.1 0 0.3 0.2 0.3 0.2 0 0.4-0.1 0.3-0.3 -0.1-0.7 0-1.4-0.7-1.8 -0.1-0.1-0.2-0.1-0.3 0 -0.1 0.2-0.1 0.4 0 0.5 0.5 0.2 0.4 0.6 0.3 0.9C24.7 38.4 24.6 38.5 24.7 38.6z" class="a"/><path d="M44.6 36.2c0-0.4 0.6-0.5 0.3-1 -0.3 0.2-0.6 0-0.8-0.1 -0.4-0.2 0.2-0.5-0.1-0.7 -0.3 0.1-0.1 0.6-0.5 0.7 -0.2 0-0.5-0.1-0.6 0.3 0 0.1-0.2 0.2 0 0.2 0.1 0.1 0.2 0 0.2-0.2 0-0.3 0.2-0.2 0.3-0.1C43.7 35.8 44.3 35.7 44.6 36.2z" class="a"/><path d="M46.7 40.2C46.7 40.2 46.7 40.2 46.7 40.2c-0.3-0.1-0.5 0-0.6-0.2 -0.1-0.3 0.3-0.2 0.4-0.3 0.1-0.1 0.2-0.1 0.1-0.3 -0.1-0.1-0.3-0.2-0.4 0 -0.2 0.4-0.5 0.2-0.7 0.1 0-0.3-0.2-0.5-0.5-0.5 -0.1-0.1-0.1-0.2-0.3-0.2 0.1 0.1 0.1 0.2 0.1 0.4 0 0.3 0.2 0.5 0.5 0.5 -0.1 0.3-0.3 0.5 0.1 0.7 0.1 0.1 0 0.2-0.1 0.3 -0.2 0.2-0.4-0.1-0.5 0.1 -0.1 0-0.3 0-0.3 0.2 0 0.2 0.1 0.3 0.3 0.3 0-0.1 0-0.3 0-0.4 0.2-0.2 0.4 0.3 0.5-0.1 0.1-0.1 0.2-0.1 0.3-0.1C46.1 40.7 46.6 40.4 46.7 40.2z" class="a"/><path d="M46.9 37.4c-0.1-0.5-0.1-1-0.5-1.4 -0.1-0.1-0.1-0.2-0.2-0.2 -0.2 0-0.2 0.1-0.2 0.2 0 0.2 0 0.4 0 0.6 -0.5 0.2-0.5 0.2-0.7 0.4 -0.1 0.1-0.1 0.2 0 0.2 0.1 0 0.1-0.1 0.1-0.1 0.2-0.2 0.4-0.4 0.6-0.5 0.1 0 0.2-0.2 0.2 0 0 0.4 0.2 0.6 0.4 0.8 -0.2 0.2-0.1 0.3 0 0.5 0.1 0.2 0.2 0.3-0.1 0.4 0 0-0.1-0.1-0.1-0.1 -0.1-0.1-0.1-0.2-0.2-0.1 0 0-0.1 0.1-0.1 0.2 0 0.1 0.1 0.1 0.2 0.1 0.1 0 0.1 0 0.2 0 0.1 0.2-0.2 0.3-0.1 0.3 0.3 0.1 0.3 0.3 0.4 0.5 0.2 0.2 0.4 0.1 0.4-0.1 0.1-0.3 0.2-0.9 0-1C47 38 47.1 37.7 46.9 37.4z" class="a"/><path d="M28.5 38c0.2-0.1 0-0.3 0-0.4 -0.1-0.2-0.1-0.8 0-1 0.1-0.1 0.3-0.2 0.1-0.3 -0.2-0.2-0.3 0.1-0.4 0.2 -0.2 0.2-0.3 0.4-0.6 0.2 0 0.5 0.2 0.9 0.4 1.2C28.1 38.1 28.3 38.1 28.5 38z" class="a"/><path d="M27.4 34.7C27.4 34.7 27.4 34.7 27.4 34.7 27.4 34.7 27.4 34.7 27.4 34.7 27.4 34.7 27.4 34.7 27.4 34.7 27.4 34.7 27.4 34.7 27.4 34.7L27.4 34.7z" class="a"/><path d="M27.1 35.3c-0.1 0.1-0.2 0.2-0.1 0.4 0.1 0.1 0.2 0.1 0.3 0.1 0.2 0 0.2-0.2 0.1-0.3 0 0 0-0.1 0-0.1 0-0.1 0-0.2 0.1-0.2 0.1 0 0.1 0.1 0.2 0.2 0 0.1 0 0.3 0.2 0.5 0.1-0.4 0.4-0.3 0.7-0.2 -0.1-0.3-0.2-0.6-0.1-0.9 0-0.1 0-0.3-0.1-0.4 0 0-0.1-0.1-0.2 0 -0.1 0-0.1 0.1-0.1 0.1 0 0.2 0.1 0.4-0.1 0.5 -0.3 0.1-0.3-0.2-0.5-0.3 0 0-0.1 0-0.1 0C27.5 35 27.3 35.1 27.1 35.3z" class="a"/><path d="M19.5 33c-0.2-0.1-0.4 0-0.5 0.1 -0.1 0-0.3 0-0.2 0.2 0 0.1 0.1 0.2 0.2 0.2 0.4 0.1 0.5 0.4 0.5 0.7 0 0.2 0.1 0.3 0.2 0.4 0.1 0.2 0.2 0.2 0.3 0.1 0.1-0.1 0-0.2-0.1-0.3 -0.1-0.1-0.3-0.1-0.3-0.4 0.1-0.3 0-0.5 0.1-0.8C19.8 33.1 19.8 32.9 19.5 33z" class="a"/><path d="M39.4 31.1c-0.1 0-0.2-0.2-0.2-0.2 -0.3-0.1-0.5-0.1-0.8-0.2 0 0-0.1 0.1-0.1 0.1 0.1 0.3 0.3 0.5 0.5 0.7 0.2 0.2 0.2 0 0.3-0.1 0 0 0.1 0 0.1 0 0.1 0.3 0.5 0 0.6 0.2C39.7 31.2 39.7 31.2 39.4 31.1z" class="a"/><path d="M43.8 38.8c-0.4 0-0.7 0-1.1 0.2 -0.1 0-0.2-0.1-0.3 0.1 0 0.2-0.2 0.4 0 0.5 0.1 0.1 0.3 0.4 0.5 0.1 0.2-0.2 0.4-0.6 0.8-0.4 0.2 0 0.2 0 0.3-0.2C44 38.9 44 38.8 43.8 38.8z" class="a"/><path d="M21.2 36.8c0.3-0.1 0.4-0.3 0.1-0.6 -0.3-0.3-0.5-0.6-0.8-1 -0.1 0.2-0.1 0.3-0.1 0.5 0 0.3-0.2 0.3-0.5 0.1 0.3 0.4 0.3 0.5 0.6 0.3 0.2-0.1 0.2 0 0.3 0.1 0.1 0.2 0.2 0.3 0.2 0.5C21.1 36.8 21 36.9 21.2 36.8z" class="a"/><path d="M40.7 30.8c-0.1-0.1-0.2-0.2-0.3 0 -0.1 0.2-0.2 0.4-0.1 0.5 0 0.2 0.3 0.2 0.5 0.2 0.2 0 0.4 0 0.4-0.3 0-0.1 0.1-0.2 0.2-0.2 0.3 0 0.3-0.2 0.2-0.3 0-0.2-0.2-0.4-0.4-0.5 -0.2 0-0.1 0.2-0.1 0.4 0 0.1 0 0.3-0.1 0.3C40.9 31 40.8 30.9 40.7 30.8z" class="a"/><path d="M22.4 33.1c-0.4-0.4-0.3 0-0.3 0.2 0 0.1-0.1 0.3-0.1 0.4 -0.1 0.3-0.1 0.5 0.1 0.7 0 0.1 0 0.3 0 0.4 0 0.1 0.1 0.2 0.1 0.2 0.2-0.4 0.3-0.1 0.5 0 0.1 0.1 0.2 0.1 0.3-0.1 0-0.1 0.1-0.3 0.1-0.4 0-0.2 0.2-0.4 0-0.5 -0.2-0.1-0.4 0.1-0.4 0.3 -0.1 0.3-0.3 0.3-0.5 0.1 -0.2-0.4 0.1-0.6 0.2-0.9 0.1-0.2 0.3 0.1 0.4 0 0.1-0.1 0.1-0.2 0.2-0.2 0.1-0.1 0.1-0.3 0.2-0.3 0.3-0.1 0.2-0.3 0.1-0.5 -0.1-0.2-0.3-0.2-0.4-0.1 -0.3 0.1-0.1 0.3-0.1 0.4 0 0.1 0 0.2-0.1 0.3C22.6 33.1 22.5 33.2 22.4 33.1z" class="a"/><path d="M30.4 36.8c0-0.1-0.2 0-0.3-0.1 0.1 0.2-0.1 0.3-0.2 0.4 -0.2 0.1-0.4 0.2-0.2 0.4 0.2 0.3 0 0.3-0.2 0.3 -0.4 0.2-0.5 0.5-0.4 0.8 0.1 0.1 0.1 0.2 0.3 0.3 0-0.2-0.2-0.3-0.1-0.4 0.2 0 0.4-0.1 0.5-0.1 0.1 0 0.3-0.1 0.3-0.1C30 38 30.4 37.6 30 37.2c0.1-0.1 0.1-0.1 0.2-0.2C30.3 37 30.4 36.9 30.4 36.8z" class="a"/><path d="M36.4 34.7c0.1 0 0.1 0 0.2 0.1 0.1 0.1 0.3 0.1 0.5 0 -0.2 0-0.2 0-0.3 0 0.1-0.4-0.1-0.6-0.3-0.9 -0.1 0.5-0.1 0.5-0.3 0.4 -0.3-0.1-0.5 0-0.6 0.2 -0.2 0.3-0.1 0.5 0.1 0.7 0.1 0.1 0.1 0.2 0.2 0.1 0.1 0 0.1-0.1 0.1-0.3 0-0.2-0.2-0.4 0-0.5C36.1 34.4 36.3 34.7 36.4 34.7z" class="a"/><path d="M22.4 40.4c0.6-0.2 0.7-0.4 0.4-1 0 0.1-0.1 0.1-0.1 0.2 -0.3 0.5-0.3 0.5-0.6 0 -0.2-0.3-0.3 0-0.4 0 0 0.1 0 0.1 0 0.1 -0.1 0.5-0.1 0.7 0.2 0.8 0-0.1-0.1-0.2-0.1-0.4 0-0.1 0-0.2 0.2-0.2C22.1 40.1 22 40.5 22.4 40.4z" class="a"/><path d="M45.1 38c0.1 0 0.3 0 0.4-0.2 -0.2 0.1-0.3 0.2-0.5 0.1 -0.1-0.3-0.3-0.4-0.4 0 0 0-0.1 0.1-0.1 0.1 -0.3-0.1-0.2-0.3-0.1-0.4 0-0.2-0.1-0.3-0.2-0.4 -0.1 0-0.1 0-0.2 0 -0.3 0.3-0.4 0.7-0.1 1.1 0.1 0.2 0.2 0.3 0.4 0.3 0.2 0 0.1-0.3 0.2-0.4 0 0 0.1-0.1 0.1-0.1C44.7 38 44.9 38.2 45.1 38z" class="a"/><path d="M20.6 41.1C20.4 41 20.2 41 20 40.9c-0.1 0.1-0.2 0.3-0.1 0.5 0.1 0.3 0.2 0.5 0.2 0.8 0 0.4 0.2 0.5 0.5 0.4 -0.1-0.1-0.1-0.2-0.2-0.4 -0.1-0.2-0.1-0.5 0.1-0.6C20.7 41.4 20.6 41.2 20.6 41.1z" class="a"/><path d="M38.3 22.2c0 0.1 0.1 0.2 0.1 0.2 0.4 0.2 0.6 0.6 0.9 0.9 -0.1-0.3 0.2-0.5 0.1-0.8 -0.1-0.2 0-0.6-0.4-0.3 -0.2 0.1-0.3 0-0.3-0.2 0-0.1-0.1-0.3-0.2-0.2C38.3 21.9 38.3 22 38.3 22.2z" class="a"/><path d="M44 17.8c0.1 0 0.1 0 0.1-0.1 0 0 0-0.1-0.1-0.1 -0.3-0.1-0.8-0.3-0.8-0.1 -0.2 0.4-0.5 0.3-0.7 0.3 0 0 0 0.1 0 0.1 -0.1 0.2 0.1 0.4 0.2 0.4 0.2 0 0.4 0 0.6-0.2C43.5 17.8 43.6 17.5 44 17.8z" class="a"/><path d="M25.4 40.1c0.1-0.2 0-0.4-0.1-0.6 -0.1-0.2-0.3-0.1-0.4-0.1 -0.3 0.1-0.5-0.1-0.8-0.3 -0.1 0.3-0.1 0.5-0.2 0.7 0.3-0.1 0.6 0 0.9-0.2 0.1-0.1 0.2 0.1 0.3 0.2 0.1 0.1 0.1 0.2 0 0.2 -0.4 0.1-0.3 0.4-0.2 0.7C25.2 40.6 25.3 40.3 25.4 40.1z" class="a"/><path d="M33.8 36.4c0.2 0.2 0.4 0.2 0.4-0.1 0-0.3-0.3-0.5-0.4-0.8 -0.3 0.1-0.5-0.1-0.7-0.2 -0.1 0-0.2 0-0.2 0.1 0 0.1 0 0.1 0.1 0.1 0.4 0.1 0.3 0.3 0.2 0.6C33.4 36.1 33.4 36.1 33.8 36.4z" class="a"/><path d="M37.1 20.3c-0.5-0.1-0.4-0.4-0.5-0.8 -0.2 0.4-0.2 0.9-0.1 1.3 0.2 0 0.2-0.5 0.4-0.1 0.1 0.2 0.3 0.3 0.5 0.4C37.5 20.7 37.4 20.4 37.1 20.3z" class="a"/><path d="M36.3 28.5c0 0 0.1 0 0.2 0.1 0.2 0.2 0.5 0.5 0.6 0.7 0 0 0.1 0.1 0.1 0.1 0.1-0.1 0.3-0.2 0.4-0.3 0.1-0.3-0.2-0.5-0.3-0.7 -0.1-0.1-0.2-0.1-0.3 0 -0.2 0.2-0.3 0.1-0.5 0 -0.3-0.5-0.3-0.5-1-0.1C35.7 28.6 35.9 28.8 36.3 28.5z" class="a"/><path d="M25.3 33c0 0.5 0.5 0.2 0.7 0.4 0.1 0.1 0.2-0.3 0.3-0.5 0-0.3-0.1-0.4-0.3-0.3C25.5 32.5 25.3 32.7 25.3 33z" class="a"/><path d="M42.6 37.6c0.2-0.2 0.4-0.5 0.8-0.4 -0.2-0.4-0.4-0.4-0.6 0 -0.1 0.2-0.2 0.3-0.3 0.4 -0.2-0.1-0.3-0.2-0.3-0.3 -0.1-0.4-0.4-0.7-0.8-0.8 0 0.2 0 0.4 0.2 0.5 0.3 0.1 0.3 0.4 0.2 0.6 -0.1 0.1-0.1 0.3-0.2 0.4 0.3-0.1 0.6-0.3 1-0.3C42.5 37.7 42.5 37.6 42.6 37.6z" class="a"/><path d="M38.6 30.1c0.2-0.2-0.1-0.5-0.2-0.7 0 0 0 0-0.1-0.1 -0.2 0.2-0.4 0.4-0.7 0.5 -0.1 0-0.2 0.2-0.2 0.2 0 0.1 0.1 0.1 0.2 0.1C38.1 30.3 38.4 30.3 38.6 30.1z" class="a"/><path d="M38.4 40.7c-0.1 0.1-0.1 0.1-0.1 0.2 0.1 0.4 0.1 0.8 0.7 0.7 0.1 0 0.2 0.1 0.4 0.2 -0.1-0.1-0.7-1.1-0.7-1.1C38.6 40.7 38.5 40.7 38.4 40.7z" class="a"/><path d="M21.8 38.6c0.3-0.1 0.2-0.4 0.5-0.5 -0.1-0.2-0.4-0.3-0.3-0.5 0-0.1 0-0.3-0.2-0.3 -0.1-0.1-0.1-0.2-0.3-0.2 -0.1 0.2 0 0.3 0.1 0.3 0 0.3-0.1 0.6-0.3 0.8 -0.1 0.1-0.1 0.2 0 0.3C21.5 38.7 21.6 38.6 21.8 38.6z" class="a"/><path d="M38.4 37.1c0.2-0.2 0.4-0.1 0.6 0.1 0.1 0.1 0.2 0.2 0.3 0 0.1-0.2-0.1-0.3-0.2-0.5 -0.1-0.1-0.2-0.4-0.4-0.2 -0.3 0.3-0.5 0.2-0.8-0.1 -0.1 0.3 0.1 0.4 0.2 0.6C38.1 37.2 38.3 37.2 38.4 37.1z" class="a"/><path d="M19.5 38.1c0 0.2-0.1 0.5-0.1 0.7 0 0.3 0.2 0.4 0.5 0.5 0.2 0 0.3-0.1 0.3-0.3C20.1 38.6 20 38.2 19.5 38.1z" class="a"/><path d="M41.9 41.1c0 0.1 0 0.2 0.1 0.3 0.1 0.1 0 0.3 0.3 0.2 0.2-0.1 0.3-0.2 0.2-0.4 -0.2-0.3-0.4-0.5-0.7-0.6 -0.3-0.1-0.5 0-0.4 0.4C41.7 40.6 41.8 40.9 41.9 41.1z" class="a"/><path d="M24.7 43.8c0.2 0 0.2-0.2 0.2-0.3 0.1-0.4-0.1-0.7 0-1 0-0.4-0.2-0.5-0.6-0.5 0.1 0.2 0.1 0.6 0.1 0.7C24.9 42.9 24.6 43.4 24.7 43.8z" class="a"/><path d="M33.6 33.1c0.1 0.1 0.1 0 0.2-0.1 0-0.1 0.1-0.3 0-0.4 -0.1-0.2-0.2 0-0.3 0.1 -0.1 0.1-0.2 0-0.2-0.1 -0.1-0.1-0.1-0.2-0.2-0.3 -0.1-0.1-0.2-0.2-0.3-0.1 -0.1 0.1-0.3 0.1-0.2 0.3 0 0.3 0.2 0 0.3 0.1 0.3 0.1 0.4 0.3 0.2 0.6 -0.2 0.1-0.3 0.1-0.3 0.4 0 0.3 0.3 0.4 0.2 0.7 -0.2 0.5 0 0.7 0.5 0.6 0-0.1-0.4-0.3 0.1-0.4 0.3 0.1 0.5 0.2 0.4 0.6 -0.1 0.2 0.1 0.2 0.2 0.3 0.3 0.1 0.4-0.1 0.6-0.2 0.1-0.1 0-0.3-0.1-0.4 -0.2-0.5-0.2-0.5 0.2-0.5 -0.3-0.3-0.5-0.6-0.8 0 -0.1 0.1-0.3 0.3-0.5 0.3 -0.3-0.3-0.2-0.7-0.3-1.1C33.2 33.2 33.1 32.5 33.6 33.1z" class="a"/><path d="M36.9 27.7c0 0.2 0.2 0.2 0.3 0.2 0.5 0 0.6-0.2 0.6-0.8 0-0.1-0.1-0.2-0.2-0.2C37.4 26.9 36.9 27.5 36.9 27.7z" class="a"/><path d="M34 21.5c0.1 0.2 0.2 0.4 0.5 0.3 0.2-0.1 0.3-0.1 0.5-0.2 -0.2-0.1-0.1-0.4-0.3-0.5 -0.1-0.1-0.2-0.3-0.3-0.2C34.2 21.1 33.9 21.1 34 21.5z" class="a"/><path d="M41.4 33.2c-0.2 0.3-0.2 0.7-0.3 1.1 0.2-0.1 0.4-0.1 0.5-0.2 0 0.2 0 0.4 0 0.6 0.1-0.1 0.2-0.1 0.3-0.1 0.2 0.3 0.4 0.1 0.6 0.1 0.1 0 0.1 0.3 0.3 0.1 0.2-0.1 0.1-0.3 0.1-0.4 0-0.2 0-0.3 0-0.5 -0.4 0.1-0.5 0.5-0.9 0.7C41.6 34.1 41.7 33.6 41.4 33.2z" class="a"/><path d="M35.3 21.3c0.2 0.1 0.3 0.3 0.5 0.2 0.3-0.1 0.2-0.5 0.3-0.7 0-0.1-0.1-0.2-0.1-0.2 -0.3 0.1-0.5 0.2-0.8 0.4C35.1 21 35.1 21.1 35.3 21.3 35.2 21.2 35.2 21.3 35.3 21.3z" class="a"/><path d="M22.6 36.9c0.1-0.6-0.2-1.4-0.5-1.6 0 0.3 0.1 0.6 0 0.9C22 36.5 22.4 36.7 22.6 36.9z" class="a"/><path d="M26.3 31c-0.2-0.1-0.2 0.2-0.3 0.3 0 0.2-0.1 0.3-0.2 0.4 -0.1 0.1-0.1 0.2-0.1 0.3 0 0.1 0.1 0.1 0.2 0 0.2-0.1 0.5-0.2 0.6-0.5C26.7 31.3 26.5 31.1 26.3 31z" class="a"/><path d="M36 30.8c0.2 0.1 0.5 0.3 0.7 0.3 0.3-0.1 0-0.5 0.2-0.7 0.1-0.1 0-0.1-0.1-0.2 0 0-0.1 0-0.1 0 -0.1 0.2-0.4 0.2-0.6 0.3C35.9 30.5 35.9 30.7 36 30.8z" class="a"/><path d="M28.1 38.9c0-0.1-0.2-0.2-0.3-0.2 -0.3 0.3-0.4 0-0.5-0.3 -0.1 0.2-0.1 0.4-0.2 0.6l0 0c0.3 0 0.4 0.1 0.6 0.4 0.1 0.1 0.2 0.2 0.3 0.1C28.2 39.4 28.1 39.1 28.1 38.9z" class="a"/><path d="M21.8 42.6c0-0.3 0-0.5-0.2-0.7 0 0-0.1-0.1-0.2-0.1 -0.1 0-0.1 0.1-0.1 0.2 0.2 0.4 0.1 0.9 0 1.3C21.8 43.1 21.7 43.1 21.8 42.6z" class="a"/><path d="M38.9 33.2c0 0 0.3-0.1 0.4-0.1 0 0 0.1-0.1 0-0.1 -0.3 0-0.3-0.4-0.6-0.5 -0.2-0.1-0.5 0-0.6-0.2 0-0.4 0-0.4-0.4-0.4 0 0.2 0.2 0.3 0.3 0.4 0 0 0 0 0 0C38.1 32.7 38.8 32.8 38.9 33.2z" class="a"/><path d="M19.9 43c0.1-0.1 0.1-0.3 0-0.4 -0.1-0.1-0.3-0.1-0.4 0 -0.2 0-0.3 0.2-0.2 0.3 0.1 0.3 0 0.6 0.1 0.9C19.5 43.5 19.7 43.3 19.9 43z" class="a"/><path d="M17.7 35.4c-0.2 0-0.4 0-0.4 0.2 -0.1 0.5 0.4 1 1 0.9 -0.5-0.2-0.8-0.5-0.5-0.9C17.9 35.5 17.8 35.4 17.7 35.4z" class="a"/><path d="M24.3 34.7c0.1 0.1 0 0.3 0.2 0.3 0.1 0 0.2-0.1 0.2-0.2 0.1-0.1 0.1-0.2 0-0.3 -0.1-0.1-0.2-0.2-0.2-0.3 -0.1-0.2-0.3-0.2-0.5-0.1 -0.2 0.1-0.3 0.4-0.2 0.6C24 35 24.1 34.7 24.3 34.7z" class="a"/><path d="M37.4 21.9c-0.1-0.1-0.3 0-0.3 0.2 0 0.2 0 0.4 0.3 0.3 0.2 0 0.6 0 0.5-0.4C37.9 21.7 37.6 22 37.4 21.9z" class="a"/><path d="M28.8 41.5c0.1 0 0.2-0.1 0.2-0.2 0-0.1 0.1-0.1 0.2-0.1 0.1 0 0.2 0 0.2-0.1 0-0.1 0-0.2-0.1-0.2 -0.3 0.1-0.5-0.3-0.8-0.2 0 0.2 0.1 0.4 0.1 0.6C28.7 41.4 28.7 41.5 28.8 41.5z" class="a"/><path d="M41.1 21.1c-0.2 0.1-0.4 0.3-0.7 0.2 -0.1 0-0.2 0.1-0.2 0.2 -0.1 0.1 0.1 0.1 0.1 0.2 0.1 0.1 0.2 0.1 0.2 0 0.2-0.2 0.3-0.2 0.6-0.2 0.2 0 0.3-0.1 0.4-0.2C41.4 21 41.3 21 41.1 21.1z" class="a"/><path d="M20.7 39.4c-0.4 0-0.6 0.3-0.5 0.5 0.1 0.3 0.2 0.7 0.7 0.7C20.7 40.3 20.6 39.9 20.7 39.4z" class="a"/><path d="M27.9 40.8c-0.3-0.1-0.3-0.3-0.5-0.5 -0.1 0.1-0.2 0.3-0.1 0.4 0.2 0.2 0.2 0.4 0.2 0.6 0 0 0.1 0.1 0.2 0.2 0.1 0.1-0.1 0.3 0.1 0.4 0.1-0.2-0.1-0.3-0.1-0.4C28 41.4 28.1 40.8 27.9 40.8z" class="a"/><path d="M38.4 27.3c-0.1 0.1 0 0.3 0 0.5 0 0.2 0 0.3 0.2 0.4 0.2 0.1 0.2-0.3 0.5-0.2 0.1 0-0.1-0.2-0.1-0.3 0-0.1 0-0.1 0-0.2 -0.1 0-0.1 0-0.2 0C38.6 27.4 38.5 27.2 38.4 27.3z" class="a"/><path d="M38.9 27.5C38.9 27.5 38.9 27.5 38.9 27.5L38.9 27.5C38.9 27.5 38.9 27.5 38.9 27.5 38.9 27.5 38.9 27.5 38.9 27.5 38.9 27.5 38.9 27.5 38.9 27.5z" class="a"/><polygon points="41.1 38.1 41.1 38.1 41.1 38.1 " class="a"/><path d="M41.5 38C41.5 38 41.5 38 41.5 38 41.5 38 41.5 38 41.5 38L41.5 38C41.5 38 41.5 38 41.5 38 41.5 38 41.5 38 41.5 38 41.5 38 41.5 38 41.5 38z" class="a"/><path d="M42.4 38.4c-0.3-0.1-0.4-0.1-0.5 0.1 -0.1 0.1-0.2 0.2-0.3 0.1 -0.1-0.1-0.2-0.2-0.1-0.4 0 0 0.1-0.1 0-0.2 -0.1 0-0.2 0.1-0.4 0.1 -0.2 0.4 0.2 0.7 0.4 0.8C42 39.1 42 38.5 42.4 38.4z" class="a"/><path d="M34.5 36.3c0 0.3-0.4 0.4-0.3 0.7 0.1 0.2 0.3 0.4 0.5 0.5C34.6 37.1 35.2 36.6 34.5 36.3z" class="a"/><path d="M26 36.7c0-0.1-0.1-0.3-0.2-0.3 -0.3-0.1-0.4-0.4-0.6-0.6 -0.2 0.6-0.1 0.7 0.5 0.9C25.8 36.7 25.9 36.9 26 36.7z" class="a"/><path d="M17.5 39.4c0.4 0 0.4-0.5 0.7-0.6 0.1 0 0.2-0.1 0.1-0.2 -0.1-0.1-0.1-0.1-0.3 0 -0.3 0.2-0.5 0.5-0.7 0.9 -0.1 0.6-0.3 1.2-0.1 1.9C17.4 40.6 17.7 40 17.5 39.4z" class="a"/><path d="M26.2 37.1c-0.2 0-0.2 0.2-0.2 0.4 0 0.2 0.1 0.4 0.3 0.5 0.3-0.1 0.3-0.3 0.4-0.5C26.6 37.1 26.4 37.1 26.2 37.1z" class="a"/><path d="M31.6 32.5c-0.1 0-0.1 0.1-0.1 0.1 0 0.2 0 0.4-0.1 0.5 -0.1 0.1-0.2 0.1-0.1 0.3 0.1 0.2 0.3 0 0.5 0 0.2 0 0.1-0.1 0.1-0.1 0-0.3-0.1-0.5-0.1-0.7C31.7 32.5 31.7 32.5 31.6 32.5z" class="a"/><path d="M42.7 32.5c-0.1 0.2 0.1 0.2 0.1 0.2 0.4 0 0.3-0.4 0.4-0.7 0.1-0.2 0-0.2-0.2-0.2C42.6 31.8 42.9 32.3 42.7 32.5z" class="a"/><path d="M31 38.7c0.1 0.3 0.1 0.5-0.2 0.7 0 0 0 0.1-0.1 0.1 0.3 0.1 0.1 0.4 0.1 0.6C31.4 39.7 31.4 39 31 38.7z" class="a"/><path d="M46.9 41.3c0 0.1 0.1 0.3 0.2 0.2 0.2-0.1 0.4-0.1 0.4-0.4 0-0.2-0.2-0.3-0.4-0.3C47 40.8 46.9 40.9 46.9 41.3z" class="a"/><path d="M35.5 20c0-0.1 0-0.3-0.2-0.4 -0.2 0-0.6 0.4-0.6 0.6 0 0.1 0.1 0.2 0.2 0.2C35.1 20.2 35.5 20.3 35.5 20z" class="a"/><path d="M45 24.6c-0.2 0.1-0.2 0-0.3-0.1 -0.1-0.1-0.1-0.3-0.2-0.2 -0.2 0.1-0.2 0.3-0.1 0.4 0.1 0.2 0.3 0.1 0.5 0.2 0.1 0 0.2 0.1 0.4 0 0.1-0.1 0.2-0.2 0.1-0.3C45 24.3 45 24.5 45 24.6z" class="a"/><path d="M43.6 23.1c0.1 0 0.1-0.1 0.1-0.2 0-0.1-0.1-0.1-0.1-0.1 -0.2 0.2-0.4 0-0.6 0 0 0.6 0 0.6 0.6 0.7C43.2 23.3 43.4 23.2 43.6 23.1z" class="a"/><path d="M39.4 23.4C39.4 23.4 39.4 23.4 39.4 23.4 39.3 23.4 39.3 23.4 39.4 23.4 39.3 23.4 39.3 23.4 39.4 23.4 39.4 23.4 39.4 23.4 39.4 23.4z" class="a"/><path d="M46.5 31.4c0 0.1 0.1 0 0.2-0.1 0-0.1 0.1-0.3 0.1-0.5 0-0.1-0.1-0.3-0.3-0.4 -0.1 0-0.3 0.1-0.3 0.2C46.2 30.9 46.3 31.1 46.5 31.4z" class="a"/><path d="M39.3 20.9c0.4 0 0.7-0.1 0.9 0.1 0.1 0 0.2 0 0.2 0 0-0.1 0-0.1-0.1-0.2C40 20.4 39.8 20.4 39.3 20.9z" class="a"/><path d="M44.1 43.4c-0.1-0.2 0.2-0.4-0.1-0.6 -0.1-0.1-0.3-0.1-0.5 0 -0.2 0.1-0.1 0.3-0.1 0.5C43.8 43.2 43.9 43.2 44.1 43.4z" class="a"/><path d="M19.1 41.7c0 0 0.1 0 0.1 0 0.1 0 0.2 0.2 0.2 0 0-0.1 0-0.2-0.1-0.3 -0.1-0.1-0.2-0.1-0.3 0 -0.2 0.1-0.4 0.1-0.6 0.1C18.7 42 18.7 42 19.1 41.7z" class="a"/><path d="M46.9 21.5c-0.2 0-0.4 0.1-0.5 0.3 0.1 0.2 0.1 0.4 0.3 0.4 0.2 0 0.3-0.2 0.4-0.5C47.1 21.5 47 21.5 46.9 21.5z" class="a"/><path d="M47.5 28.3c0.1 0 0.3 0 0.2-0.2 -0.1-0.3-0.5-0.2-0.7-0.4 -0.1-0.1-0.2 0.2-0.2 0.4 -0.1 0-0.1 0-0.2 0 -0.1 0-0.1-0.3-0.2-0.1 -0.1 0.1-0.3 0.3-0.3 0.5 0 0 0.1 0.1 0.1 0.1 0.1 0 0.1 0 0.1-0.1 0-0.2 0.2-0.3 0.3-0.2 0.2 0.1 0.2 0 0.2-0.2C47.1 28.1 47.3 28.3 47.5 28.3z" class="a"/><path d="M21.3 31.3c0 0.8 0.2 1.1 0.7 1.1C21.5 32.1 21.8 31.5 21.3 31.3z" class="a"/><path d="M23.5 41.6c0.1 0 0.3-0.1 0.2-0.3 -0.1-0.1 0-0.4-0.3-0.4 -0.2 0-0.3 0.2-0.3 0.3C23.1 41.5 23.2 41.7 23.5 41.6z" class="a"/><path d="M37 35.8c0.3 0 0.2-0.2 0.3-0.3 0-0.2-0.2-0.1-0.3-0.2 -0.2-0.1-0.3 0.1-0.3 0.3 0 0.2 0 0.3-0.1 0.5 -0.2 0.1-0.4 0-0.6-0.1 -0.5-0.2-0.7 0-0.7 0.6 0.1-0.4 0.4-0.4 0.6-0.2 0.2 0.1 0.4 0.2 0.6 0.4 0.1 0.1 0.2 0.1 0.3 0 0.1-0.1 0.1-0.2 0-0.4 -0.1-0.1-0.1-0.2-0.2-0.3C36.7 35.9 36.7 35.8 37 35.8z" class="a"/><path d="M45 20.1c-0.2 0.3-0.4 0-0.6 0.1 0.1 0.2 0.2 0.3 0.4 0.5 0.1 0.1 0.2 0.2 0.4 0.1 -0.2-0.2 0.2-0.4 0-0.6C45.1 20.1 45 20.1 45 20.1z" class="a"/><path d="M35.6 32.4c0.2 0.2 0.8 0.2 1 0 0.1-0.1 0.2-0.2 0-0.3 -0.1-0.1-0.3-0.2-0.4 0 -0.1 0.2-0.3 0.3-0.5 0.2 -0.2-0.1-0.3-0.3-0.1-0.5 -0.6 0.1-0.7 0.3-0.5 0.9C35.3 32.5 35.3 32.1 35.6 32.4z" class="a"/><path d="M23.1 37.2c-0.1-0.1 0-0.2-0.2-0.2 -0.3 0.1-0.1 0.4-0.2 0.5 0 0.1 0 0.2 0.1 0.3 0.1 0 0.1-0.1 0.2-0.1C23.3 37.7 23.3 37.5 23.1 37.2z" class="a"/><path d="M36.7 25.6c0.1 0.2 0.2 0.2 0.4 0.2 0.1 0 0.3-0.1 0.3-0.3 -0.1-0.1-0.3-0.1-0.4-0.2 -0.1-0.1-0.1-0.3-0.3-0.1C36.6 25.3 36.6 25.4 36.7 25.6z" class="a"/><path d="M26.9 38.4c0.2 0.2 0.5 0 0.7-0.2 -0.4 0-0.4-0.5-0.7-0.3C26.7 38 26.7 38.3 26.9 38.4z" class="a"/><path d="M26.5 39.6c0-0.2-0.1-0.3-0.1-0.4 -0.4 0.1-0.2-0.2-0.3-0.4 0-0.1-0.1-0.1-0.2-0.1 -0.1-0.1-0.3-0.2-0.5 0.1 0.5-0.1 0.5 0.2 0.5 0.4C25.7 39.9 26.3 39.4 26.5 39.6z" class="a"/><path d="M34.1 38.1c0.3 0.1 0.4-0.1 0.4-0.4 -0.2 0.1-0.4 0.1-0.6 0 -0.2-0.1-0.3 0-0.4 0.1 -0.1 0.2 0 0.4 0.3 0.7 -0.1-0.2-0.1-0.4-0.1-0.5C33.8 38 34 38.1 34.1 38.1z" class="a"/><path d="M37.9 33.2c-0.2-0.1-0.1-0.6-0.4-0.6 -0.3-0.1-0.3 0.3-0.4 0.5C37.4 32.8 37.6 33.4 37.9 33.2z" class="a"/><path d="M17 43.1c0 0 0.1 0 0.1-0.1 0.2-0.4 0.1-0.6-0.3-0.8 -0.1 0.2-0.1 0.5 0 0.7C16.8 43 16.9 43 17 43.1z" class="a"/><path d="M16.9 39.7c-0.2-0.3 0.1-0.6-0.2-0.9 -0.1-0.1 0.1-0.5-0.2-0.4 -0.2 0.1 0 0.3 0 0.5C16.6 39.2 16.6 39.5 16.9 39.7z" class="a"/><path d="M43.7 27c-0.2 0.2-0.2 0.4-0.1 0.6 0.2-0.3 0.6-0.1 0.8-0.5C44.1 27 43.9 26.8 43.7 27z" class="a"/><path d="M35.3 39.2c0.2 0 0.3-0.2 0.3-0.3 0-0.2-0.2-0.3-0.4-0.3 -0.2 0-0.2 0.2-0.2 0.3C35.1 39 35 39.2 35.3 39.2z" class="a"/><path d="M19.1 37.4c-0.1 0.1-0.2 0.2-0.3 0.4 -0.1 0.1 0 0.3 0.1 0.4 0.1 0.1 0.1 0.1 0.2 0.1 0.2 0 0.1-0.2 0.1-0.3C19.2 37.8 19.3 37.6 19.1 37.4z" class="a"/><path d="M42 31c-0.1 0.2-0.5 0-0.5 0.3 0 0.2 0.2 0.3 0.4 0.3 0.2 0 0.2-0.3 0.3-0.4C42.2 31.1 42.1 31 42 31z" class="a"/><path d="M23.9 44c0.1-0.1 0.1-0.2 0-0.3 -0.1-0.3-0.3-0.5-0.4-0.9 -0.1 0.4-0.1 0.8 0.1 1C23.7 44 23.7 44.1 23.9 44z" class="a"/><path d="M27 42.9c0.2-0.1 0.3-0.3 0.4-0.4 0-0.1-0.1-0.3-0.2-0.1 -0.1 0.1-0.2 0.1-0.3 0 -0.1-0.1-0.1-0.1-0.2 0 -0.1 0.1-0.1 0.2 0 0.3C26.8 42.8 27 42.9 27 42.9z" class="a"/><path d="M17.6 43.4c0.4-0.2 0.8-0.3 1.1-0.5C18.1 42.6 17.9 43 17.6 43.4z" class="a"/><path d="M23.1 43.7c0-0.4-0.4-0.6-0.5-0.8C22.1 43.5 22.6 43.5 23.1 43.7z" class="a"/><path d="M26.5 42c0 0.2 0.1 0.1 0.2 0 0.3 0 0.2-0.2 0.2-0.4 -0.1-0.2-0.1-0.5-0.2-0.8 -0.2 0.2-0.1 0.5-0.1 0.7C26.5 41.7 26.5 41.9 26.5 42z" class="a"/><path d="M42 42.4c0.1 0 0.3-0.1 0.4 0.1 0.2 0.5 0.4 0.1 0.7 0 -0.3-0.1-0.5-0.4-0.8-0.2 0 0-0.1 0-0.2 0 -0.2-0.1-0.3-0.1-0.4 0.1 -0.2 0.2-0.4 0.4-0.7 0.4C41.8 42.9 41.8 42.9 42 42.4z" class="a"/><path d="M20.3 34.2c0.2 0.3 0.6 0.1 0.8 0.2 0.1 0 0.2 0 0.2-0.1 0-0.1 0-0.2-0.1-0.3 -0.1-0.1-0.2-0.1-0.2 0C20.8 34.2 20.6 34.2 20.3 34.2z" class="a"/><path d="M34.3 25.1c0 0.1 0.1 0.2 0.2 0.2 0.1 0 0.3 0 0.4-0.1 0.1-0.1 0-0.3 0-0.5 -0.2 0.1-0.3 0.3-0.5 0.3C34.4 25 34.3 25 34.3 25.1z" class="a"/><path d="M39.1 20.9c-0.8 0.3-0.8 0.3-0.5 0.8C38.9 21.6 38.9 21.3 39.1 20.9z" class="a"/><path d="M44 28.6c-0.4 0-0.6 0.2-0.9 0.5C43.8 29.1 44 29 44 28.6z" class="a"/><path d="M43.4 40.6c0.1-0.1 0.1-0.2 0-0.3 -0.1-0.1-0.2 0-0.3 0.1 -0.3 0.3 0.1 0.5-0.1 0.8C43.4 41.1 43.1 40.8 43.4 40.6z" class="a"/><path d="M35.2 27.5c0 0.1-0.2 0.1-0.2 0.2 0 0.1 0.2 0.1 0.3 0.1 0.1 0 0.3 0 0.2-0.2 -0.1-0.2 0.2-0.3 0.2-0.5C35.4 27 35.3 27.1 35.2 27.5z" class="a"/><path d="M36.2 26.9c-0.1 0-0.1 0.3 0.1 0.4 0.3 0.2 0.4-0.2 0.6-0.3C36.6 27 36.4 26.7 36.2 26.9z" class="a"/><path d="M39.3 33.9c0.3-0.3 0.4-0.1 0.5 0 0.1 0 0.2-0.1 0.2-0.2 -0.1-0.2-0.3-0.3-0.5-0.3C39.2 33.4 39.3 33.6 39.3 33.9z" class="a"/><path d="M23.3 35.9c0 0 0 0.3 0.1 0.2 0.2-0.1 0.4-0.2 0.5-0.3 0-0.2-0.1-0.2-0.2-0.2C23.4 35.6 23.4 35.8 23.3 35.9z" class="a"/><path d="M44.9 28c0.2 0.1 0.2-0.1 0.2-0.1 0.1-0.3 0.3-0.1 0.4-0.1 0 0.1 0.1 0.1 0.2 0.1 0-0.1-0.1-0.2-0.1-0.3 0 0 0-0.1 0-0.1 0.1-0.1 0.2-0.2 0-0.3 -0.1-0.1-0.2 0-0.2 0.1 -0.2 0.1-0.3 0.2-0.5 0.4C44.9 27.8 44.8 27.9 44.9 28z" class="a"/><path d="M18.4 40.4c0 0.3 0.4 0.1 0.5 0.2 0 0 0.1 0 0.1-0.1 -0.1-0.2-0.2-0.3-0.4-0.4C18.5 40.1 18.4 40.3 18.4 40.4z" class="a"/><path d="M47.6 18.6c0.1 0 0.2-0.1 0.2-0.3 0-0.2-0.2-0.3-0.4-0.3 -0.1 0-0.2 0-0.2 0.2C47.4 18.3 47.3 18.6 47.6 18.6z" class="a"/><path d="M18.4 35.2c0.1-0.4-0.1-0.6-0.1-1C17.9 34.6 18.1 34.9 18.4 35.2z" class="a"/><path d="M44.6 34.4c0-0.2 0.5-0.4 0-0.7 0-0.3-0.1-0.4-0.4-0.4 -0.1 0-0.1 0-0.1 0.1 0 0.2 0.2 0.3 0.4 0.4 0 0.1 0 0.2 0 0.2C44.1 34.1 44.5 34.2 44.6 34.4z" class="a"/><path d="M46 21.6c-0.2-0.2-0.4-0.1-0.6 0 0.1 0.2 0.4 0.3 0.4 0.5 0 0.1 0.1 0.3 0.2 0.4 0.1-0.2 0-0.3-0.2-0.5C45.9 21.9 46.1 21.7 46 21.6z" class="a"/><path d="M45 31.4c0.2 0 0.4 0.1 0.5-0.2 0.1-0.4-0.2-0.3-0.5-0.4C45.1 31 45.1 31.2 45 31.4z" class="a"/><path d="M45.9 34.2c0 0.1 0 0.2 0.1 0.2 0.2 0 0.4-0.1 0.5-0.3 0 0 0-0.1 0-0.1 0.1-0.1 0.1-0.3 0.1-0.5 -0.2 0.1-0.2 0.2-0.2 0.3 0 0-0.1 0-0.1 0C46.2 34.1 46 34 45.9 34.2z" class="a"/><path d="M23.6 32.5c0.1-0.3 0.1-0.5 0.1-0.8 0-0.1 0.1-0.2 0.2-0.2 0.2 0.1 0.4 0.1 0.5 0.3 0 0.3 0 0.5-0.3 0.6 -0.1 0.1-0.2 0.1-0.1 0.2 0.1 0.1 0.1 0.4 0.4 0.3 0.1-0.1 0.2-0.1 0.1-0.3 -0.1-0.1-0.1-0.2 0.1-0.2 0.1 0 0.1 0.2 0.2 0.1 0.2-0.1 0-0.2-0.1-0.3 -0.1-0.1 0-0.2 0.1-0.2 0.1-0.1 0.2-0.3 0.2-0.4 0-0.5 0.3-0.9 0.6-1.2 0.1-0.1 0.1-0.2 0-0.3 -0.1-0.2-0.3-0.4-0.2-0.6 0-0.1 0.1-0.2-0.1-0.3 -0.1 0-0.2 0-0.3 0.1 -0.4 0.2-0.1 0.6-0.2 0.9 -0.1 0.4-0.4 0.6-0.7 0.4 -0.1 0-0.1-0.2-0.3-0.2 -0.1 0.3 0.4 0.5 0.1 0.8 -0.3-0.1-0.4 0-0.3 0.3 0 0.1 0.1 0.3 0 0.4C23.3 32.2 23.5 32.3 23.6 32.5z" class="a"/><path d="M40.5 33.3c0 0.1 0.1 0.1 0.2 0.1 0.4 0.1 0.4-0.2 0.5-0.5C41 33 40.8 33 40.6 33.1 40.6 33.1 40.5 33.2 40.5 33.3z" class="a"/><path d="M30.1 36.8L30.1 36.8C30.1 36.8 30.1 36.8 30.1 36.8L30.1 36.8C30.1 36.7 30.1 36.8 30.1 36.8 30.1 36.8 30.1 36.8 30.1 36.8L30.1 36.8 30.1 36.8C30.1 36.8 30.1 36.8 30.1 36.8L30.1 36.8C30.1 36.8 30.1 36.8 30.1 36.8 30.1 36.8 30.1 36.8 30.1 36.8L30.1 36.8z" class="a"/><path d="M29.6 36.4c-0.1 0.1-0.1 0.1-0.1 0.3 0 0.1 0.1 0.2 0.2 0.1 0.1-0.1 0.2-0.1 0.4 0C30.1 36.4 29.9 36.3 29.6 36.4z" class="a"/><path d="M38.1 35.3c0.1-0.1 0.2-0.2 0.2-0.3 0-0.2-0.2-0.2-0.4-0.2 -0.1 0-0.2 0-0.2 0.2C37.7 35.2 37.9 35.3 38.1 35.3z" class="a"/><path d="M21.9 30.1c-0.2 0-0.2 0.1-0.2 0.3 0.1 0.1-0.1 0.3 0.1 0.2 0.1 0 0.3 0 0.3-0.3C22.1 30.2 22 30.1 21.9 30.1z" class="a"/><path d="M38.3 35.5c0 0.1 0 0.2 0 0.3 -0.1 0.2 0.1 0.3 0.2 0.3 0.1 0 0.2 0.1 0.3 0 0.1-0.2-0.1-0.2-0.2-0.3C38.4 35.8 38.4 35.6 38.3 35.5z" class="a"/><path d="M16.2 42.9c0.1-0.2 0.3-0.4 0-0.6 -0.1 0.2-0.2 0.3-0.2 0.4C15.8 43 16.1 42.9 16.2 42.9z" class="a"/><path d="M21 32.7c-0.1 0-0.2 0.1-0.2 0.2 0 0.1 0.1 0.3 0.2 0.3 0.1 0 0.2-0.1 0.2-0.3C21.3 32.8 21.2 32.7 21 32.7z" class="a"/><path d="M32.9 18c-0.1-0.1-0.2-0.2-0.3-0.1 0 0 0 0.1 0 0.1 0.1 0.1 0.2 0.3 0.3 0.3 0.2 0 0.4-0.1 0.4-0.4 0.1-0.1 0.2-0.1 0.1-0.2 -0.1-0.1-0.2-0.1-0.2 0 0 0 0 0.2 0.1 0.3C33.1 18 33 18.1 32.9 18z" class="a"/><path d="M27.2 34.2c-0.3 0-0.3 0.3-0.3 0.6 0.2-0.1 0.3-0.4 0.5-0.1C27.5 34.4 27.4 34.2 27.2 34.2z" class="a"/><path d="M39.8 24.1c0.1 0.1 0 0.3 0.2 0.3 0.1 0 0.3-0.1 0.3-0.2 0-0.2-0.2-0.1-0.3-0.2 -0.1 0-0.1-0.1-0.2-0.1 0.1-0.2 0.2-0.4 0.2-0.7 0-0.1 0-0.3-0.1-0.3 -0.2-0.1-0.2 0.1-0.2 0.2 -0.1 0.1-0.1 0.3-0.3 0.3 0.2 0.2 0.3 0.4 0.4 0.6C39.7 24.1 39.7 24.1 39.8 24.1z" class="a"/><path d="M43.8 41.7c-0.1-0.2-0.2-0.2-0.3-0.2 -0.1 0-0.1 0.2-0.1 0.3 0 0.1 0.1 0.2 0.2 0.2C43.7 41.9 43.8 41.9 43.8 41.7z" class="a"/><path d="M26.7 39.4c0 0.2 0.2 0.1 0.3 0.2 0 0.1 0 0.2 0.1 0.1 0.1-0.1 0.2-0.2 0.1-0.3 -0.3-0.1 0-0.3 0-0.4 0 0 0 0 0 0C26.9 39.1 26.9 39.3 26.7 39.4z" class="a"/><path d="M40.3 41.5C40.3 41.5 40.3 41.5 40.3 41.5 40.3 41.5 40.3 41.5 40.3 41.5 40.3 41.5 40.3 41.5 40.3 41.5 40.3 41.5 40.3 41.5 40.3 41.5z" class="a"/><path d="M40.3 41c-0.3 0.1 0 0.3 0 0.5 0.1-0.2 0.3-0.3 0.6-0.3C40.7 40.9 40.5 40.9 40.3 41z" class="a"/><path d="M34.2 39.4c0.2 0 0.3-0.2 0.4-0.4 -0.2 0.1-0.5-0.1-0.6 0.1C34 39.2 34.1 39.4 34.2 39.4z" class="a"/><path d="M35.3 17.8c-0.2-0.1-0.5-0.1-0.7-0.3 -0.2 0-0.3-0.1-0.5-0.1 0 0.3 0.2 0.2 0.4 0.3 0.2 0.2 0.3 0.3 0.1 0.6 -0.1 0.2 0 0.4-0.2 0.6 0 0 0.1 0.1 0.2 0.1 0.2 0 0.3-0.2 0.4-0.4 0.1-0.2 0.1-0.5 0.3-0.7 0.2 0 0.3 0.1 0.5 0.2 0.1 0.2 0.1 0.5 0.3 0.7 0.2-0.2-0.2-0.4 0-0.5 0.2-0.2 0.3 0.1 0.5 0.2 -0.1-0.5 0.1-0.8 0.7-1 0-0.2-0.3-0.2-0.2-0.4 0.1-0.1 0.2 0 0.3 0 0.1 0.1 0.2 0.2 0.3 0 0.1-0.1 0-0.2 0-0.3 0-0.1-0.1-0.2-0.3-0.2 -0.3 0-0.6 0.1-0.7 0.5 -0.1 0.4-0.4 0.8-0.9 0.8 -0.1-0.1-0.2-0.2-0.2-0.4 0.1-0.2-0.1-0.3-0.2-0.4 -0.3-0.3-0.4-0.3-0.6 0 0.2 0 0.3 0 0.5 0C35.5 17.5 35.8 17.7 35.3 17.8z" class="a"/><path d="M25.7 43.2c-0.2 0-0.2 0.1-0.2 0.2 0 0.1 0 0.2 0.2 0.2 0.1 0 0.3 0 0.3-0.2C26 43.3 25.9 43.2 25.7 43.2z" class="a"/><path d="M34.7 22.1c-0.5 0-0.6 0.4-0.8 0.6C34.3 22.7 34.5 22.4 34.7 22.1z" class="a"/><path d="M43.6 33.8c0.1 0 0.1-0.2 0.1-0.3 0-0.1 0-0.3-0.1-0.3 -0.1 0-0.2 0.1-0.3 0.2C43.4 33.5 43.4 33.8 43.6 33.8z" class="a"/><path d="M17.8 37.1c-0.1 0-0.1 0.1-0.1 0.1 0.1 0.2 0.2 0.4 0.3 0.7 0.1-0.3 0-0.5 0-0.7C18 37.2 17.9 37.1 17.8 37.1z" class="a"/><path d="M22.7 41.7c0.1 0.3 0.1 0.6 0.3 0.9C23 42.3 23.2 41.9 22.7 41.7z" class="a"/><path d="M37.6 20.3c0.1 0.2 0.2 0.3 0.4 0.4 0.1 0.1 0.2-0.1 0.2-0.2 -0.1-0.1-0.3-0.2-0.4-0.3C37.7 20.2 37.6 20.2 37.6 20.3z" class="a"/><path d="M39.7 40.6c-0.1-0.3-0.1-0.6-0.2-0.8 0.3-0.3 0.4 0 0.6 0.2 0.1 0.1 0.1 0.2 0.2 0.1 0.1-0.1 0.2-0.3 0.2-0.3 -0.1-0.2-0.2-0.4-0.4-0.4 -0.2 0-0.4 0.1-0.4-0.1 -0.1-0.2-0.1-0.5 0.1-0.7 0.2-0.2 0.3-0.2 0.5 0.1 0.1 0.1 0.1 0.3 0.3 0.2 0.2-0.1 0-0.3 0-0.4 -0.1-0.3-0.4-0.3-0.6-0.3 -0.2 0-0.4 0.1-0.5 0 -0.2 0-0.5 0.1-0.4-0.3 0-0.2-0.2-0.2-0.4-0.1 -0.1 0-0.1 0.1-0.1 0.2 0.1 0.2 0.1 0.4 0.2 0.5 0.3 0.3 0.1 0.4-0.2 0.6 -0.1 0.1-0.2 0.1-0.3 0.1 -0.2 0-0.1 0.1-0.1 0.2 0 0.2 0.1 0.1 0.2 0.1 0.4-0.1 0.8 0.1 1 0.4C39.4 40.1 39.3 40.5 39.7 40.6z" class="a"/><path d="M26 41.7c-0.1-0.3-0.3-0.2-0.5-0.2 0.1 0.2 0.2 0.4 0.4 0.4C26 41.9 26.1 41.8 26 41.7z" class="a"/><path d="M37.9 26c0-0.1-0.1-0.1-0.2-0.2 -0.2 0-0.3 0.1-0.3 0.3 0 0.1 0.1 0.2 0.2 0.2C37.8 26.3 37.9 26.1 37.9 26z" class="a"/><path d="M46.7 35.3c0.1 0.2-0.2 0.4 0.2 0.5 0.1 0 0.2 0 0.2-0.1C47.2 35.5 46.9 35.5 46.7 35.3z" class="a"/><path d="M36.5 17.1c0-0.2-0.2-0.2-0.3-0.2 -0.1 0-0.2 0-0.2 0.2 0 0.1 0.1 0.2 0.2 0.2C36.4 17.3 36.5 17.3 36.5 17.1z" class="a"/><path d="M43.4 43.9c-0.2-0.1-0.2-0.4-0.5-0.3 -0.1 0-0.1 0.2-0.1 0.2C43 44 43.2 44 43.4 43.9z" class="a"/><path d="M17.8 42.1c0.1 0 0.1-0.1 0.2-0.2 0-0.1-0.1-0.2-0.3-0.2 -0.1 0-0.2 0.1-0.2 0.2C17.5 42 17.6 42.1 17.8 42.1z" class="a"/><path d="M34.8 37.5C34.8 37.5 34.8 37.5 34.8 37.5L34.8 37.5 34.8 37.5C34.8 37.5 34.8 37.5 34.8 37.5 34.8 37.5 34.8 37.5 34.8 37.5 34.8 37.5 34.8 37.5 34.8 37.5z" class="a"/><path d="M35.1 38c0.1-0.1 0.1-0.1 0.1-0.3 0-0.2-0.2-0.3-0.4-0.3 0 0.1 0.1 0.2 0.1 0.3C34.9 38 34.9 38.1 35.1 38z" class="a"/><path d="M19.5 35.9c0.1-0.1 0.1-0.2 0.2-0.3 0.3-0.2 0.1-0.4 0-0.6 0 0.2 0 0.3-0.1 0.5C19.5 35.6 19.5 35.8 19.5 35.9c-0.2 0.1-0.3 0.3-0.1 0.5 0.1 0.1 0.1 0.3 0.1 0.5 -0.1 0.2 0 0.5 0.3 0.5 0.2 0 0.2-0.3 0.4-0.4 -0.2-0.1-0.4-0.1-0.5-0.3C19.6 36.5 19.5 36.2 19.5 35.9z" class="a"/><path d="M45.7 24.2c0-0.2 0.3-0.3 0-0.4 -0.1-0.1-0.4 0-0.4 0C45.2 24.1 45.6 24 45.7 24.2z" class="a"/><path d="M42.8 30.2c-0.1 0.1-0.3 0.1-0.2 0.3 0.1 0.2 0.2 0.2 0.5 0.2C42.8 30.6 42.9 30.3 42.8 30.2z" class="a"/><path d="M41.3 36.4C41.3 36.4 41.3 36.5 41.3 36.4 41.3 36.5 41.3 36.5 41.3 36.4 41.3 36.5 41.3 36.5 41.3 36.4 41.3 36.5 41.3 36.4 41.3 36.4 41.3 36.4 41.3 36.4 41.3 36.4z" class="a"/><path d="M41 36c-0.1 0-0.2 0-0.2 0.1 -0.1 0.1 0 0.2 0.1 0.3 0.1 0.2 0.2 0.2 0.4 0.1 -0.1-0.1-0.1-0.1-0.1-0.2C41.2 36.1 41.2 36 41 36z" class="a"/><path d="M45.1 17.2c0.3-0.4 0-0.5-0.2-0.8C44.8 16.8 45.1 16.9 45.1 17.2z" class="a"/><path d="M41.6 40.2c0.1 0 0.2 0 0.2-0.1 -0.1-0.1-0.2-0.3-0.3-0.3 -0.1 0-0.1 0.1-0.1 0.2C41.3 40.1 41.5 40.2 41.6 40.2z" class="a"/><path d="M42.4 21.1c-0.1 0-0.3 0.1-0.3 0.2 0 0.1 0.1 0.2 0.2 0.2 0.1 0 0.2-0.1 0.2-0.3C42.6 21.2 42.5 21.1 42.4 21.1z" class="a"/><path d="M32.6 41.8c0-0.1-0.1-0.2-0.2-0.2 -0.1-0.1-0.2-0.1-0.2-0.3C32 41.7 32 41.8 32.6 41.8z" class="a"/><path d="M32.3 41.3C32.3 41.3 32.3 41.3 32.3 41.3L32.3 41.3 32.3 41.3 32.3 41.3 32.3 41.3C32.3 41.3 32.3 41.3 32.3 41.3 32.3 41.3 32.3 41.3 32.3 41.3 32.3 41.3 32.3 41.3 32.3 41.3z" class="a"/><path d="M40.8 40.2c0 0-0.1 0-0.1 0.1 0 0.2 0 0.4 0.3 0.5C40.9 40.5 41.1 40.3 40.8 40.2z" class="a"/><path d="M26.2 34.3c-0.2 0.1-0.3 0.3-0.2 0.5 0 0 0.1 0.1 0.1 0.1 0.2-0.1 0.2-0.3 0.2-0.5 0-0.1 0.2-0.2 0.1-0.3C26.3 34.1 26.3 34.2 26.2 34.3z" class="a"/><path d="M30.3 40.2c0-0.1-0.1-0.1-0.2-0.1 -0.1 0-0.3 0-0.3 0.2 0 0.1 0 0.2 0.2 0.2C30.1 40.3 30.3 40.3 30.3 40.2z" class="a"/><path d="M19.1 34.6c-0.1 0-0.2 0.1-0.3 0.2 0 0.1 0 0.2 0.1 0.2 0.2 0 0.3-0.1 0.3-0.2C19.3 34.6 19.2 34.5 19.1 34.6z" class="a"/><path d="M46.1 29.3c-0.2 0-0.4-0.2-0.6-0.2C45.6 29.5 45.6 29.6 46.1 29.3z" class="a"/><path d="M38.5 28.8c0-0.2-0.2-0.2-0.4-0.2 0.1 0.2 0.1 0.4 0.3 0.4C38.4 29 38.5 28.9 38.5 28.8z" class="a"/><path d="M46.5 22.9c0.3 0.1 0.5 0.4 0.7-0.1 0.1-0.1 0.2-0.3 0.2-0.5 -0.3 0-0.2 0.3-0.3 0.5C47 22.9 46.8 22.7 46.5 22.9z" class="a"/><path d="M40.1 36.6c0 0 0-0.2 0-0.3 0.2-0.3 0-0.4-0.2-0.4 -0.2 0-0.5 0-0.5 0.3 0 0.3 0.2 0.2 0.4 0.2 0 0 0.1 0 0.1 0 0.1 0.2 0 0.5 0 0.7 -0.1 0-0.2 0-0.3 0.1 -0.1 0-0.2 0-0.2 0.1 0 0.1 0.1 0.1 0.1 0.2 0.1 0.1 0.1 0.1 0.2 0 0-0.1 0.1-0.1 0.2-0.1v0C40.2 37.1 40.4 36.9 40.1 36.6z" class="a"/><path d="M16.4 41.2c-0.3 0.1-0.3 0.3-0.1 0.6C16.4 41.6 16.5 41.5 16.4 41.2z" class="a"/><path d="M45.1 22.9c0-0.1 0-0.2-0.2-0.2 -0.1 0-0.2 0.1-0.2 0.2 0 0.2 0.1 0.1 0.2 0.2C45.1 23.1 45.1 23 45.1 22.9z" class="a"/><path d="M37.5 18.2c0 0.1 0.1 0.1 0.2 0.1 0.1 0 0.2 0 0.2-0.2 -0.1-0.1-0.1-0.2-0.2-0.2C37.4 18 37.5 18.1 37.5 18.2z" class="a"/><path d="M17 41.3c-0.2 0.4-0.2 0.4-0.1 0.7C17 41.7 17.2 41.6 17 41.3z" class="a"/><path d="M46.9 16.9c-0.1 0-0.1 0.1-0.1 0.1 0 0.2 0.1 0.2 0.2 0.2 0.1 0 0.2 0 0.1-0.1C47.1 17 47 17 46.9 16.9z" class="a"/><path d="M31 38c0.1 0 0.1-0.1 0.2-0.2 0-0.1-0.1-0.2-0.2-0.2 -0.1 0-0.1 0.1-0.1 0.1C30.8 37.8 30.8 38 31 38z" class="a"/><path d="M45.3 26.2c0.3-0.4 0.3-0.4 0.1-0.7C45.4 25.7 45.2 25.9 45.3 26.2z" class="a"/><path d="M33.8 23.8c0 0.1 0.1 0.1 0.2 0.1 0.1 0 0.2 0 0.1-0.2 0-0.1 0-0.2-0.1-0.2C33.9 23.6 33.8 23.7 33.8 23.8z" class="a"/><path d="M42 36.2c0 0-0.1 0.1-0.1 0.2 0.1 0.2 0.3 0.1 0.5 0C42.2 36.2 42.2 36.1 42 36.2z" class="a"/><path d="M22 31.4c0 0 0 0.2 0 0.2 0.2 0 0.3-0.1 0.5-0.2C22.3 31.3 22.1 31.2 22 31.4z" class="a"/><path d="M34.8 33.6c0.2 0 0.2-0.2 0.3-0.4 -0.2 0.1-0.4 0.1-0.5 0.2C34.6 33.4 34.7 33.6 34.8 33.6z" class="a"/><path d="M35.2 30.5c0.1 0.2 0.1 0.3 0.2 0.4 0 0 0.1-0.1 0.1-0.1C35.6 30.5 35.4 30.5 35.2 30.5z" class="a"/><path d="M44.2 26c0.2 0 0.4-0.1 0.6-0.2C44.5 25.6 44.3 25.8 44.2 26z" class="a"/><path d="M24.7 40.3c0-0.2-0.1-0.2-0.2-0.2 -0.1 0-0.2 0.1-0.2 0.2 0 0.1 0.1 0.2 0.1 0.1C24.6 40.4 24.6 40.3 24.7 40.3z" class="a"/><path d="M36.3 33.3c0.1-0.1 0-0.3-0.1-0.4 -0.1 0.2-0.2 0.3-0.1 0.5C36.2 33.4 36.2 33.4 36.3 33.3z" class="a"/><path d="M20.4 43.2c-0.3 0-0.3 0.2-0.3 0.3 0 0 0 0 0 0 0 0.2-0.2 0.4 0 0.5 0.2 0.1 0-0.3 0.1-0.4C20.3 43.5 20.4 43.4 20.4 43.2z" class="a"/><path d="M37 33.5c-0.1 0.1-0.2 0.1-0.2 0.2 0 0.1 0 0.1 0.1 0.1 0.2 0 0.2-0.1 0.2-0.2C37.2 33.6 37.1 33.6 37 33.5z" class="a"/><path d="M23.4 36.5c-0.1-0.1-0.1 0-0.1 0.1 -0.1 0.2 0 0.3 0.2 0.4C23.5 36.8 23.6 36.6 23.4 36.5z" class="a"/><path d="M18.7 39.4c0 0.1 0.1 0.2 0.2 0.2 0.1 0 0.2-0.1 0.2-0.2 0-0.1-0.1-0.1-0.2-0.1C18.7 39.2 18.7 39.3 18.7 39.4z" class="a"/><path d="M31.5 37.8c0 0.1 0 0.1 0.1 0.2 0.1 0 0.1-0.1 0.2-0.2 0-0.1 0-0.1-0.1-0.1C31.6 37.7 31.5 37.7 31.5 37.8z" class="a"/><path d="M16.4 40.2c0 0.2-0.1 0.3 0 0.4 0 0 0.1 0 0.1 0C16.7 40.4 16.5 40.4 16.4 40.2z" class="a"/><path d="M23.3 38.6c0.1 0.2 0.2 0.4 0.3 0.6C23.6 38.7 23.6 38.7 23.3 38.6z" class="a"/><path d="M43.7 41c0.1 0.2 0.2 0.3 0.5 0.3C44 41 44 41 43.7 41z" class="a"/><path d="M31.7 24.9c0 0.1 0 0.2 0.1 0.2 0.1 0 0.2-0.1 0.2-0.2 0-0.1 0-0.2-0.1-0.2C31.7 24.7 31.7 24.8 31.7 24.9z" class="a"/><path d="M31.2 21.8c0 0 0.1 0.2 0.1 0.2 0.2 0 0.2-0.1 0.3-0.4C31.5 21.7 31.3 21.6 31.2 21.8z" class="a"/><path d="M35 23.4c0-0.2-0.2-0.2-0.3-0.2 -0.1 0-0.1 0.1-0.1 0.1C34.7 23.5 34.8 23.5 35 23.4z" class="a"/><path d="M22.7 40.9c-0.1 0-0.1 0.1-0.2 0.2 0 0 0.1 0.1 0.1 0.1 0.1 0 0.2 0 0.2-0.1C22.8 40.9 22.7 40.9 22.7 40.9z" class="a"/><path d="M45.2 34.4C45.2 34.4 45.3 34.4 45.2 34.4c0.1-0.2 0.1-0.3-0.1-0.4C45.1 34.2 45.1 34.3 45.2 34.4z" class="a"/><path d="M22.8 38.6C22.8 38.6 22.9 38.5 22.8 38.6c0-0.2 0-0.4-0.3-0.3C22.6 38.4 22.6 38.5 22.8 38.6z" class="a"/><path d="M37.4 30.8c-0.1 0.2 0 0.3 0.2 0.4 0 0 0.1 0 0.1 0C37.7 31 37.6 30.9 37.4 30.8z" class="a"/><path d="M16.2 40.6c-0.1-0.2-0.1-0.3-0.3-0.3 0 0-0.1 0.1-0.1 0.1C15.9 40.6 16 40.6 16.2 40.6z" class="a"/><path d="M46.6 24.8c0.1 0 0.1 0 0.2-0.1 0-0.1-0.1-0.2-0.2-0.2 -0.1 0-0.1 0-0.1 0.1C46.4 24.7 46.4 24.8 46.6 24.8z" class="a"/><path d="M36.4 29.7c0-0.1-0.1-0.1-0.1-0.1 -0.1 0-0.2 0-0.2 0.1 0 0.1 0.1 0.1 0.1 0.1C36.3 29.8 36.4 29.7 36.4 29.7z" class="a"/><path d="M46.6 29.6c-0.2 0-0.3 0-0.4 0.1 0 0.1 0 0.1 0.1 0.1C46.4 29.9 46.5 29.8 46.6 29.6z" class="a"/><path d="M46.4 41.9c0.1-0.2 0-0.3-0.3-0.4C46.2 41.7 46.3 41.8 46.4 41.9z" class="a"/><path d="M40.3 25.4c0-0.2 0-0.3 0-0.4C39.8 25.1 40 25.2 40.3 25.4z" class="a"/><path d="M38 23.5c-0.1 0.1 0 0.2 0.1 0.2 0 0 0.1 0 0.2 0.1 0.3 0.3-0.1 0.3-0.2 0.5 -0.3 0.1-0.5-0.1-0.7-0.3 0 0.2 0 0.4-0.1 0.6 -0.1 0.2 0.3 0.4 0.4 0.3 0.1-0.2 0.5-0.2 0.5-0.5 0.3 0.1 0.7 0 0.8-0.2 0.1-0.3-0.3-0.2-0.5-0.3 0 0-0.1 0-0.1-0.1 0-0.1-0.1-0.1-0.1-0.2C38.2 23.5 38.1 23.4 38 23.5z" class="a"/><path d="M32.3 23.7c-0.2 0.1 0 0.2 0.1 0.4 -0.1-0.2 0.2-0.3 0-0.5C32.4 23.6 32.4 23.6 32.3 23.7z" class="a"/><path d="M40.6 36.9c-0.1 0-0.1 0.1-0.1 0.1 0 0.1 0.1 0.2 0.2 0.2 0.1 0 0.1-0.1 0.1-0.2C40.7 36.9 40.6 36.8 40.6 36.9z" class="a"/><path d="M33.4 22.1c0 0.1 0.1 0.1 0.1 0.1 0.1 0 0.1-0.1 0.1-0.2 0-0.1-0.1-0.1-0.1-0.1C33.5 21.9 33.4 22 33.4 22.1z" class="a"/><path d="M24 43.3c0 0.1 0.1 0.1 0.1 0.1 0.1 0 0.1-0.1 0.1-0.1 0-0.1 0-0.1-0.1-0.1C24.1 43.2 24 43.3 24 43.3z" class="a"/><path d="M21.5 35c0 0.1 0 0.2 0.1 0.2 0.1 0 0.1-0.1 0.1-0.2 0-0.1-0.1-0.1-0.2-0.1C21.5 34.8 21.5 34.9 21.5 35z" class="a"/><path d="M18.3 35.9c0 0 0.2 0 0.2 0 0.1-0.1 0-0.2-0.1-0.4C18.3 35.7 18.2 35.8 18.3 35.9z" class="a"/><path d="M43.8 39.9c0 0.1 0 0.1 0.1 0.1 0.1 0 0.2 0 0.2-0.2 0 0-0.1-0.1-0.1-0.1C43.9 39.8 43.8 39.8 43.8 39.9z" class="a"/><path d="M43.8 29.5c-0.1 0-0.1-0.1-0.2 0 -0.1 0.1 0 0.2 0 0.3 0 0.2 0.2 0.3 0.4 0.4 0.2 0.1 0.5 0.2 0.7 0.3 0.1 0.1 0.1 0.2 0.3 0.2 0 0 0.1-0.1 0.1-0.1 0-0.2-0.2-0.1-0.3-0.2 -0.2-0.3-0.1-0.6 0-0.9C44.5 29.5 44.2 29.6 43.8 29.5z" class="a"/><path d="M44.5 32.2c0 0-0.1 0-0.1 0 -0.2-0.2-0.2-0.5-0.5-0.7 -0.1 0.3-0.1 0.6 0 0.8 0.1 0.2 0.3 0.3 0.5 0.1 0.1 0 0.1-0.1 0.2-0.1 0.1 0 0.2 0 0.2-0.1 0 0 0-0.1 0-0.1C44.6 32 44.5 32.2 44.5 32.2z" class="a"/><polygon points="41.1 38.1 41.1 38.1 41.1 38.1 " class="a"/><path d="M21 38.9c0.1-0.1 0-0.2-0.1-0.4 0 0.2-0.1 0.3 0 0.4C20.9 38.9 21 38.9 21 38.9z" class="a"/><path d="M32.6 41.1c-0.2-0.1-0.4-0.1-0.3 0.2C32.4 41.3 32.5 41.2 32.6 41.1z" class="a"/><path d="M45.7 41.3c0.1 0 0.2 0.1 0.3-0.1 0 0 0-0.2-0.1-0.2C45.8 41.1 45.7 41.1 45.7 41.3z" class="a"/><path d="M45.2 26.5c0-0.1 0-0.1-0.1-0.1 -0.1 0-0.1 0.1-0.2 0.2 0 0.1 0 0.1 0.1 0.1C45.1 26.7 45.2 26.6 45.2 26.5z" class="a"/><path d="M28.6 39.5c0.1 0.7 0.1 0.7 0.8 0.9 0 0 0-0.1 0-0.1C29.3 39.9 29.3 39.4 28.6 39.5c0.1-0.2 0.1-0.3-0.1-0.4C28.5 39.3 28.5 39.4 28.6 39.5z" class="a"/><path d="M17.3 37.5c-0.3 0.2 0 0.4-0.1 0.6 -0.1 0-0.2-0.2-0.3-0.1 -0.1 0.1 0 0.3 0.2 0.3 0.1 0.1 0.2 0.2 0.4 0.2C17.4 38.1 17.4 37.8 17.3 37.5z" class="a"/><path d="M33.3 23.8c-0.1 0.1-0.2 0.2-0.1 0.4C33.4 24.1 33.4 24 33.3 23.8z" class="a"/><path d="M41.2 39.2c0-0.1 0-0.2-0.1-0.1 0 0-0.1 0.1-0.1 0.1 0 0.1 0.1 0.1 0.2 0.1C41.2 39.3 41.2 39.2 41.2 39.2z" class="a"/><path d="M40.3 41.5c-0.1 0-0.2 0.1-0.3 0.1C40.3 41.7 40.3 41.7 40.3 41.5z" class="a"/><path d="M44.8 27c-0.1 0-0.1 0.1-0.1 0.1 0 0.1 0 0.1 0.1 0.1 0.1 0 0.1 0 0.1-0.1C44.9 27.1 44.9 27 44.8 27z" class="a"/><path d="M39.4 35.3c-0.1 0-0.1 0-0.1 0.1 0 0.1 0.1 0.1 0.1 0.1 0.1 0 0.1 0 0.1-0.1C39.5 35.4 39.5 35.3 39.4 35.3z" class="a"/><path d="M47.5 43.1c0 0-0.1 0-0.1 0.1 0 0.1 0.1 0.1 0.1 0.2 0.1-0.1 0.1-0.1 0.1-0.2C47.7 43.2 47.6 43.1 47.5 43.1z" class="a"/><path d="M30.1 41.7c0.1 0 0.1 0 0.1-0.1 0 0-0.1-0.1-0.1-0.1 -0.1 0-0.1 0.1-0.1 0.1C30 41.6 30 41.7 30.1 41.7z" class="a"/><path d="M45.6 28.9c0-0.1-0.1-0.1-0.1-0.1 -0.1 0-0.1 0-0.1 0.1 0 0.1 0.1 0.1 0.1 0.1C45.6 29 45.6 29 45.6 28.9z" class="a"/><path d="M46 16.8c0 0.1 0 0.1 0.1 0.1 0.1 0 0.1 0 0.1-0.1 0-0.1 0-0.1-0.1-0.1C46 16.7 46 16.8 46 16.8z" class="a"/><path d="M45.6 33.9C45.6 33.9 45.7 34 45.6 33.9c0.1 0 0.1-0.1 0.2-0.2 0.2 0 0.3-0.1 0.3-0.3 0-0.1-0.1-0.2-0.2-0.1 -0.2 0.1-0.1 0.2-0.1 0.3C45.7 33.7 45.6 33.8 45.6 33.9z" class="a"/><path d="M44.4 40.4c0 0 0.1 0 0.1-0.1 0.1-0.1 0-0.2-0.2-0.3C44.3 40.2 44.3 40.3 44.4 40.4z" class="a"/><path d="M39.7 40.6C39.7 40.6 39.7 40.6 39.7 40.6 39.7 40.6 39.7 40.6 39.7 40.6 39.7 40.6 39.7 40.6 39.7 40.6 39.7 40.6 39.7 40.6 39.7 40.6 39.7 40.6 39.7 40.6 39.7 40.6z" class="a"/><path d="M40 40.8c0 0 0-0.1 0-0.1 -0.1-0.2-0.2-0.1-0.3-0.1C39.8 40.7 39.8 40.8 40 40.8z" class="a"/><path d="M41.2 41.9c0-0.1-0.1-0.1-0.1-0.1 0 0-0.1 0.1-0.1 0.1 0 0 0 0.1 0.1 0.1C41.1 42 41.2 42 41.2 41.9z" class="a"/><path d="M41.1 37.3c0 0.1-0.1 0.2-0.1 0.3 -0.1 0.2-0.1 0.4 0.1 0.4 0-0.1 0-0.3 0-0.4C41.2 37.6 41.2 37.4 41.1 37.3z" class="a"/><path d="M33.1 22.7C33 22.7 33 22.8 33.1 22.7c0 0.1 0 0.2 0 0.2 0.1 0 0.1 0 0.1-0.1C33.2 22.7 33.1 22.7 33.1 22.7z" class="a"/><path d="M32.8 37c0.2-0.1 0.2 0 0.3 0.1 0.1 0.2 0.2 0.2 0.4 0.1 0.2-0.1 0.2-0.2 0-0.4 -0.1-0.2-0.3-0.4-0.4-0.5C32.8 36.5 32.8 36.7 32.8 37c-0.1 0-0.3 0.1-0.2 0.2C32.7 37.3 32.7 37.1 32.8 37z" class="a"/><path d="M43.2 40.1c0-0.1-0.1-0.1-0.1-0.1 0 0-0.1 0-0.1 0.1C43 40.1 43 40.2 43.2 40.1 43.1 40.2 43.1 40.1 43.2 40.1z" class="a"/><path d="M45.5 25c-0.1 0-0.1 0.1 0 0.2 0.1 0 0.3 0.1 0.4-0.1C45.8 24.9 45.6 25 45.5 25z" class="a"/><path d="M28.5 40.7c0-0.1-0.1-0.2-0.2-0.2 0 0-0.1 0.1-0.1 0.1C28.3 40.7 28.4 40.6 28.5 40.7z" class="a"/><path d="M191.2 15.5c-0.5 1.1-0.9 2.3-1.4 3.4 -2.5 6.5-5 13-7.4 19.5 -0.3 0.9-0.7 1.7-1.2 2.5 -1.1 1.9-2.8 3-4.9 3.3 -1.7 0.2-3.3 0.1-5-0.3 -0.3-0.1-0.4-0.2-0.4-0.5 0.1-1.1 0.2-2.2 0.3-3.4 0-0.3 0.2-0.2 0.4-0.2 0.8 0.2 1.6 0.3 2.5 0.3 2.1 0 3.4-1.1 3.9-3.1 0.2-1 0.2-1.9-0.2-2.9 -2.3-6.1-4.5-12.3-6.7-18.4 -0.2-0.5-0.2-0.5 0.3-0.5 1.6 0 3.1 0 4.7 0 0.3 0 0.5 0.1 0.6 0.4 1.5 4.4 2.9 8.8 4.4 13.2 0.1 0.2 0.1 0.4 0.2 0.5 0.5-1.5 1-3 1.5-4.4 1-3.1 2.1-6.2 3.1-9.3 0.1-0.2 0.1-0.4 0.4-0.4 1.5 0 3.1 0 4.6 0C191.1 15.4 191.2 15.4 191.2 15.5 191.2 15.5 191.2 15.5 191.2 15.5z" class="a"/><path d="M160.2 26.9c0-2.5 0-4.9 0-7.4 0-0.4-0.1-0.5-0.5-0.4 -1 0-2 0-3 0 -0.3 0-0.4-0.1-0.4-0.4 0-1 0-2 0-3 0-0.3 0.1-0.4 0.4-0.4 1 0 2 0 3 0 0.4 0 0.5-0.1 0.5-0.5 0-1.2-0.1-2.4 0.2-3.6 0.7-2.8 2.7-4.4 5.7-4.5 1.2 0 2.5 0.1 3.7 0.3 0.2 0 0.3 0.1 0.3 0.4 -0.1 1.1-0.2 2.1-0.3 3.2 0 0.3-0.1 0.4-0.4 0.3 -0.7-0.2-1.4-0.3-2.2-0.2 -1.1 0.2-1.7 0.7-1.8 1.9 -0.1 0.8 0 1.6-0.1 2.5 0 0.3 0.2 0.3 0.4 0.3 1.2 0 2.5 0 3.7 0 0.3 0 0.4 0.1 0.4 0.4 0 1 0 1.9 0 2.9 0 0.3-0.1 0.4-0.4 0.4 -1.2 0-2.4 0-3.6 0 -0.4 0-0.5 0.1-0.5 0.5 0 4.9 0 9.8 0 14.6 0 0.4-0.1 0.6-0.5 0.5 -1.4 0-2.7 0-4.1 0 -0.3 0-0.5-0.1-0.5-0.4C160.2 31.8 160.2 29.4 160.2 26.9z" class="a"/><path d="M127.3 19.5c-1.1-0.4-2.3-0.7-3.4-0.8 -0.8-0.1-1.7-0.1-2.5 0.1 -0.5 0.2-1 0.4-1.3 0.9 -0.6 0.8-0.4 1.8 0.5 2.4 0.6 0.4 1.3 0.6 1.9 0.8 1 0.3 1.9 0.6 2.8 1 1.9 0.9 3.1 2.2 3.2 4.3 0.2 2.4-0.5 4.3-2.6 5.6 -1.5 1-3.2 1.3-5 1.4 -2 0.1-4-0.3-6-0.7 -0.3-0.1-0.3-0.2-0.3-0.5 0.1-1.1 0.2-2.2 0.2-3.3 0-0.4 0.1-0.4 0.4-0.3 1.4 0.7 2.9 1.1 4.5 1.1 0.7 0 1.5-0.1 2.1-0.4 0.8-0.4 1.3-1 1.4-1.9 0-0.9-0.5-1.5-1.2-1.9 -1-0.5-2-0.7-3-1 -0.5-0.2-1-0.3-1.5-0.5 -2.4-1.1-3.3-3-3-5.6 0.3-2.7 2.1-4.1 4.5-4.8 1.9-0.6 3.8-0.5 5.7-0.2 0.9 0.1 1.7 0.3 2.6 0.5 0.1 0 0.3 0 0.3 0.2C127.5 17.1 127.4 18.2 127.3 19.5z" class="a"/><path d="M54.7 30.2c1.1 0.5 2.1 0.9 3.2 1.1 1.1 0.2 2.2 0.3 3.3-0.1 1.3-0.4 2-1.4 1.7-2.6 -0.1-0.6-0.5-1-1.1-1.3 -0.8-0.5-1.7-0.7-2.6-0.9 -0.9-0.3-1.8-0.6-2.7-1 -1.5-0.9-2.3-2.2-2.4-3.9 -0.3-3.6 2-5.5 4.9-6.2 2.2-0.5 4.4-0.4 6.6 0 0.5 0.1 0.9 0.2 1.4 0.3 0.2 0 0.3 0.1 0.3 0.4 -0.1 1.1-0.2 2.3-0.3 3.5 -0.7-0.2-1.4-0.4-2.1-0.6 -1.2-0.2-2.5-0.4-3.7-0.1 -0.4 0.1-0.7 0.2-1 0.5 -1 0.8-1 2.2 0.1 2.8 0.7 0.4 1.4 0.6 2.2 0.8 1 0.3 1.9 0.6 2.8 1 2.4 1.2 3.2 3.2 2.9 5.8 -0.3 2.8-2.2 4.3-4.8 5 -2.2 0.7-4.5 0.5-6.7 0.1 -0.7-0.1-1.4-0.3-2-0.4 -0.3-0.1-0.4-0.1-0.3-0.4C54.5 32.8 54.6 31.5 54.7 30.2z" class="a"/><path d="M103.3 30.7c0 1.3 0 2.5 0 3.7 0 0.2 0 0.3-0.2 0.4 -2 0.4-4 0.7-6 0 -2.3-0.8-3.3-2.5-3.6-4.8 -0.2-1.4-0.1-2.9-0.1-4.3 0-2 0-4 0-6.1 0-0.4-0.1-0.5-0.5-0.5 -1 0-1.9 0-2.9 0 -0.3 0-0.3-0.1-0.3-0.3 0-1 0-2 0-3 0-0.3 0.1-0.3 0.3-0.3 1 0 2 0 3 0 0.4 0 0.5-0.1 0.5-0.5 0-1 0-2 0-3 0-0.3 0.1-0.4 0.4-0.5 1.5-0.4 2.9-0.9 4.4-1.4 0.3-0.1 0.4 0 0.4 0.3 0 1.6 0 3.1 0 4.7 0 0.4 0.1 0.4 0.4 0.4 1.2 0 2.5 0 3.7 0 0.4 0 0.4 0.1 0.4 0.4 0 1 0 1.9 0 2.9 0 0.3-0.1 0.4-0.4 0.4 -1.2 0-2.5 0-3.7 0 -0.3 0-0.4 0.1-0.4 0.4 0 2.9 0 5.7 0 8.6 0 0.5 0 1 0.2 1.5 0.3 1.1 1 1.7 2.2 1.7 0.4 0 0.8 0 1.2-0.1C102.4 31.1 102.7 31 103.3 30.7z" class="a"/><path d="M105.8 25.1c0-3.1 0-6.1 0-9.2 0-0.4 0.1-0.5 0.5-0.5 1.4 0 2.8 0 4.2 0 0.3 0 0.4 0.1 0.4 0.4 0 6.2 0 12.4 0 18.6 0 0.3-0.1 0.4-0.4 0.4 -1.4 0-2.9 0-4.3 0 -0.3 0-0.4-0.1-0.4-0.4C105.8 31.3 105.8 28.2 105.8 25.1z" class="a"/><path d="M110.9 9.4c0 0.7 0 1.5 0 2.2 0 0.2-0.1 0.3-0.3 0.3 -1.5 0-3 0-4.5 0 -0.2 0-0.3-0.1-0.3-0.3 0-1.5 0-3 0-4.5 0-0.2 0.1-0.3 0.3-0.3 1.5 0 3 0 4.5 0 0.2 0 0.3 0.1 0.3 0.3C110.9 7.9 110.9 8.6 110.9 9.4z" class="a"/><path d="M59.5 40.1c0.4-0.5 0.8-0.7 1.2-0.8 1.3-0.2 2.1 0.5 2.1 1.8 0 0.9 0 1.8 0 2.8 0 0.4-0.3 0.3-0.5 0.3 -0.2 0-0.5 0.1-0.4-0.3 0-0.9 0-1.7 0-2.6 0-0.8-0.3-1.2-0.9-1.2 -0.7-0.1-1.2 0.3-1.4 1 -0.1 0.3-0.1 0.6-0.1 1 0 0.5 0 1.1 0 1.6 0 0.5-0.2 0.7-0.7 0.5 -0.2 0-0.1-0.2-0.1-0.3 0-2.2 0-4.3 0-6.5 0-0.4 0.3-0.2 0.5-0.3 0.2 0 0.4 0 0.4 0.3C59.5 38.3 59.5 39.1 59.5 40.1z" class="a"/><path d="M82.7 43.5c-0.6 0.7-1.2 0.9-2 0.8 -0.7-0.1-1.1-0.5-1.3-1.2 -0.2-1.2-0.1-2.3-0.1-3.5 0-0.2 0.1-0.2 0.2-0.2 0.7-0.1 0.7-0.1 0.7 0.6 0 0.7 0 1.5 0 2.2 0 0.9 0.3 1.3 1 1.4 0.7 0.1 1.2-0.4 1.4-1.2 0.2-0.8 0-1.7 0.1-2.5 0-0.2-0.1-0.4 0.1-0.5 0.2-0.1 0.5 0 0.7 0 0.1 0 0.1 0.1 0.1 0.2 0 1.4 0 2.8 0 4.3 0 0.3-0.2 0.3-0.4 0.3 -0.2 0-0.5 0.2-0.5-0.3C82.7 43.8 82.7 43.7 82.7 43.5z" class="a"/><path d="M154.3 40.1c0.5-0.6 1.1-0.9 1.8-0.8 0.9 0 1.5 0.6 1.6 1.4 0.1 1.1 0 2.1 0.1 3.2 0 0.4-0.4 0.2-0.5 0.2 -0.2 0-0.4 0-0.3-0.3 0-0.7 0-1.3 0-2 0-0.3 0-0.6-0.1-0.9 -0.1-0.4-0.2-0.8-0.7-1 -0.5-0.1-1 0.1-1.3 0.5 -0.2 0.3-0.3 0.6-0.3 1 0 0.7 0 1.5 0 2.2 0 0.4-0.1 0.4-0.5 0.4 -0.3 0-0.5 0-0.5-0.4 0-1.3 0-2.7 0-4 0-0.3 0.1-0.4 0.4-0.4 0.2 0 0.5-0.1 0.5 0.4C154.3 39.8 154.3 39.9 154.3 40.1z" class="a"/><path d="M114.2 43.5c-0.5 0.7-1.1 0.9-1.9 0.8 -0.9-0.1-1.4-0.6-1.5-1.5 -0.1-1 0-2.1 0-3.1 0-0.4 0.3-0.2 0.5-0.2 0.2 0 0.4-0.1 0.4 0.2 0 0.1 0 0.2 0 0.3 0 0.8 0 1.6 0 2.4 0 0.8 0.3 1.2 0.9 1.3 0.6 0.1 1.2-0.3 1.4-1 0.1-0.3 0.1-0.7 0.1-1 0-0.6 0-1.1 0-1.7 0-0.4 0.2-0.4 0.5-0.4 0.3 0 0.4 0.1 0.4 0.4 0 1.3 0 2.6 0 3.9 0 0.3-0.1 0.5-0.4 0.5 -0.4 0-0.5-0.1-0.4-0.5C114.3 43.7 114.2 43.6 114.2 43.5z" class="a"/><path d="M132.8 42.1c0-0.6 0-1.1 0-1.7 0-0.2-0.1-0.4-0.3-0.3 -0.1 0-0.2 0-0.4 0 -0.3 0.1-0.5-0.1-0.5-0.4 0-0.2 0.1-0.3 0.3-0.3 0.8 0 0.8 0 0.8-0.8 0.1-1.2 0.7-1.7 1.9-1.6 0.3 0 0.3 0.2 0.3 0.4 0 0.3-0.1 0.3-0.4 0.3 -0.7 0-0.9 0.2-0.9 0.9 0 0.2 0 0.3 0 0.5 0 0.2 0 0.3 0.3 0.3 0.2 0 0.4 0 0.6 0 0.4 0 0.5 0.2 0.4 0.6 0 0.1-0.1 0.1-0.2 0.1 -0.1 0-0.1 0-0.2 0 -0.9 0-0.9 0-0.9 0.9 0 0.9 0 1.8 0 2.8 0 0.4-0.2 0.4-0.5 0.4 -0.3 0-0.5 0-0.4-0.4C132.8 43.2 132.8 42.7 132.8 42.1z" class="a"/><path d="M143 39.4c1 0 1 0 1.2 0.8 0.3 0.9 0.6 1.8 0.9 2.7 0 0.1 0 0.2 0.2 0.3 0.3-1 0.7-2 1-3.1 0.3-0.7 0.3-0.7 1.1-0.7 -0.4 1-0.7 2-1.1 2.9 -0.2 0.5-0.4 0.9-0.5 1.4 -0.1 0.4-0.3 0.4-0.6 0.4 -0.3 0-0.6 0.1-0.7-0.4C144.1 42.3 143.5 40.9 143 39.4z" class="a"/><path d="M73.5 38c0 0.4 0 0.7 0 1.1 0 0.2 0 0.3 0.3 0.3 0.2 0 0.4 0 0.6 0 0.4 0 0.5 0.2 0.4 0.6 0 0.1-0.1 0.1-0.2 0.1 -0.1 0-0.1 0-0.2 0 -0.9 0-0.9 0-0.9 0.9 0 0.5 0 0.9 0 1.4 0 1.1 0.3 1.3 1.3 1.1 0.1 0.8 0 0.8-0.7 0.8 -1 0-1.5-0.5-1.5-1.4 0-0.8 0-1.6 0-2.4 0-0.3 0-0.4-0.4-0.4 -0.1 0-0.2 0-0.4 0 -0.3 0-0.4-0.1-0.4-0.4 0-0.3 0.1-0.4 0.4-0.4 0.1 0 0.2 0 0.3 0 0.3 0.1 0.4-0.1 0.4-0.4C72.6 38.2 72.6 38.2 73.5 38z" class="a"/><path d="M160.4 38c0 0.3 0 0.6 0 0.9 -0.1 0.4 0.1 0.5 0.5 0.5 0.1 0 0.2 0 0.4 0 0.3 0 0.4 0 0.4 0.4 0 0.4-0.2 0.4-0.4 0.4 -0.9 0-0.9 0-0.9 0.8 0 0.5 0 1 0 1.5 0 1 0.4 1.3 1.3 1 0.1 0.7 0.1 0.8-0.7 0.8 -0.9 0.1-1.5-0.4-1.5-1.4 0-0.7 0-1.5 0-2.2 0-0.6 0-0.6-0.6-0.6 0 0-0.1 0-0.1 0 -0.3 0.1-0.3-0.1-0.4-0.4 0-0.3 0.1-0.3 0.4-0.3 0.7 0 0.7 0 0.7-0.7C159.5 38.3 159.5 38.3 160.4 38z" class="a"/><path d="M57.6 43.4c0.1 0.8 0 0.8-0.7 0.8 -1 0-1.5-0.5-1.5-1.4 0-0.8 0-1.6 0-2.4 0-0.3-0.1-0.5-0.4-0.4 -0.1 0-0.2 0-0.4 0 -0.3 0-0.3-0.1-0.3-0.4 0-0.2 0-0.4 0.3-0.4 0 0 0 0 0 0 0.7 0 0.7 0 0.7-0.7 0-0.3 0.5-0.7 0.8-0.6 0.1 0 0.1 0.1 0.1 0.2 0 0.4-0.1 0.8 0.1 1.1 0.2 0.3 0.7 0.1 1 0.1 0.2 0 0.2 0.2 0.2 0.3 0 0.2 0.1 0.4-0.2 0.4 -0.1 0-0.2 0-0.3 0 -0.8 0-0.8 0-0.8 0.9 0 0.5 0 1 0 1.5C56.3 43.4 56.7 43.7 57.6 43.4z" class="a"/><path d="M122.6 40.2c-0.4-0.1-0.7-0.2-1.1-0.2 -0.3 0-0.5 0.2-0.6 0.5 -0.1 0.3 0.1 0.5 0.3 0.6 0.3 0.2 0.7 0.3 1 0.5 0.6 0.3 0.8 0.8 0.7 1.4 -0.1 0.6-0.5 1-1.1 1.2 -0.6 0.1-1.1 0.1-1.7-0.1 -0.2-0.1-0.4-0.6-0.2-0.8 0.1-0.1 0.2 0 0.3 0 0.4 0.1 0.7 0.3 1.1 0.1 0.3-0.1 0.5-0.2 0.6-0.5 0.1-0.3-0.1-0.5-0.4-0.6 -0.3-0.2-0.6-0.3-0.9-0.5 -0.7-0.4-0.9-0.8-0.8-1.5 0.1-0.6 0.6-1 1.3-1.1 0.2 0 0.5 0 0.7 0C122.7 39.4 122.7 39.4 122.6 40.2z" class="a"/><path d="M165.2 40.2c-0.4-0.1-0.8-0.3-1.2-0.2 -0.3 0-0.5 0.2-0.6 0.4 -0.1 0.3 0.1 0.5 0.3 0.6 0.3 0.2 0.6 0.3 1 0.5 0.6 0.3 0.9 0.8 0.8 1.4 -0.1 0.6-0.5 1-1.2 1.2 -0.5 0.1-1.1 0.1-1.6-0.1 -0.2-0.1-0.3-0.2-0.2-0.4 0-0.5 0-0.5 0.5-0.3 0.4 0.1 0.7 0.2 1.1 0.1 0.2-0.1 0.4-0.2 0.5-0.5 0-0.3-0.1-0.4-0.3-0.6 -0.3-0.2-0.7-0.4-1-0.5 -0.7-0.4-0.9-0.8-0.8-1.5 0.1-0.6 0.6-1 1.3-1.1 0.2 0 0.5 0 0.7 0C165.3 39.4 165.3 39.4 165.2 40.2z" class="a"/><path d="M96 43.3c0.2 0.8 0.2 0.8-0.6 0.9 -1.1 0.1-2-0.3-2.5-1.2 -0.5-0.9-0.4-2.1 0.2-2.9 0.6-0.7 1.7-1 2.7-0.8 0.4 0.1 0.2 0.4 0.2 0.6 0 0.3-0.3 0.1-0.4 0.1 -1.1-0.3-1.9 0.2-2.1 1.3 -0.2 1.1 0.4 2 1.4 2.2C95.3 43.6 95.7 43.5 96 43.3z" class="a"/><path d="M103.6 40.6c0 1 0 2.1 0 3.1 0 0.4-0.1 0.4-0.5 0.4 -0.3 0-0.4 0-0.4-0.4 0-2.1 0-4.2 0-6.2 0-0.4 0.2-0.4 0.5-0.4 0.3 0 0.5 0 0.4 0.4C103.6 38.6 103.6 39.6 103.6 40.6z" class="a"/><path d="M117.4 40.1c0.4-0.4 0.7-0.8 1.3-0.8 0.6 0 0.6 0 0.6 0.6 0 0.1 0 0.1 0 0.3 -0.5-0.1-0.9-0.1-1.3 0.3 -0.4 0.4-0.5 0.9-0.5 1.4 0 0.7 0 1.4 0 2.1 0 0.3-0.2 0.3-0.4 0.3 -0.2 0-0.5 0.2-0.5-0.3 0-1.4 0-2.8 0-4.2 0-0.4 0.2-0.3 0.4-0.3 0.2 0 0.5-0.1 0.4 0.3C117.4 39.8 117.4 39.9 117.4 40.1z" class="a"/><path d="M76.6 40.1c0.4-0.6 0.9-0.9 1.6-0.8 0.4 0 0.2 0.4 0.3 0.6 0 0.3-0.2 0.2-0.3 0.2 -0.6-0.1-1.1 0.3-1.4 1 -0.2 0.6-0.1 1.2-0.1 1.9 0 0.3 0 0.5 0 0.8 0 0.3-0.1 0.5-0.4 0.5 -0.4 0-0.5-0.1-0.5-0.5 0-1.3 0-2.6 0-3.9 0-0.3 0-0.5 0.4-0.5 0.4 0 0.5 0.1 0.5 0.5C76.6 39.9 76.6 39.9 76.6 40.1z" class="a"/><path d="M151.7 29.8c-0.2-0.3-0.3-0.4 0-0.7 1.9-2.4 2.9-5.2 3.1-8.2 0-0.3-0.1-0.4-0.4-0.4 -1.3 0-2.6 0-4 0 -0.2 0-0.3 0.1-0.3 0.3 0 0.4 0 0.8-0.1 1.2 -0.2 1.4-0.5 2.7-1.3 3.9 -0.2 0.2-0.3 0.2-0.5 0 -0.9-1-1.9-2.1-2.9-3.1 -0.6-0.6-1.1-1.2-1.7-1.9 0.4-0.2 0.7-0.4 1-0.6 1.1-0.7 2.1-1.4 2.8-2.4 2.5-3.3 1.3-7.7-2.5-9.2 -0.9-0.4-1.9-0.6-2.9-0.6 -2.4-0.2-4.6 0.3-6.6 1.6 -1.1 0.7-1.9 1.7-2.2 3 -0.5 2 0 3.8 1.3 5.4 0.7 0.8 1.4 1.5 2.2 2.2 -0.8 0.4-1.6 0.7-2.3 1.2 -1.1 0.7-2.1 1.6-2.7 2.9 -1.2 2.6-1.1 7 2.9 9.3 1.5 0.9 3.1 1.3 4.9 1.4 3 0.2 5.7-0.5 8-2.5 0.2-0.2 0.3-0.2 0.4 0 0.4 0.6 0.9 1.2 1.4 1.8 0.1 0.2 0.3 0.3 0.6 0.3 1.9 0 3.9 0 5.8 0 0.1 0 0.2 0.1 0.3-0.1C154.6 33 153.2 31.4 151.7 29.8zM138.5 13.2c0.6-1.1 1.6-1.4 2.6-1.5 1.9 0 3.1 1.1 3.1 2.7 0 0.6-0.3 1.1-0.6 1.5 -0.7 0.9-1.6 1.6-2.6 2.2 -0.2 0.1-0.3 0.1-0.4 0 -0.6-0.6-1.1-1.1-1.6-1.7C138.1 15.4 137.9 14.4 138.5 13.2zM144.5 30.3c-1.1 0.7-2.4 0.9-3.7 0.9 -1 0-2-0.2-2.9-0.8 -1.8-1.2-2.3-3.6-1-5.3 0.6-0.8 1.4-1.4 2.3-1.8 0.3-0.2 0.4 0.1 0.5 0.2 1.7 1.8 3.3 3.7 5 5.5C145.4 29.8 145.4 29.8 144.5 30.3z" class="a"/><path d="M87.9 34.4c0-0.3-0.1-0.6-0.1-0.9 -0.2-3.4-0.2-6.8-0.2-10.1 0-1-0.1-2-0.3-3 -0.5-2.6-2-4.3-4.6-5 -1-0.2-2-0.3-3-0.4 -2.4-0.1-4.8 0.4-7 1.3 -0.2 0.1-0.3 0.1-0.3 0.4 0.1 1.3 0.1 2.7 0.1 4 0.2 0 0.3-0.1 0.4-0.2 2.1-1.4 4.4-2.1 6.9-1.7 1.7 0.2 2.6 1.1 3 2.7 0.1 0.3 0.1 0.6 0.1 0.9 0.1 0.3 0 0.5-0.4 0.5 -1.7 0-3.3-0.1-5 0.1 -1.6 0.2-3.2 0.5-4.6 1.4 -3.3 1.9-3.9 7.5-0.2 9.7 2.6 1.5 5.2 1.7 7.9 0.2 1-0.5 1.8-1.3 2.5-2.4 0 0.5 0 0.8 0.1 1.2 0 0.5 0.1 1 0.1 1.5 0 0.2 0.1 0.3 0.3 0.3 1.3 0 2.6 0 3.9 0C87.9 34.8 88 34.7 87.9 34.4zM81.3 30.5c-0.8 0.7-1.8 1-3.1 1 -0.4 0-1-0.1-1.6-0.3 -1.5-0.7-1.8-2.8-0.6-4 0.8-0.8 1.9-1.1 3-1.2 1.3-0.2 2.5-0.1 3.8-0.1 0.1 0 0.3 0 0.3 0.2C83 27.7 82.7 29.3 81.3 30.5z" class="a"/><path d="M139.6 42c0.8 0 1.5 0 2.3 0 0.9 0 0.9 0 0.7-0.9 -0.2-1.1-0.8-1.7-1.7-1.8 -1.2-0.1-2.1 0.4-2.5 1.4 -0.8 2.1 0.6 3.9 2.8 3.6 0.1 0 0.2 0 0.3 0 0.8-0.1 0.9-0.2 0.8-1.1 -0.4 0.2-0.8 0.4-1.2 0.4 -0.8 0.1-1.5-0.4-1.7-1.1C139.1 42.1 139.1 41.9 139.6 42zM139.3 40.8c0.2-0.5 0.7-0.8 1.3-0.8 0.5 0 0.9 0.4 1 0.9 0.1 0.2 0.1 0.4-0.3 0.4 -0.3 0-0.6 0-1 0 -0.2 0-0.5 0-0.7 0C139.1 41.3 139.1 41.3 139.3 40.8z" class="a"/><path d="M86 42c0.8 0 1.5 0 2.3 0 0.9 0 0.9 0 0.7-0.9 -0.2-1-0.8-1.7-1.7-1.8 -1.2-0.1-2.1 0.4-2.4 1.4 -0.8 2.1 0.6 3.8 2.8 3.6 0.1 0 0.2 0 0.2 0 0.8-0.1 0.9-0.2 0.8-1 0 0 0 0 0-0.1 -0.4 0.2-0.8 0.3-1.2 0.4 -0.8 0.1-1.6-0.4-1.8-1.2C85.7 42.1 85.7 41.9 86 42zM87.2 40c0.3 0 0.6 0.2 0.8 0.5 0.1 0.2 0.3 0.5 0.2 0.7 -0.1 0.2-0.4 0.1-0.6 0.1 -0.6 0-1.2 0-1.8 0C85.8 40.4 86.4 39.9 87.2 40z" class="a"/><path d="M128.7 39.3c-1.4 0-2.4 1-2.5 2.5 0 1.4 1.1 2.5 2.4 2.5 1.4 0 2.5-1.1 2.5-2.5C131.2 40.3 130.2 39.3 128.7 39.3zM130 42.8c-0.5 0.9-1.7 1-2.4 0.2 -0.5-0.7-0.5-1.8 0-2.5 0.3-0.3 0.6-0.5 1-0.5C130 40 130.7 41.6 130 42.8z" class="a"/><path d="M65.3 42c0.8 0 1.5 0 2.3 0 0.9 0 0.9 0 0.8-0.9 -0.2-1-0.8-1.7-1.7-1.8 -1.2-0.1-2 0.4-2.4 1.3 -0.8 2.1 0.5 3.9 2.7 3.6 0.1 0 0.2 0 0.2 0 0.9-0.1 0.9-0.2 0.8-1.1 -0.4 0.2-0.8 0.3-1.2 0.4 -0.8 0.1-1.6-0.4-1.8-1.2C64.9 42 65 42 65.3 42zM65.1 40.8c0.2-0.6 0.7-0.9 1.4-0.8 0.5 0.1 0.9 0.5 1 1 0 0.2 0 0.3-0.2 0.3 -0.3 0-0.7 0-1 0 -0.3 0-0.5 0-0.8 0C64.9 41.3 64.9 41.3 65.1 40.8z" class="a"/><path d="M107.3 39.3c-1.4 0-2.4 1-2.4 2.5 0 1.4 1 2.5 2.4 2.5 1.4 0 2.5-1.1 2.5-2.5C109.7 40.3 108.7 39.3 107.3 39.3zM106.6 43.4c-0.6-0.3-1-1.2-0.8-2 0.2-0.9 0.8-1.4 1.6-1.4 0.7 0 1.3 0.7 1.4 1.5 0 0.1 0 0.2 0 0.2C108.8 43.1 107.7 44 106.6 43.4z" class="a"/><path d="M149.2 42c0.8 0 1.5 0 2.3 0 0.9 0 0.9 0 0.7-0.9 -0.2-1.1-0.8-1.7-1.8-1.8 -1.2-0.1-2 0.4-2.4 1.5 -0.7 2.1 0.6 3.7 2.8 3.5 0.1 0 0.2 0 0.2 0 0.8-0.1 0.9-0.2 0.8-1 0 0 0 0 0-0.1 -0.4 0.2-0.8 0.4-1.2 0.4 -0.8 0.1-1.6-0.4-1.7-1.2C148.8 42.1 148.9 41.9 149.2 42zM149 40.8c0.2-0.6 0.7-0.9 1.3-0.8 0.5 0.1 0.9 0.4 1 1 0 0.2 0 0.3-0.2 0.3 -0.3 0-0.7 0-1 0 -0.3 0-0.5 0-0.8 0C148.8 41.3 148.8 41.3 149 40.8z" class="a"/><path d="M99.1 39.3c-1.5 0-2.5 1-2.5 2.5 0 1.4 1 2.5 2.4 2.5 1.4 0 2.4-1.1 2.4-2.5C101.5 40.3 100.6 39.3 99.1 39.3zM99.1 43.6c-0.9 0-1.5-0.8-1.5-1.8 0-1.1 0.7-1.8 1.7-1.7 0.8 0.1 1.3 0.8 1.4 1.7C100.6 42.8 100 43.6 99.1 43.6z" class="a"/></svg>
