<?xml version="1.0" encoding="utf-8"?>
<!-- Generator: Adobe Illustrator 19.2.1, SVG Export Plug-In . SVG Version: 6.00 Build 0)  -->
<svg version="1.1" id="Layer_1" xmlns="http://www.w3.org/2000/svg" xmlns:xlink="http://www.w3.org/1999/xlink" x="0px" y="0px"
	 viewBox="0 0 72 72" style="enable-background:new 0 0 72 72;" xml:space="preserve">
<style type="text/css">
	.st0{fill:#7f7f7f;}
</style>
<path class="st0" d="M37,19.8c0.1,0,0.2,0,0.3,0c3.9,0,7.7,0,11.6,0c0.4,0,0.4,0,0.4,0.4c0,2.9,0,5.9,0,8.8c0,0.1,0,0.2,0,0.3
	c0.2-0.2,0.3-0.3,0.4-0.4c1.2-1.7,2.5-3.3,3.7-5c1-1.3,1.9-2.6,2.9-3.9c0.1-0.1,0.3-0.2,0.4-0.2c2.5,0,4.9,0,7.4,0
	c0.1,0,0.2,0.1,0.3,0.1c0,0.1-0.1,0.2-0.1,0.3c-1.1,1.6-2.3,3.2-3.4,4.8c-1.5,2.1-3,4.2-4.5,6.3c-0.3,0.4-0.2,0.4,0.1,0.7
	c0.8,0.9,1.6,1.7,2.5,2.6c0.4,0.4,0.7,0.8,1.1,1.2c1.2,1.3,2.4,2.5,3.6,3.8c1,1.1,2,2.1,3,3.2c0.5,0.5,1,1.1,1.5,1.6
	c0.1,0.1,0.1,0.2,0.1,0.2c-0.1,0-0.2,0.1-0.3,0.1c-2.5,0-5.1,0-7.6,0c-0.2,0-0.4-0.1-0.6-0.2c-2.7-2.9-5.5-5.9-8.2-8.8
	c-0.6-0.7-1.3-1.3-1.9-2c-0.1-0.1-0.2-0.1-0.3-0.3c0,0.2,0,0.3,0,0.4c0,2.6,0,5.2,0,7.8c0,0.9,0,1.9,0,2.8c0,0.3-0.1,0.4-0.4,0.4
	c-2,0-4,0-5.9,0c-0.1,0-0.2-0.1-0.3-0.1c0-0.1,0.1-0.2,0.1-0.3c1-1.3,1.7-2.7,2.2-4.3c0-0.1,0-0.1,0.1-0.2c0-0.2,0-0.3-0.2-0.3
	c-0.2,0-0.3,0-0.5,0c-2.3,0-4.5,0-6.8,0c-0.2,0-0.4,0.1-0.5,0.3c-1.1,1.8-2.8,2.8-4.9,3.1c-2.9,0.4-5.4-0.4-7.3-2.7
	c-0.3-0.3-0.3-0.4,0.1-0.6c4.3-1.8,8.6-3.6,12.9-5.4c2.4-1,4.8-2,7.2-3c0.2-0.1,0.3-0.2,0.2-0.4c-0.5-2.7-1.6-5.1-3.5-7.2
	c-1.3-1.5-2.9-2.6-4.7-3.5C37.2,20.1,37.1,20,37,20C37,19.9,37,19.9,37,19.8z"/>
<path class="st0" d="M16.9,44.7c-2.4,0-4.9,0-7.3,0c0-6,0-12,0-18.1c-0.2,0-0.3,0-0.4,0c-2.3,0-4.6,0-6.9,0c-0.4,0-0.5,0-0.5-0.5
	c0-2,0-3.9,0-5.9c0-0.1,0-0.2,0-0.3c7.8,0,15.6,0,23.5,0c-0.1,0.1-0.2,0.2-0.3,0.2c-5,2.4-7.9,6.3-8.8,11.7
	c-0.5,2.5-0.2,5.1,0.6,7.6c0.1,0.2,0.1,0.4,0.1,0.6c0,1.5,0,3,0,4.6C16.9,44.5,16.9,44.6,16.9,44.7z"/>
<path class="st0" d="M23,33.6c0.1-2.3,0.9-4.2,2.4-5.8c1.1-1.1,2.3-1.9,3.8-2.2c2.1-0.4,4.2-0.2,6.1,1c0.5,0.3,1,0.8,1.4,1.2
	c0.3,0.2,0.2,0.4-0.1,0.5c-4.4,1.9-8.8,3.7-13.2,5.5C23,34,23,33.9,23,33.6z"/>
<path class="st0" d="M9.7,52c-0.2,0-0.4,0-0.7,0c0-0.3,0-0.5,0-0.7c0-0.7,0-1.4,0-2.2c0-0.2,0.1-0.3,0.3-0.3c0.7,0,1.4,0,2.1,0
	c0.4,0,0.7,0.3,0.8,0.7c0.1,0.5-0.1,0.9-0.4,1.1c-0.3,0.2-0.3,0.2-0.1,0.5c0.2,0.2,0.3,0.4,0.5,0.6c0.1,0.2,0.1,0.3-0.1,0.3
	c-0.3,0-0.5,0-0.7-0.3c-0.1-0.2-0.2-0.3-0.3-0.5c-0.2-0.4-0.6-0.5-1-0.5c-0.2,0-0.3,0.1-0.3,0.3C9.7,51.4,9.7,51.7,9.7,52z
	 M10.5,50.2C10.5,50.2,10.5,50.2,10.5,50.2c0.2,0,0.5,0,0.7,0c0.2,0,0.4-0.1,0.4-0.4c0-0.3-0.2-0.4-0.4-0.4c-0.3,0-0.7,0-1,0
	c-0.4,0-0.4,0-0.4,0.4c0,0.4,0,0.4,0.4,0.4C10.3,50.2,10.4,50.2,10.5,50.2z"/>
<path class="st0" d="M60.8,49.9c0,0.7,0,1.4,0,2.1c-0.6,0.1-0.6,0.1-0.6-0.5c0-0.7,0-1.4,0-2.2c0-0.2,0-0.5,0.1-0.5
	c0.2-0.1,0.5-0.1,0.7,0.2c0.3,0.3,0.6,0.6,0.9,1c0.3,0.3,0.6,0.6,0.9,1c0,0,0.1,0,0.1,0c0-0.1,0-0.2,0-0.3c0-0.5,0-1,0-1.4
	c0-0.2,0.1-0.4,0.3-0.4c0.3,0,0.3,0.1,0.3,0.3c0,0.9,0,1.8,0,2.6c0,0.1,0,0.1,0,0.2c-0.4,0.1-0.6,0-0.9-0.3c-0.5-0.6-1-1.1-1.5-1.6
	c-0.1-0.1-0.2-0.1-0.3-0.2C60.9,49.9,60.9,49.9,60.8,49.9z"/>
<path class="st0" d="M68.6,52.2c-0.4-0.1-0.8-0.2-1.2-0.3c-0.1,0-0.2-0.1-0.3-0.2c-0.1-0.1-0.2-0.3-0.1-0.4c0.1-0.2,0.4-0.2,0.6,0
	c0.5,0.5,1,0.5,1.6,0.3c0.1,0,0.2-0.2,0.3-0.3c-0.1-0.1-0.2-0.3-0.3-0.3c-0.4-0.1-0.8-0.1-1.2-0.2c-0.2,0-0.4-0.1-0.6-0.2
	c-0.5-0.3-0.5-1,0-1.3c0.2-0.1,0.4-0.2,0.6-0.2c0.5,0,1,0,1.4,0.1c0.2,0,0.4,0.2,0.6,0.4c0.1,0.1,0.2,0.3,0.1,0.4
	c-0.1,0.2-0.4,0.2-0.6,0c-0.4-0.4-0.9-0.4-1.4-0.3c-0.1,0-0.3,0.2-0.4,0.3c0.1,0.1,0.2,0.3,0.4,0.3c0.4,0.1,0.8,0.1,1.1,0.2
	c0.2,0,0.3,0.1,0.5,0.1c0.3,0.1,0.5,0.4,0.5,0.7c0,0.4-0.1,0.7-0.5,0.8C69.4,52,69,52,68.6,52.2z"/>
<path class="st0" d="M22.6,52c0-0.6,0-1.2,0-1.7c0-0.4,0-0.8,0-1.1c0-0.2,0.1-0.3,0.3-0.3c0.6,0,1.2,0,1.7,0
	c0.8,0.1,1.3,0.6,1.4,1.5c0,0.9-0.4,1.6-1.3,1.7C23.9,52,23.3,52,22.6,52z M23.9,49.4c-0.1,0-0.3,0-0.4,0c-0.1,0-0.2,0.1-0.2,0.2
	c0,0.5,0,1.1,0,1.6c0,0.1,0.1,0.2,0.2,0.2c0.4,0,0.8,0,1.2-0.1c0.5-0.1,0.7-0.5,0.6-1c0-0.5-0.3-0.8-0.8-0.9
	C24.3,49.4,24.1,49.4,23.9,49.4z"/>
<path class="st0" d="M17.4,52.1c-0.2,0-0.5,0-0.7-0.1c-0.9-0.2-1.3-0.9-1.2-1.8c0.1-0.8,0.6-1.3,1.5-1.4c0.4,0,0.7,0,1.1,0
	c0.8,0.2,1.3,0.9,1.2,1.8c-0.1,0.8-0.7,1.4-1.5,1.5C17.6,52.1,17.5,52.1,17.4,52.1C17.4,52.1,17.4,52.1,17.4,52.1z M17.4,51.5
	c0,0,0.2,0,0.3,0c0.5-0.1,0.9-0.5,0.9-1c0-0.6-0.2-1-0.8-1.1c-0.3-0.1-0.6-0.1-0.9,0c-0.4,0.1-0.7,0.4-0.7,0.9
	C16.1,51,16.5,51.5,17.4,51.5z"/>
<path class="st0" d="M55,52.1c-0.2,0-0.4,0-0.6-0.1c-0.8-0.2-1.3-0.9-1.3-1.7c0.1-0.9,0.6-1.4,1.5-1.5c0.4,0,0.7,0,1.1,0
	c0.8,0.2,1.3,0.8,1.2,1.8c-0.1,0.8-0.7,1.4-1.5,1.4C55.3,52.1,55.1,52.1,55,52.1C55,52.1,55,52.1,55,52.1z M55.1,51.5
	c0,0,0.2,0,0.3,0c0.6-0.1,0.9-0.5,0.9-1c0-0.6-0.3-1-0.8-1.1c-0.3,0-0.6,0-0.9,0c-0.5,0.1-0.8,0.5-0.8,1
	C53.8,51.1,54.2,51.5,55.1,51.5z"/>
<path class="st0" d="M3.3,52c-0.2,0-0.4,0-0.6,0c0-0.3,0-0.6,0-0.8c0-0.7,0-1.4,0-2c0-0.2,0.1-0.3,0.3-0.3c0.7,0,1.4,0,2.1,0
	c0.5,0,0.8,0.4,0.9,0.8c0,0.5-0.2,0.9-0.7,1c-0.5,0.1-1,0.1-1.4,0.1c-0.4,0-0.4,0-0.4,0.4C3.3,51.5,3.3,51.7,3.3,52z M4.1,50.2
	C4.1,50.2,4.1,50.2,4.1,50.2c0.2,0,0.4,0,0.6,0c0.3,0,0.4-0.1,0.4-0.4c0-0.3-0.1-0.4-0.4-0.4c-0.4,0-0.8,0-1.2,0
	c-0.1,0-0.2,0.1-0.2,0.1c-0.2,0.5,0,0.7,0.5,0.7C3.9,50.2,4,50.2,4.1,50.2z"/>
<path class="st0" d="M37.7,52.1c-0.9,0-1.6-0.4-1.8-1.2c-0.2-1.1,0.2-2.1,1.5-2.1c0.4,0,0.7,0,1.1,0.1c0.4,0.1,0.6,0.3,0.8,0.7
	c0.1,0.2,0.1,0.3-0.2,0.3c-0.2,0-0.4-0.1-0.6-0.2c-0.4-0.4-0.9-0.3-1.4-0.2c-0.4,0.1-0.6,0.5-0.6,0.9c-0.1,0.6,0.2,1,0.7,1.1
	c0.5,0.2,1.1,0,1.4-0.3c0.1-0.1,0.2-0.2,0.3-0.2c0.1,0,0.3,0,0.4,0c0,0.1,0,0.3-0.1,0.4c-0.2,0.5-0.7,0.7-1.2,0.8
	C37.9,52.1,37.8,52.1,37.7,52.1z"/>
<path class="st0" d="M31.9,49.9c0-0.3,0-0.6,0-0.8c0-0.2,0.1-0.3,0.3-0.2c0.2,0,0.4-0.1,0.4,0.2c0,0.6,0,1.2,0,1.8
	c-0.1,0.7-0.4,1.1-1.1,1.2c-0.4,0.1-0.8,0.1-1.1,0c-0.7-0.1-1.1-0.6-1.1-1.3c0-0.6,0-1.1,0-1.7c0-0.3,0.2-0.3,0.3-0.3
	c0.2,0,0.3,0,0.3,0.3c0,0.5,0,0.9,0,1.4c0,0.4,0.1,0.7,0.4,0.9c0.4,0.2,0.9,0.2,1.3,0c0.2-0.1,0.3-0.4,0.3-0.6
	C32,50.5,31.9,50.2,31.9,49.9C31.9,49.9,31.9,49.9,31.9,49.9z"/>
<path class="st0" d="M42.4,49.4c0-0.2,0-0.4,0-0.6c0.1,0,0.3,0,0.4,0c0.9,0,1.8,0,2.6,0c0.5,0,0.5,0,0.4,0.6c-0.3,0-0.7,0-1.1,0
	c-0.2,0-0.3,0.1-0.3,0.3c0,0.6,0,1.2,0,1.8c0,0.5,0,0.6-0.6,0.5c0-0.3,0-0.6,0-0.9c0-0.5,0-0.9,0-1.4c0-0.2-0.1-0.3-0.3-0.3
	C43.2,49.4,42.8,49.4,42.4,49.4z"/>
<path class="st0" d="M49.8,52c-0.2,0-0.4,0-0.6,0c0-0.4,0-0.8,0-1.2c0-0.5,0-1,0-1.5c0-0.6,0-0.6,0.6-0.5
	C49.8,49.9,49.8,50.9,49.8,52z"/>
</svg>
